<svg id="Layer_1" data-name="Layer 1" xmlns="http://www.w3.org/2000/svg" viewBox="0 0 72.62 71.64"><defs><style>.cls-1{fill:#d2d2d2;}</style></defs><title>asset</title><path class="cls-1" d="M54.74,2.7c-4.06.2-5.31.29-7.9.58C33.95,4.75,24.26,8.8,22,13.64c-2,4.42,2.21,8.86,11.32,11.88C48.87,30.66,73.09,30,86.23,24a20.15,20.15,0,0,0,5.27-3.26,8.8,8.8,0,0,0,2-2.47,4.67,4.67,0,0,0,.64-2.22c.1-1.76-.69-3.39-2.43-5-4.65-4.34-15-7.4-27.85-8.23-1.64-.1-7.86-.2-9.14-.14Z" transform="translate(-21.55 -2.68)"/><path class="cls-1" d="M22.2,27.75a2.88,2.88,0,0,0-.59,2,2.33,2.33,0,0,0,.21,1.3c.67,1.43,2,2.65,4.27,3.85,3.26,1.75,8.61,3.29,14.84,4.27l.89.14,0-2.32,0-2.32-.62-.09c-9.08-1.37-16.06-4-18.53-6.89l-.22-.26-.21.32Z" transform="translate(-21.55 -2.68)"/><path class="cls-1" d="M93,27.8a10.76,10.76,0,0,1-2.77,2.14,34,34,0,0,1-4.4,2,64.48,64.48,0,0,1-10.39,2.52L74,34.68l0,2.31c0,2.17,0,2.31.12,2.29L75.61,39a62,62,0,0,0,10.5-2.59c6.4-2.33,9.17-5.33,7.65-8.27a4.05,4.05,0,0,0-.35-.57c-.11-.13-.14-.11-.42.22Z" transform="translate(-21.55 -2.68)"/><path class="cls-1" d="M58.07,31.27a2.2,2.2,0,0,0-1.55,1,6.31,6.31,0,0,0-.17,1.38l-.06,1.14-1,.09a13.89,13.89,0,0,0-5.9,1.71,8.3,8.3,0,0,0-2.92,3.13,6.9,6.9,0,0,0-.44,4.54c.56,2,2.51,3.75,5.62,5,.67.26,3.13,1.11,3.94,1.35.07,0,.1.21.1.56,0,.92-.26,6.89-.3,6.93a9,9,0,0,1-1.93-.61,14.31,14.31,0,0,1-1.39-.79,5.16,5.16,0,0,0-3.52-1.12,2.58,2.58,0,0,0-2.11,1,2.34,2.34,0,0,0,0,2A6.94,6.94,0,0,0,49.83,61a26.58,26.58,0,0,0,5.07,1.39l.45.08,0,1.07c0,1.49.14,1.85,1.14,2.25a3.44,3.44,0,0,0,2.1,0c.93-.37,1.11-.7,1.17-2.08l0-1,.26,0,1-.12a17.48,17.48,0,0,0,3.49-.79c2.69-1,4.47-2.68,5.09-4.87a8.22,8.22,0,0,0,0-3.58c-.6-1.94-2.35-3.59-5-4.69-.81-.34-2-.75-3.46-1.21-.49-.15-.9-.29-.92-.31s.25-7.22.3-7.27a5.17,5.17,0,0,1,1.9.77c.51.28,1.19.62,1.51.76,1.47.65,3.4.43,4.09-.45a2.48,2.48,0,0,0,.45-1.47c-.31-1.68-3.57-3.64-7.15-4.3L60.68,35l0-1.29,0-1.29-.25-.34a2.74,2.74,0,0,0-2.45-.8Zm-2,9.05c0,.56-.08,1.93-.11,3.06s-.08,2.1-.1,2.17-.13.08-.7-.17a4.81,4.81,0,0,1-2.43-1.77,2.61,2.61,0,0,1,.61-3.24,4,4,0,0,1,1.87-.91c1-.23.92-.3.86.86ZM61,52.5a8,8,0,0,1,1.33.9,2.23,2.23,0,0,1,1,1.94c0,1.57-.91,2.47-2.93,2.89l-.49.1L60,56.45c.1-3.4.15-4.33.26-4.33a5.79,5.79,0,0,1,.82.38Z" transform="translate(-21.55 -2.68)"/><path class="cls-1" d="M22.18,39.19a3,3,0,0,0-.57,2,2.55,2.55,0,0,0,.23,1.31c.81,1.84,3.35,3.67,7.1,5.1A59.3,59.3,0,0,0,40.46,50.5l1.17.19.19,0v-2.3c0-2.13,0-2.3-.14-2.34L41,46c-1.12-.17-3.14-.53-4.28-.78-7-1.49-12-3.63-14.09-6.1l-.22-.25-.22.34Z" transform="translate(-21.55 -2.68)"/><path class="cls-1" d="M93.16,39.05a10.35,10.35,0,0,1-1.91,1.68c-3.11,2.14-8.87,4-15.58,5.1l-1.57.26-.19,0v4.61l.19,0,1-.15a69.76,69.76,0,0,0,9.58-2.19C88.85,47,92,45.22,93.31,43.49a3.48,3.48,0,0,0,.45-3.91,4.41,4.41,0,0,0-.34-.57c-.11-.13-.12-.13-.26.05Z" transform="translate(-21.55 -2.68)"/><path class="cls-1" d="M22.2,50.53a6,6,0,0,0-.43.91,2.29,2.29,0,0,0-.18,1.24,3.8,3.8,0,0,0,.21,1.09c1.21,3,6.8,5.74,15.36,7.5,1.15.24,4.42.81,4.62.81,0,0,0-1,0-2.3v-2.3l-.31,0c-8.62-1.32-15-3.49-18-6.1a12.35,12.35,0,0,1-1-.91l-.16-.21-.21.33Z" transform="translate(-21.55 -2.68)"/><path class="cls-1" d="M93.07,50.51a12.14,12.14,0,0,1-2.69,2.12,39.94,39.94,0,0,1-11.79,4c-1.15.24-4.42.81-4.62.81,0,0,0,1,0,2.31s0,2.31,0,2.31l1.21-.19c8.58-1.38,15-3.72,17.62-6.46a4.07,4.07,0,0,0,1.35-2.76A2.28,2.28,0,0,0,94,51.43a4.32,4.32,0,0,0-.65-1.21,2.09,2.09,0,0,0-.25.29Z" transform="translate(-21.55 -2.68)"/><path class="cls-1" d="M22.18,61.73a3,3,0,0,0-.57,2A2.55,2.55,0,0,0,21.84,65c1,2.28,4.49,4.42,9.92,6.07A86.36,86.36,0,0,0,52,74.23c2.15.12,9.58.12,11.81,0,10.5-.57,19.1-2.25,24.69-4.81a15,15,0,0,0,3.65-2.22A6.12,6.12,0,0,0,93.9,65a2.55,2.55,0,0,0,.23-1.31,3,3,0,0,0-.57-2l-.22-.34-.22.25c-2.1,2.42-6.75,4.48-13.56,6C69.77,69.8,56.69,70.34,45,69.06,35,67.95,26.92,65.49,23.49,62.48a12,12,0,0,1-.88-.84l-.21-.25-.22.34Z" transform="translate(-21.55 -2.68)"/></svg>