<svg id="Layer_1" data-name="Layer 1" xmlns="http://www.w3.org/2000/svg" width="1000" height="1000" viewBox="0 0 1000 1000"><defs><style>.cls-1,.cls-3{fill:#2c2a6c;}.cls-2,.cls-4{fill:#fff;}.cls-2,.cls-3{fill-rule:evenodd;}</style></defs><circle class="cls-1" cx="500" cy="500" r="450"/><path class="cls-2" d="M472.39,516.145c-15.9331-15.0508-55.9162-23.3972-70.2025-2.029-.0306.0357-.051.0357-.079.0637-24.073,21.73-29.3118,59.2712-4.51,82.2582a55.04,55.04,0,0,0,77.3278-2.8323c20.1343-21.5262,18.9771-57.1527-2.5366-77.4606ZM800.1272,409.58c-4.8055-17.9139-10.8115-39.1674-22.597-53.9457-9.2641-11.612-22.0846-14.6024-36.2408-16.1727-20.6748-2.2893-40.9519-2.9623-60.918,3.6353-3.0693,1.02-6.0112,4.2851-5.6288,7.7626.9024,8.2444,1.5244,16.3384,1.8942,24.4171-1.3436,16.3611-2.5443,32.7126-3.2658,49.153-.5149,11.78-6.0724,30.408,9.1622,34.0357,19.7341,4.6983,45.4183,1.555,65.5934.7953,12.5884-.4614,25.6179-.5837,38.1045-2.32,5.3483-.7444,10.8471-1.4149,15.0534-5.2388,10.6153-9.6746,1.9146-30.77-1.15-42.1373l-.0076.0153Zm-26.9537,32.4678c-14.8062.9891-29.6431,1.5525-44.4853,1.8712-8.4687.181-16.96.3107-25.4367.283-2.6157.0076-16.0351,1.5091-16.0351,1.5091-1.9733-1.5448.8437-21.6435.961-24.7055.2294-6.1792.469-12.351.6143-18.5356.0281-1.0121.0281-2.04.0434-3.0643a256.4644,256.4644,0,0,0,1.9731-42.9046c24.6492-6.437,65.5068-7.5154,78.5923,15.2065,6.9162,12.0225,11.1736,26.324,14.8879,39.5931,1.45,5.2312,3.88,11.4311,4.1171,16.9449.571,13.1088-3.1941,12.9941-15.232,13.7946v.0076ZM665.0017,353.25c2.8629,11.6194.3748,26.5994.362,38.5224q-.0535,20.4123-.0943,40.8219c-.0434,19.52-1.0554,26.26-21.8806,26.0156q-39.8914-.4665-79.7878-1.0707c-13.2947-.1785-26.6-.2371-39.8889-.54-5.4708-.1223-12.5375.6424-16.8228-3.7372-4.79-4.8845-3.3752-13.0932-3.3242-19.1708.102-12.95.39-25.8906.7086-38.8563.3111-12.9046-.023-25.9927.9534-38.8692.4181-5.58.5787-10.6739,5.7079-13.8605,6.1438-3.8086,15.3213-1.6417,21.998-.9968,27.048-.0665,54.1036.0128,81.1746.4028,12.6317.1887,26.918-1.4658,39.3534.7521,6.5262,1.1854,9.9143,3.982,11.5407,10.5872Zm-14.33,92.2361c3.1433-2.4779.2091-29.3679.24-34.54q.1377-18.852.2881-37.671c.0587-6.3452,2.0522-13.2538-2.6946-16.3817a6.5862,6.5862,0,0,0-.8107-.3926c-23.3847,2.58-48.5462-.2524-71.8952-.6782-12.7108-.2322-25.45-.6067-38.14.0944-1.0325.0637-15.9127.2957-18.6.6271,1.3563.8974,1.7182,14.0849,1.7182,14.4112q-.5314,17.9381-1.0554,35.8711c-.28,9.2361-3.7577,24.2668-1.2925,32.9089a8.2133,8.2133,0,0,1,.362,2.3555c2.5493.0434,5.0935.0867,7.653.1148,5.1088.0739,10.2252.1606,15.3417.2243q18.4161.2715,36.8169.5583l36.8322.5251q9.2044.1416,18.4136.2754c2.8476.0433,16.1651,2.2051,16.8228,1.6978ZM497.1994,383.2606c.28-11.5763,7.1609-38.8691-6.9443-45.0715-7.0743-3.1051-17.9573-1.4225-25.3426-1.5169q-16.7067-.2064-33.4085-.28-16.7145-.0649-33.4085,0c-6.4676.0278-16.0708-1.4811-22.0106,2.47-12.2061,8.1144-6.3147,34.2447-6.2433,46.01.13,20.6977-3.7423,46.3436,1.6979,66.3378a6.9417,6.9417,0,0,0,5.0527,4.8436c16.2084,2.687,34.8668-.311,51.45-.0306,19.418.334,38.8487.7954,58.2667,1.2365a3.6519,3.6519,0,0,0,3.903-3.49,10.0248,10.0248,0,0,0,4.1681-4.4157c3.5639-7.6247,1.5907-22.9357,1.8584-31.0731q.562-17.4945.9611-35.02ZM383.8679,357.2527c1.9731-10.1666,14.6049-6.6486,23.6652-6.669q15.177-.0344,30.3722.0638,13.6476.0765,27.331.26c2.9191.051,12.2213-1.1778,15.1836.232,4.4868,2.1465,3.1509.39,3.1637,6.96.0586,21.2152-1.1267,42.4687-1.4506,63.6992-.0739,4.6624,1.4072,11.75-.1095,15.92-2.2688,6.1922,1.4658,4.38-7.9488,5.2031-10.2329.8821-20.8048.24-31.0734.311q-26.2551.1721-52.5.3467c-9.6312-5.4631-6.2789-18.11-6.3375-28.71q-.0651-13.6362-.1377-27.2877c-.0561-9.2489-1.9069-21.2589-.158-30.329Zm156.82,208.8486-10.9645-.4844c-7.6071-.3671-15.232-.7928-22.834-1.3129-4.1325-.2753-6.6486-2.8042-7.161-6.8449-2.6156-20.3484-6.3529-40.7-24.027-53.446-13.9192-10.0161-32.157-13.7738-49.0613-11.7063-19.4893,2.3986-32.6336,14.0619-40.85,31.2747a138.3767,138.3767,0,0,0-7.964,22.699c-1.1854,4.2624-1.4735,10.6433-4.53,14.1843-14.6687,16.9681-37.21-5.7436-38.9508-20.8252-.9815-8.5427.051-21.2306,6.6919-27.8284,1.4379-35.5191,2.0012-70.9849.3544-106.5247-1.1141-23.8894-8.8945-55.4321,3.1713-77.7841,10.6892-19.7774,32.2155-19.7341,52.1178-19.938q46.7821-.4435,93.5668-.8951c63.7146-.5427,127.3858-.2317,191.0851,1.2928,47.3481,1.1267,99.3767-.6654,125.1042,46.71,11.1507,20.5247,15.8387,43.6621,20.5142,66.3327q8.5311,41.3067,16.3384,82.7326a17.7624,17.7624,0,0,1,2.6309,1.3231c8.6931,5.4351,7.9716,17.2638,7.9437,26.3189-.0231,8.9685,1.068,24.0272-6.7863,30.5228-8.1654,6.7579-23.4281,3.9973-33.0466,4.163-3.5486.0662-7.6734-3.128-7.3419-7.008,2.868-33.2352-21.0725-65.8563-55.9546-66.3812-40.22-.6144-57.405,32.0192-64.6883,66.4959-.6578,3.1356-3.7144,5.2107-6.7506,5.3968a1296.7743,1296.7743,0,0,1-138.6078,1.5322ZM373.39,519.3548a149.4531,149.4531,0,0,0-5.5574,14.6993c-.9687,3.0056-1.8432,6.0112-2.6742,9.0321-1.7336,6.2942.0714,6.83-7.7473,6.2-8.0992-.6574-9.899-6.7477-10.6-14.5664-.6577-7.3575,1.0325-9.8224,7.4286-13.06,6.4319-3.25,12.9989-3.7857,19.8794-3.8214-.2369.5047-.4918.9968-.7291,1.5168ZM673.32,550.637V550.63c.9381-4.1554,1.9578-8.26,3.1279-12.3131q-43.195,3.9691-86.5868,3.9182c-25.71-.0153-53.51.7289-79.1429-3.6072.8387,3.9537,1.5194,7.9793,2.1108,12.025a1307.0758,1307.0758,0,0,0,160.491-.0155Zm134.1567-47.5059a6.7376,6.7376,0,0,0-3.7373,1.1268c-11.923-14.3857-29.07-24.3305-48.9057-25.702A76.1054,76.1054,0,0,0,702.043,495.501c-10.702,8.7288-17.3633,19.7928-22.003,31.94a6.3164,6.3164,0,0,0-.8387-.0357c-28.8045,1.8559-57.6574,2.998-86.5282,2.7966-28.2258-.1963-56.8849-4.0407-85.0114-3.281-4.1554-13.0065-10.8957-24.7282-22.9437-33.6532-17.7686-13.1366-41.0819-17.4018-62.6311-13.7025-17.9139,3.0795-31.7081,12.7567-41.3853,26.7676-7.291-.2753-17.45-1.4454-26.222-.1963,1.4812-24.2718,1.9146-48.61,1.4812-72.9405-.4564-25.2507-3.5793-50.5069-3.7219-75.7194-.0792-12.8635,1.7181-27.0554,14.4161-33.2834,11.1863-5.4861,26.9027-3.3523,39.0807-3.4849q39.2148-.39,78.45-.8c55.1795-.52,110.3667-.6221,165.5539.441,27.3667.5353,55.2611-.2473,82.5181,2.47,25.4956,2.5362,47.6285,11.9536,61.3744,34.5123,12.3284,20.2335,16.9453,44.2711,21.7939,67.1332q8.1946,38.6868,16.9681,77.2c-8.55-.3261-17.9928,1.3157-24.9168,1.4661Zm26.5356,48.2072c7.189-4.1987,5.5855-15.8464,5.4912-22.5817-.1452-9.8275-.91-10.5872-10.3323-11.816-5.32-.6857-11.2093-.13-16.8024.1887a75.7182,75.7182,0,0,1,8.91,35.0273c4.9074.3391,10.37.5634,12.7337-.8183Zm-61.4253-44.6512c-19.4588-9.1492-39.3892-5.5139-54.2031,6.0854-24.7664,15.8541-29.6585,54.0451-11.194,76.8358,21.9469,27.1143,65.1014,26.3776,85.9648-1.6162,20.4275-27.41,10.233-66.8451-20.5677-81.3277v.0227Zm14.3678,70.2971c13.8019-23.4637,1.6749-53.0993-23.558-61.5808-22.8009-7.6683-47.6667,5.9959-55.7812,28.1009-.028.0739-.0713.1377-.1019.2116-3.1076,17.3428,3.8239,37.5256,17.9215,47.0422,20.3281,13.7228,49.023,7.4592,61.52-13.7739ZM760.4907,529.17c-16.3894-7.1559-35.67,2.4473-40.0545,19.6245a4.3156,4.3156,0,0,0,.3314,3.1586c-2.1465,8.6217.3035,17.5162,9.3431,25.2558,14.2073,12.1778,33.8063,8.2164,43.4375-7.421,9.0119-14.6406,2.6386-33.7909-13.0575-40.6179Zm4.9431,34.6067c6.2432-11.3469-.5354-24.5574-13.3175-26.0819-9.1852-1.0911-15.9918,3.99-20.9145,10.9136-2.9036,6.7123-1.871,13.8019,4.9788,20.1545,9.5752,8.8871,23.0966,6.2,29.2532-4.9862ZM462.6794,545.6432c5.2592,15.089-3.9387,33.2071-19.0433,38.2139-16.4022,5.4428-33.977-5.1674-36.1745-22.35-1.6392-12.8357,4.9864-23.349,15.3136-28.6668,13.4042-10.0468,34.3314-3.1943,39.9042,12.8026Zm-24.2388,28.032A18.0385,18.0385,0,0,1,417.21,557.5688c-.8158-7.4083,3.9107-13.6365,10.0672-17.2358,10.159-2.0242,21.2942-2.5289,25.8345,8.8817,4.2115,10.5923-4.0406,22.6174-14.6712,24.4605Zm25.126,14.6993a43.1557,43.1557,0,0,1-57.9048-.39c-18.9183-17.2559-15.5227-44.97.1657-62.87a5.125,5.125,0,0,0,1.3154-.9025c40.0342-37.2376,97.86,27.4534,56.4313,64.1553Z"/><path class="cls-3" d="M435.5182,378.8866,537.49,429.8726l76.4789,25.4929,70.3747,27.8528V636.1761l-478.2622-2.36s-76.4789-152.9578-50.9859-152.9578S282.56,378.8866,282.56,378.8866Z"/><path class="cls-2" d="M331.3513,538.5557c-15.074-14.243-52.8749-22.1407-66.381-1.93-.0282.0229-.051.0354-.0791.0586-22.7474,20.5448-27.7134,56.0386-4.2625,77.7841a52.0444,52.0444,0,0,0,73.1139-2.6818c19.0355-20.3638,17.9521-54.0375-2.3913-73.2311Zm174.25-69.4174c-9.3583-19.9508-39.1368-34.441-58.3177-42.6268a187.8556,187.8556,0,0,0-72.8614-15.0739c-48.6559-.2167-100.2,7.7243-119.5391,58.389a4.336,4.336,0,0,0,.9688,4.6754c.8667,2.9266,3.7654,5.0222,10.1462,5.5932,12.14,1.0758,25.2992-1.1293,37.518-1.5117q20.3127-.6157,40.6638-.8668,39.1074-.478,78.2379.1453c25.7836.39,52.2682,3.0133,77.9957.8515,5.0579-.4181,7.2553-5.1955,5.1878-9.5752Zm-124.1558-4.03q-29.7235-.0649-59.4522.54-15.64.3366-31.2671.905c-4.0967.1581-8.456-.0662-12.5094.4972-8.8384,1.2287-12.5221,6.9085-9.524-1.1855,20.746-38.747,67.625-42.795,108.8421-41.9639a173.0624,173.0624,0,0,1,63.6788,13.58c14.503,6.1562,35.9375,15.9688,47.71,29.3755-35.5244,1.82-72.0329-1.6851-107.4783-1.7488Zm234.7621,9.4859c37.4263,17.6332,53.6857,60.528,40.6562,98.8362,2.3836,3.3881,1.0121,9.3509-4.3287,9.3075q-11.6859-.0879-23.3694-.1529a5.8877,5.8877,0,0,1-5.8913-5.6365c-2.4933-29.6053-25.9927-55.0419-56.7041-54.2542-31.29.8031-50.7871,24.6772-54.3561,54.3281a4.1046,4.1046,0,0,1-1.54,2.9263,5.362,5.362,0,0,1-4.4,2.2768q-75.2169,2.5009-150.439-.4283c-3.0413-.107-6.1133-2.4269-6.0113-5.7435,1.2772-41.653-54.4734-72.9507-86.9131-42.65-6.901,6.4523-11.7345,14.48-15.1684,23.1808-2.2178,5.6314-2.5365,13.0649-5.4631,18.3269-4.9635,8.8945-17.4295,6.7786-26.1073,7.09-4.2574.15-5.4071-4.3568-3.5283-7.0463-10.3323-45.9587-1.1905-95.1576,26.4643-133.6086,11.7726-16.3537,25.8345-30.3494,45.0486-37.337,21.8373-7.913,47.1747-9.8658,70.1617-11.7064,47.6489-3.8239,92.6185,2.7533,132.9994,29.4393,19.8156,13.1006,38.5326,28.71,60.7956,37.5919,22.0055,8.7875,46.517,5.0935,68.0942,15.26ZM238.5008,552.22c-1.5754,4.0483-1.9578,9.4961-3.9463,13.2257-2.8322,5.3332-7.6224,6.5033-12.9351,7.0743a159.0607,159.0607,0,0,1-3.3957-33.5589,5.9571,5.9571,0,0,0,2.0446-.854c1.1574-.7521,6.1642-.311,7.4363-.3314q3.9883-.0765,7.9767-.0663c3.3676.0306,6.7277.1224,10.0952.2521a78.59,78.59,0,0,0-7.2757,14.2585Zm264.5354,18.3855A76.4467,76.4467,0,0,1,515.11,540.21c-24.4247,3.1585-49.3263,2.4419-73.8735,2.6155-29.4189.2167-58.8453.3773-88.2642.7291a59.7,59.7,0,0,1,8.4916,26.7039q70.7736,2.7185,141.5726.3467ZM614.66,531.438c-11.222-11.7446-26.4107-19.4613-44.0008-20.0043a62.9946,62.9946,0,0,0-46.3641,17.83c-.1071.0127-.1937-.0153-.311-.0077-59.4572,3.7067-119.48,2.3913-179.032,2.376a5.4,5.4,0,0,0-.9458.0943,70.1665,70.1665,0,0,0-47.9038-21.7939c-15.9357-.5277-31.1524,6.3962-42.2036,17.6819a6.2342,6.2342,0,0,0-2.5289-.7572c-7.523-.5506-15.0587-.905-22.6021-.9253-3.1866-.023-6.7938-.413-10.0315.158,2.9266-36.2688,17.863-71.8216,44.5286-96.7687,20.8405-19.5174,53.2879-21.432,80.3564-24.2438,26.4923-2.7383,53.6067-3.462,79.7955,2.0955,48.5743,10.3119,79.88,49.7673,125.507,65.573,23.7084,8.2164,49.7751,3.4619,71.3522,18.2323a64.6654,64.6654,0,0,1,26.867,39.5347c-9.7179-.13-19.4664-.4053-29.1792-.181a5.3978,5.3978,0,0,0-3.3039,1.1064Zm29.9695,39.6643a75.3117,75.3117,0,0,0,4.0815-29.88c-8.67.1224-17.3505.3671-26.0207.3034a74.8884,74.8884,0,0,1,11.4184,29.5412q5.2654.0306,10.5208.0355Zm-54.1776-40.0849c-18.3983-8.6345-37.2579-5.1955-51.2562,5.7818-23.4127,15.0026-28.0371,51.0981-10.5846,72.64,20.7538,25.6382,61.5527,24.9369,81.2817-1.5248,19.3084-25.9133,9.6823-63.2095-19.4409-76.8967Zm13.58,66.506v-.0153c13.05-22.1839,1.5831-50.2163-22.2732-58.231-21.562-7.24-45.0767,5.6748-52.7449,26.5662a1.7124,1.7124,0,0,1-.0944.1938c-2.9317,16.4124,3.6226,35.4887,16.94,44.4929,19.2293,12.9858,46.3642,7.0539,58.1724-13.0066Zm-25.0188-45.2449c-15.5-6.7556-33.7323,2.3275-37.88,18.564a4.0205,4.0205,0,0,0,.3263,2.9929c-2.0317,8.1654.2728,16.5679,8.8283,23.8894,13.4424,11.505,31.9707,7.76,41.0692-7.0233,8.52-13.8452,2.5008-31.9478-12.3438-38.423Zm4.6754,32.7355c5.8965-10.7325-.5047-23.2113-12.6012-24.6644-8.6727-1.0325-15.1173,3.773-19.7647,10.3272-2.7455,6.3528-1.7845,13.05,4.6958,19.056,9.0628,8.405,21.84,5.8682,27.67-4.7188ZM322.1662,566.4348c4.9864,14.2658-3.7143,31.4-18.0082,36.1311-15.5074,5.1522-32.1212-4.8844-34.2014-21.1362-1.5525-12.1346,4.7188-22.0692,14.4826-27.099,12.6751-9.5038,32.4525-3.0209,37.727,12.1041Zm-22.9131,26.5a17.0539,17.0539,0,0,1-20.0757-15.2269c-.7723-6.9879,3.699-12.8995,9.5165-16.2875,9.5981-1.9145,20.14-2.3938,24.4248,8.39,3.982,10.0086-3.8214,21.3807-13.8656,23.1247Zm23.7518,13.8962a40.7715,40.7715,0,0,1-54.7385-.362c-17.9011-16.318-14.6915-42.512.1428-59.4445a4.76,4.76,0,0,0,1.2518-.8591C307.4975,510.9442,362.18,572.13,323.0049,606.8309Z"/><path class="cls-1" d="M518.0961,604.48l-59.3644-52.6872,18.5419-39.2039-6.3969-23.6843-48.82-1.5717-30.6583-6.9452-131.166,8.5169-19.4719,16.71s21.1532,10.5587,19.4719,28.9427c-.3694,4.0393-13.0855,12.7872-13.4809,17.236-.3275,3.6853-50.76-.8248-51.0934,3.0334-3.4235,39.6833,33.1358,92.4637,35.8957,92.006,4.8264-.8,280.7929-14.9658,280.7929-14.9658Z"/><path class="cls-4" d="M200.7617,561.0533c-3.3132,1.388-6.5951,2.872-9.8978,4.2893-3.1515,1.3523-6.3047,2.5238-9.526,3.6946-6.3688,2.3149-12.1578,6.7062-16.76,11.636-4.7151,5.0509-9.7286,10.385-12.6888,16.7107-1.4606,3.1213-1.8,6.4208-2.44,9.7629-.6533,3.4085-1.5992,6.7492-2.1376,10.181-.5438,3.465-.7244,6.9877-1.0115,10.4808a38.9177,38.9177,0,0,0,.41,11.0623,35.1789,35.1789,0,0,0,3.5867,9.235c1.6243,3.108,3.2285,6.191,4.6815,9.3847a35.2062,35.2062,0,0,0,5.2874,8.4669c2.24,2.62,5.0428,4.5327,7.4572,6.9622,2.356,2.3708,4.2515,5.1649,6.626,7.5117A29.5588,29.5588,0,0,0,182.43,685.69c3.0359,1.46,6.3342,2.2935,9.3253,3.8258a31.6669,31.6669,0,0,0,9.4764,3.4658c7.1332,1.15,14.53.4817,21.6279-.6621,3.5052-.5648,6.9376-1.45,10.4244-2.1024,3.4534-.6461,6.8236-1.0533,10.1338-2.3069a62.1917,62.1917,0,0,0,9.2835-4.2561,52.3424,52.3424,0,0,0,8.56-6.4738,78.5923,78.5923,0,0,0,13.1128-15.6323c3.8468-5.9208,7.6519-12.1966,9.9528-18.9016a52.211,52.211,0,0,0,2.1843-10.4792,46.28,46.28,0,0,0,.274-10.6075c-.7436-7.0714-3.6692-13.0579-7.6162-18.8726-2.0988-3.0921-3.8975-6.34-5.8632-9.5131a101.6434,101.6434,0,0,0-6.1636-8.6083c-4.1882-5.4091-9.812-8.8186-16.0541-11.4113-3.2089-1.3329-6.2618-3.0287-9.5536-4.1611-3.4946-1.2022-7.0667-2.1647-10.55-3.4005a92.0989,92.0989,0,0,0-9.9374-3.3107c-3.4014-.7883-6.7735-1.916-10.253-2.3082a19.6414,19.6414,0,0,0-10.0326,1.08Zm9.6467,8.1617a10.14,10.14,0,0,1,2.3586.5078c.5042.2389.9235.673,1.4566.9036,1.5057.6513,3.1274,1.0177,4.63,1.69,2.79,1.2492,5.4386,2.7936,8.2283,4.0445,2.74,1.2289,5.5893,2.196,8.3293,3.4244,2.7168,1.218,5.2659,2.7549,7.9652,4.0021a81.25,81.25,0,0,1,7.9589,3.8345,25.0506,25.0506,0,0,1,6.4179,5.7792c3.7271,4.5018,6.6425,9.4945,10.0276,14.2376,3.4575,4.8445,6.9289,9.77,7.6388,15.8585a40.8,40.8,0,0,1-2.0787,18.2032,69.0565,69.0565,0,0,1-3.9221,8.3074c-1.363,2.6007-2.7522,5.192-4.311,7.6816a65.5975,65.5975,0,0,1-10.8615,13.1724,43.134,43.134,0,0,1-15.014,8.9211,41.3338,41.3338,0,0,1-8.3619,1.6443c-2.9944.4292-5.95,1.0991-8.947,1.5106a82.54,82.54,0,0,1-8.8459.6928,45.5609,45.5609,0,0,1-8.5793-.2313,26.6182,26.6182,0,0,1-8.2509-3.0483c-2.65-1.3775-5.5266-2.135-8.2153-3.3973a25.874,25.874,0,0,1-6.8966-4.2771c-2.0216-1.9427-3.7716-4.1412-5.7117-6.1615-2.02-2.1036-4.4388-3.7421-6.4964-5.8a24.5158,24.5158,0,0,1-4.939-7.1893c-1.2225-2.6386-2.3867-5.2884-3.7258-7.872a37.92,37.92,0,0,1-3.439-7.9707,28.4987,28.4987,0,0,1-.5154-9.2028c.2062-3.0545.2754-6.1447.6268-9.1862a91.0355,91.0355,0,0,1,1.8895-8.9846c.6321-2.8754.91-6.0134,2.0584-8.7456,2.2817-5.4273,6.9206-9.6677,10.92-13.8206a38.5872,38.5872,0,0,1,14.2248-9.6688c2.8207-1.0423,5.5476-2.2515,8.2586-3.55,2.5571-1.2245,5.186-2.2916,7.7161-3.5717a20.0376,20.0376,0,0,1,3.8248-1.6251,13.3694,13.3694,0,0,1,4.5819-.1132ZM246.0262,686.86l.3017-.1276-.3017.1276Zm.3853-.1629c-.2181.0926.7092-.2992.713-.3008q-.3564.1506-.713.3008Z"/><path class="cls-4" d="M435.9306,562.6176a53.8426,53.8426,0,0,0-9.6951,2.0275,60.8778,60.8778,0,0,0-9.3081,3.5234,97.1642,97.1642,0,0,0-8.6864,4.8273,60.8524,60.8524,0,0,0-15.7679,11.899,71.5218,71.5218,0,0,0-6.9907,7.5329,57.5845,57.5845,0,0,0-8.9918,17.3973,70.4509,70.4509,0,0,0-3.5775,20.6569c-.1621,6.7827,2.4463,12.9939,5.7863,18.7821,1.7113,2.9655,3.7445,5.7749,5.6291,8.633a94.7414,94.7414,0,0,0,5.96,8.0434,49.0092,49.0092,0,0,0,6.9327,7.17,98.6917,98.6917,0,0,0,8.3927,5.77c2.885,1.8755,5.5645,4.0047,8.3351,6.0376a18.91,18.91,0,0,0,9.1787,3.2038c3.3165.42,6.65,1.0259,9.92,1.722,3.24.69,6.2007,2.282,9.4769,2.7929,6.6619,1.039,13.4768-.9078,19.6036-3.3605,6.0374-2.4169,12.2629-4.5766,17.8537-7.95a40.2251,40.2251,0,0,0,7.5915-5.9718c2.3809-2.3645,4.9037-4.6536,7.12-7.1742,4.2616-4.8465,6.9282-10.7638,9.5882-16.5822a45.0749,45.0749,0,0,0,3.2652-9.3326,57.5543,57.5543,0,0,0,1.0427-10.6076,50.891,50.891,0,0,0-.8726-10.15,63.3068,63.3068,0,0,0-2.2569-9.7122,75.0515,75.0515,0,0,0-4.1361-9.3323,59.4206,59.4206,0,0,0-5.2288-9.0288c-4.088-5.43-8.9292-10.0686-13.76-14.8222-4.8148-4.7381-10.0335-9.1078-16.2419-11.91-6.2466-2.82-13.0625-3.7529-19.8538-4.1029a74.058,74.058,0,0,0-10.3088.019Zm.5327,8.6714a74.8743,74.8743,0,0,1,17.7387,1.4818,40.2742,40.2742,0,0,1,15.071,7.2429,54.2321,54.2321,0,0,1,6.4769,5.9649c2.0432,2.0759,4.111,4.1284,6.1494,6.2087a60.415,60.415,0,0,1,5.8,6.67,52.7983,52.7983,0,0,1,4.2564,7.3038,62.4479,62.4479,0,0,1,3.4514,7.8139,50.6316,50.6316,0,0,1,1.9669,8.8687,47.4407,47.4407,0,0,1-.57,17.28c-1.25,5.5544-4.3569,10.7926-7.0519,15.7605-2.5825,4.7609-6.7011,8.6749-10.4644,12.522-4.0088,4.0981-9.3672,6.6688-14.5205,9.0428-5.2128,2.4013-10.1942,5.2309-15.83,6.545a14.9409,14.9409,0,0,1-8.1031-.0754,80.448,80.448,0,0,0-8.3289-2.0682c-2.9522-.5889-5.8961-1.1593-8.86-1.6846a12.9084,12.9084,0,0,1-3.688-1.0112,20.7346,20.7346,0,0,1-3.5468-2.7513c-2.1864-1.8387-4.3924-3.6374-6.7057-5.3154a69.03,69.03,0,0,1-6.821-5.1408c-4.1032-3.8351-7.1566-8.9656-9.9238-13.8067-2.94-5.1441-6.594-10.1984-8.4435-15.8779a25.4,25.4,0,0,1-.9682-8.6564,60.8469,60.8469,0,0,1,.7365-9.01,59.0706,59.0706,0,0,1,5.3673-16.7612c2.6776-5.2583,6.7516-9.3234,10.77-13.5634a47.8967,47.8967,0,0,1,6.2868-5.817c2.3643-1.7353,4.803-3.372,7.225-5.0248a62.8128,62.8128,0,0,1,7.4875-4.4722c.8142-.4039,2.7555-1.689,3.5743-1.4038.4678.163.8839.7064,1.3988.894a3.3057,3.3057,0,0,0,1.8121.1436c1.33-.28,2.5648-.9217,3.9261-1.121a35.1721,35.1721,0,0,1,4.3308-.1814Z"/><path class="cls-4" d="M317.3185,613.3347a5.4032,5.4032,0,0,0-2.4181.6858c-.3315.1884-.7291.6831-1.0562.8008a5.91,5.91,0,0,1-1.3354.0029,11.9717,11.9717,0,0,0-5.6824,1.86c-3.1229,2.01-5.5417,5.823-6.6666,9.304a17.8353,17.8353,0,0,0,.3867,12.4063c1.4213,3.5181,3.7975,7.4718,7.08,9.5269,3.3127,2.0739,7.9147,2.684,11.7549,2.4591a20.1487,20.1487,0,0,0,11.112-4.2571,18.52,18.52,0,0,0,6.6313-8.3694,22.4984,22.4984,0,0,0,.9178-12.3276,13.2845,13.2845,0,0,0-7.4023-9.5977,30.5781,30.5781,0,0,0-13.3215-2.4942Zm-4.4453,6.742c.8413,1.9725,2.4257,2.5886,4.3776,2.9608a50.3524,50.3524,0,0,1,6.6376,1.8229,5.9167,5.9167,0,0,1,2.556,1.198,6.2607,6.2607,0,0,1,.7933,3.506c-.0074,2.0229-.1713,4.62-1.3625,6.3323a11.6224,11.6224,0,0,1-4.8952,3.8446,15.0093,15.0093,0,0,1-6.6.64,7.5963,7.5963,0,0,1-2.9039-.5944,9.5681,9.5681,0,0,1-2.5667-2.305,10.8944,10.8944,0,0,1-2.93-6.2483,11.8085,11.8085,0,0,1,1.5374-7.0126c1.2092-2.0316,2.757-4.053,5.3559-4.1442Z"/><path class="cls-4" d="M403.3971,535.45a38.7141,38.7141,0,0,0-4.3241,3.9359c-1.3244,1.4663-2.35,3.1525-3.6,4.6747-2.3942,2.9172-5.574,5.2355-8.2615,7.8791-2.9575,2.9091-6.2859,5.45-9.4064,8.182-3.0682,2.6861-6.0573,5.4678-9.1775,8.0933-1.4945,1.2575-3.0285,2.468-4.4829,3.7726-1.5329,1.3749-2.8738,2.9273-4.281,4.4263a114.4579,114.4579,0,0,0-7.7955,8.9869c-2.4616,3.233-5.2058,6.22-7.8086,9.336a91.5383,91.5383,0,0,0-7.0415,9.8111,81.0266,81.0266,0,0,0-5.6953,10.5832c-.7437,1.682-2.1789,3.8182-1.6641,5.718a3.5133,3.5133,0,0,0,3.6952,2.5351c1.9216-.1837,2.618-1.5861,3.2955-3.1718.75-1.7549,1.5051-3.5092,2.3521-5.22a68.7757,68.7757,0,0,1,6.426-10.1376,98.0817,98.0817,0,0,1,8.1706-9.2308c2.7725-2.9139,5.2266-6.0961,7.97-9.031,5.5934-5.9833,11.718-11.3721,17.5509-17.1086,2.9625-2.9135,5.9144-5.8353,8.9052-8.72,2.9006-2.7976,5.5322-5.8348,8.4817-8.5835a39.1214,39.1214,0,0,0,3.807-3.9321c1.2663-1.5637,2.36-3.25,3.7229-4.7359,1.7925-1.9544,6.707-5.3182,3.4319-8.1987a3.1977,3.1977,0,0,0-4.2712.1355Z"/><path class="cls-4" d="M293.9955,525.8829a34.1622,34.1622,0,0,0-13.0451,3.3955c-1.6288.8095-3.8477,1.54-4.8267,3.1769a4.474,4.474,0,0,0-.05,4.4635c2.4089,4.145,6.8692.95,9.8449-.4513,4.0512-1.9076,8.8537-2.22,13.2707-2.1227,4.733.1048,9.3951,1.1279,14.112,1.4785,4.722.351,9.48.1691,14.2085.0732,4.7773-.0968,9.5314-.0027,14.2964.3712,4.7986.3765,9.5666,1.0433,14.3575,1.4956a127.5737,127.5737,0,0,0,14.3346.4812c4.7048-.0857,9.3423-.69,14.0331-.9613,4.5937-.2655,9.2291-.3553,13.83-.3138,2.5036.0225,5.0163.0735,7.5173.19a3.8353,3.8353,0,0,0,2.3458-7.1541,7.9947,7.9947,0,0,0-3.0432-.576q-1.8336-.1934-3.6743-.31c-4.7712-.3087-9.5769-.3355-14.3542-.17-4.8231.1672-9.6083.8631-14.4362.8947-4.8071.0315-9.6371-.12-14.4292-.5023-4.847-.3863-9.6563-1.1289-14.5015-1.5356a139.9311,139.9311,0,0,0-14.4845-.5395c-4.7161.0942-9.4245.3532-14.1426.1832-4.82-.1736-9.5113-1.2973-14.3074-1.6544a47.8419,47.8419,0,0,0-6.8563.0875Zm16.1089,1.1732.34.0469-.34-.0469Z"/><path class="cls-4" d="M280.3249,532.3865a51.3471,51.3471,0,0,0-11.0081,6.44c-3.38,2.6784-5.0127,6.595-7.1518,10.23-2.2505,3.8245-4.3893,7.7467-6.9491,11.3765-2.5834,3.6631-5.6648,6.9323-8.1746,10.6654-5.1079,7.5971-9.8027,15.4623-14.9148,23.0531-5.013,7.4434-10.664,14.4391-14.578,22.5675-.9842,2.044-1.9056,4.1332-2.6872,6.2636a30.325,30.325,0,0,0-1.8033,5.92,5.3168,5.3168,0,0,0,5.7166,5.9213c4.2141-.44,4.7658-4.78,5.8928-8.0382a65.3834,65.3834,0,0,1,5.98-12.1045c4.5615-7.6239,9.9112-14.7481,14.59-22.3055,2.36-3.812,4.8161-7.5592,7.2443-11.3276a129.11,129.11,0,0,1,7.3356-10.8715c5.4244-6.7915,9.5089-14.4226,13.4712-22.129,1.87-3.6365,6.2558-5.8592,9.7324-7.7615,1.5264-.8352,2.9206-1.4485,3.3657-3.2841a4.199,4.199,0,0,0-1.0672-3.9731,4.2834,4.2834,0,0,0-4.9943-.6423Z"/><path class="cls-4" d="M250.6615,621.6235c-7.1338.829-14.3284.7358-21.46,1.5814a57.0728,57.0728,0,0,0-9.849,1.9936c-2.5553.771-5.2969,1.6321-5.6688,4.714a4.8167,4.8167,0,0,0,3.9295,5.2073c1.415.2491,2.7491-.3534,4.0778-.7538a45.0969,45.0969,0,0,1,5.1276-1.3426c6.9181-1.2247,14.0083-.8324,20.9875-1.4187,3.4793-.2923,6.92-.8326,10.3739-1.3292a53.0059,53.0059,0,0,1,9.927-.2225c3.56.1558,7.1179.3127,10.6791.4273,3.5085.1129,7.0872-.0354,10.4949.8973,1.48.4051,2.9321.9156,4.4244,1.2761,1.6135.39,3.262.6337,4.8555,1.1062,1.4009.4155,2.591,1.0493,4.1016.7774a5.0665,5.0665,0,0,0,2.4794-8.77c-2.2735-2.0582-5.6488-2.5337-8.5136-3.1823-3.6427-.8246-7.0865-1.9115-10.8618-1.99-3.9519-.0824-7.9042.0341-11.8569-.0746-3.8925-.1069-7.8112-.4286-11.7053-.3159a99.0274,99.0274,0,0,0-11.5425,1.4189Z"/><path class="cls-4" d="M277.4979,509.9008a4.0559,4.0559,0,0,0-1.8645,2.4942,5.1418,5.1418,0,0,0-.1105,1.4084c.0069.308.0187.6073.0137.9186-.0035.2155-.1317,1.1292.0068.1115a105.4006,105.4006,0,0,0-1.0557,12.1845,13.9171,13.9171,0,0,0,.8844,5.5032c.6567,1.6585,1.6159,3.2151,2.1662,4.905,1.2359,3.7951,2.2674,7.69,3.2876,11.5484a57.8871,57.8871,0,0,0,4.14,10.7328c3.5778,7.2965,7.3143,14.486,10.7135,21.8732,3.3592,7.3,5.5692,15.0882,9.222,22.2569,1.7812,3.4956,3.722,6.9071,5.7946,10.2374a7.1628,7.1628,0,0,0,3.1872,3.2745,4.9673,4.9673,0,0,0,4.0994-.1061,5.0871,5.0871,0,0,0,1.9864-7.2232c-2.04-3.4243-4.1025-6.813-5.9082-10.3712-3.6751-7.2412-5.6705-15.16-8.9208-22.5918-3.3458-7.65-6.9049-15.19-10.409-22.767a67.4653,67.4653,0,0,1-3.7271-11.3117c-.9917-3.7363-1.8949-7.7058-3.558-11.2092a15.186,15.186,0,0,0-1.3174-2.3472c-.5668-.7915-1.3128-1.3212-1.4633-2.28a45.6552,45.6552,0,0,1-.1105-6.3023c-.0453-3.2644.28-8.0019-2.31-10.448a4.0606,4.0606,0,0,0-4.7464-.4906Z"/><path class="cls-4" d="M253.2676,501.2233A5.7932,5.7932,0,0,0,252.86,512.27c1.8034.6672,3.3968.1611,5.1627-.3487a31.8778,31.8778,0,0,1,6.7736-1.5566,65.8557,65.8557,0,0,1,6.94.11c4.7174.2233,9.4345.3482,14.1559.44,4.6053.0895,9.2677.6045,13.8715.3638,2.0664-.1081,4.0571-.3139,5.5926-1.857a5.9426,5.9426,0,0,0,1.6377-5.1379,6.0886,6.0886,0,0,0-3.1925-4.3647c-1.7661-.8648-4.2621-.7454-6.1884-.8039-4.5841-.1391-9.13-.3663-13.7177-.3431-5.1782.0263-10.3537-.0488-15.5312-.1279-5.2266-.08-10.1136,1.1157-15.0968,2.58Z"/><path class="cls-4" d="M408.3678,489.0584c-2.1357.19-4.5945.4982-5.8765,2.4569-1.3158,2.01-1.1464,4.5377-.62,6.7653.2617,1.1081.6856,2.1668.9707,3.2685a19.3805,19.3805,0,0,1,.4347,3.7116,44.38,44.38,0,0,0,1.078,7.265c.5585,2.3986.9507,4.8386,1.5878,7.2183.67,2.5019,1.7869,4.8523,2.4938,7.3443,1.4127,4.98,2.2017,10.1145,4.0774,14.96,1.759,4.544,4.469,8.5608,6.44,12.99a45.5509,45.5509,0,0,1,2.1531,7.024c.6754,2.5794,1.4749,5.1245,2.2733,7.6679.7556,2.4067,1.5545,4.7744,2.5343,7.1.9919,2.3545,2.1759,4.6327,3.1376,6.9977,1.8741,4.61,2.7468,9.5892,4.3589,14.2906,1.6276,4.7462,3.8286,9.2824,5.117,14.1467a32.7949,32.7949,0,0,1,1.1473,7.3544,33.8434,33.8434,0,0,1-.789,7.4024c-.4107,2.193-.7778,4.4,1.229,5.9439a4.3376,4.3376,0,0,0,4.9592.1561c1.8336-1.1568,1.9067-3.3134,2.2691-5.2557a53.7818,53.7818,0,0,0,.9894-7.8036c.4-10.4551-4.1953-19.8543-6.2435-29.8868-.5122-2.5085-.9137-5.0491-1.5966-7.5194a68.9514,68.9514,0,0,0-2.4778-6.9673,125.5743,125.5743,0,0,1-4.281-14.42c-.646-2.4588-1.1208-4.9844-1.9191-7.3995a47.5866,47.5866,0,0,0-2.9963-6.95c-1.1356-2.1851-2.4924-4.2454-3.6031-6.4446a41.3834,41.3834,0,0,1-2.6577-7.132c-1.42-4.8636-2.5239-9.72-4.2805-14.4838a73.3209,73.3209,0,0,1-2.03-7.3413c-.606-2.3717-1.436-4.6766-2.0308-7.0537a42.059,42.059,0,0,0-2.1631-6.996,56.4093,56.4093,0,0,1,10.402.6567c3.4209.4028,6.8548.6612,10.2955.8184,3.36.1536,6.7383.1075,10.0194.9277a27.82,27.82,0,0,1,8.57,3.6257,6.1188,6.1188,0,0,1,2.6432,2.86,8.8143,8.8143,0,0,1,.4756,4.6229,12.1207,12.1207,0,0,1-2.2331,3.8556,15.7151,15.7151,0,0,1-3.705,3.57c-2.7141,1.8627-6.2379,2.2606-9.4482,2.4107-2.6583.1242-5.717.2223-7.4526,2.5689a5.4275,5.4275,0,0,0,1.2782,7.6178c2.2766,1.5954,5.7209,1.2877,8.3515,1.05a26.3293,26.3293,0,0,0,17.2354-8.0355,29.2863,29.2863,0,0,0,5.1252-7.7782,11.23,11.23,0,0,0,1.2242-4.2276,27.0651,27.0651,0,0,0-.3642-4.9614,15.3044,15.3044,0,0,0-3.8-8.2335c-2.1135-2.2756-5.1231-3.5355-7.948-4.6825a45.0855,45.0855,0,0,0-10.6662-2.8782c-3.6546-.5157-7.3361-.4676-11.0131-.6668-7.6229-.4126-15.0084-2.2148-22.675-1.5305Z"/></svg>