<svg id="Layer_1" data-name="Layer 1" xmlns="http://www.w3.org/2000/svg" xmlns:xlink="http://www.w3.org/1999/xlink" viewBox="0 0 78.89 74.33"><defs><style>.cls-1{fill:none;}.cls-2{clip-path:url(#clip-path);}.cls-3,.cls-5{fill:#d2d2d2;}.cls-4{fill:#fff;}.cls-5{stroke:#d2d2d2;stroke-width:0.09px;}</style><clipPath id="clip-path" transform="translate(-18.27 -1.39)"><rect class="cls-1" x="10.13" y="-5.58" width="95.46" height="88.16"/></clipPath></defs><title>bridges</title><g class="cls-2"><path class="cls-3" d="M58.57,4a1.26,1.26,0,0,0-1.7,0L21.08,37.75a1.09,1.09,0,0,0,0,1.61L56.86,73.07a1.26,1.26,0,0,0,1.7,0L94.35,39.36a1.09,1.09,0,0,0,0-1.61ZM51.33,42.21,45.13,49.1v7.82H43.8V47.66l4.35-4.93V34.38L43.8,29.45V20.19h1.33V28l6.21,6.89Zm7.16,14.7H56.94V49.47h1.56ZM56.94,34.83h1.56v7.44H56.94Zm1.56-7.2H56.94V20.19h1.56Zm13.14,1.82-4.35,4.93v8.34l4.35,4.93v9.26H70.3V49.1L64.1,42.21V34.9L70.3,28V20.19h1.33Z" transform="translate(-18.27 -1.39)"/><path class="cls-4" d="M96.06,36.15,60.27,2.43a3.78,3.78,0,0,0-5.11,0L19.37,36.15a3.27,3.27,0,0,0,0,4.82L55.16,74.68a3.78,3.78,0,0,0,5.11,0L96.06,41a3.27,3.27,0,0,0,0-4.82m-.71,4.15L59.56,74a2.73,2.73,0,0,1-3.69,0L20.08,40.29a2.36,2.36,0,0,1,0-3.48L55.87,3.1a2.73,2.73,0,0,1,3.69,0L95.35,36.81a2.36,2.36,0,0,1,0,3.48" transform="translate(-18.27 -1.39)"/><path class="cls-5" d="M96.06,36.15,60.27,2.43a3.78,3.78,0,0,0-5.11,0L19.37,36.15a3.27,3.27,0,0,0,0,4.82L55.16,74.68a3.78,3.78,0,0,0,5.11,0L96.06,41A3.27,3.27,0,0,0,96.06,36.15Zm-.71,4.15L59.56,74a2.73,2.73,0,0,1-3.69,0L20.08,40.29a2.36,2.36,0,0,1,0-3.48L55.87,3.1a2.73,2.73,0,0,1,3.69,0L95.35,36.81A2.36,2.36,0,0,1,95.35,40.29Z" transform="translate(-18.27 -1.39)"/></g></svg>