<svg id="Layer_1" data-name="Layer 1" xmlns="http://www.w3.org/2000/svg" width="1000" height="1000" viewBox="0 0 1000 1000"><defs><style>.cls-1{fill:#2c2a6c;}.cls-2{fill:#fff;}</style></defs><circle class="cls-1" cx="500" cy="500" r="450"/><path class="cls-2" d="M406.6557,334.8813c-13.475,6.2139-12.7251,11.4222-13.7686,20.4427-.5654,4.8571-1.6738,19.5-2.3491,32.944-.5421,13.4471-1.0364,25.6755-1.0364,25.6755s-2.5643,12.15-4.8375,25.6253c-2.3062,13.4642-4.2625,28.2558-4.0386,33.1741.4123,9.0768,7.47,14.1431,20.4782,21.2649,12.6371-7.8093,19.4652-12.883,19.6793-21.6882.1125-4.7642-2.0138-19.064-3.88-32.2675-1.8622-13.1032-3.5909-25.2779-3.5909-25.2779s-.3695-12.0645-.772-25.3011c-.274-13.2635-.2006-27.7553.0232-32.5659C412.9688,348.0493,418.719,343.536,406.6557,334.8813Z"/><path class="cls-2" d="M405.89,473.98c12.16,12.8781,20.4575,11.6852,35.0741,12.0559,15.8328.3989,95.1324.394,95.1324.394s79.2617,8.83,95.0969,8.56c14.62-.2483,22.941-7.1535,35.2062-19.93-12.1588-12.8781-20.422-19.853-35.0411-20.2286-15.8315-.4013-95.1641,7.7726-95.1641,7.7726s-79.3131,3.4183-95.1483,3.69C426.428,466.5473,418.1575,461.2032,405.89,473.98Z"/><path class="cls-2" d="M405.8764,347.2981c11.1518,12.7692,18.6712,11.503,31.9383,11.7428,14.3708.2593,86.3308-.4515,86.3308-.4515s72.0054,8.1238,86.3725,7.7139c13.2659-.378,20.7535-7.3579,31.7708-20.2433-11.1519-12.7705-18.7129-19.6708-31.9811-19.9142-14.3709-.2631-86.2869,8.618-86.2869,8.618s-71.9442,4.1243-86.31,4.5366C424.446,339.6846,416.8936,334.4127,405.8764,347.2981Z"/><path class="cls-2" d="M631.4415,344.133c13.113.6534,12.4242-1.5011,13.5988-4.65,1.27-3.4135,5.6939-21.03,5.6939-21.03s12.954-15.3079,13.5779-18.8951c.5775-3.3119-5.6242-6.959-17.2752-13.0127-13.1118-.6533-20.3081-.6337-21.4863,2.5154-1.2736,3.4123,2.1887,23.1638,2.1887,23.1638s-1.1317,18.51-1.7544,22.098C625.4135,337.6353,619.7918,338.0806,631.4415,344.133Z"/><path class="cls-2" d="M650.8089,473.4647c-11.3,6.7046-9.5956,8.0161-9.0916,10.9414.3867,1.6994,1.4963,6.5736,2.5253,11.0943.8392,4.561,1.6039,8.711,1.6039,8.711s-1.61,4.5121-3.26,9.1343c-1.71,4.6749-3.6887,9.4672-3.526,11.05.301,2.94,7.1866,4.6345,19.8775,8.0748,12.9345-2.1728,19.9607-4.2906,20.2813-8.076.1786-2.0566-1.9564-8.2082-4.4839-13.5339A109.4723,109.4723,0,0,0,669.45,500.96s-1.5821-4.7373-3.597-9.7645c-2.1387-5.06-4.43-10.4764-5.1289-12.1281C659.4391,475.6865,663.8656,472.1152,650.8089,473.4647Z"/><path class="cls-2" d="M657.68,533.397c15.703,1.44,18.8032-3.9873,26.2271-11.7,4.0521-4.2185,15.9931-17.1,27.3932-28.4772,11.3488-11.4271,22.0529-21.424,22.0529-21.424s12.3312-8.2963,25.6877-17.2838c13.4837-8.9177,28.3623-18.1463,32.8241-21.83,8.2449-6.8183,8.8468-15.9258,8.6107-31.71-14.9458-4.8975-24.3052-6.5761-33.3429.07-4.9,3.5969-17.9126,16.5656-29.1317,29.0363-11.2791,12.4266-20.8477,24.2477-20.8477,24.2477s-10.4361,10.91-21.4215,23.2983c-11.0417,12.3446-22.5239,26.2333-26.4182,30.78C662.0844,516.8314,653.9433,518.0977,657.68,533.397Z"/><path class="cls-2" d="M656.4832,286.9915c.8174,15.6908,6.62,17.9261,15.3838,24.0336,4.82,3.2923,19.2327,13.1362,32.4633,22.1727,13.0518,9.2872,24.9205,17.7315,24.9205,17.7315s10.48,10.452,21.8278,21.7715c11.3782,11.4026,23.5478,23.9479,28.1076,27.4984,8.4309,6.5577,17.47,5.1238,32.7079,1.26,1.4547-15.6175,1.117-25.0075-7.1756-32.2565-4.49-3.9285-19.6731-13.66-33.9081-22.0039-14.2153-8.3868-27.43-15.4522-27.43-15.4522s-12.5868-7.9109-26.4083-16.5962c-14.0074-8.4321-29.25-17.6056-34.2764-20.6312C673.3755,288.7924,670.9861,280.9831,656.4832,286.9915Z"/><path class="cls-2" d="M593.3442,665.1186c13.4738-6.214,12.7263-11.4222,13.77-20.4428.564-4.8559,1.6724-19.4994,2.3478-32.9428.542-13.447,1.0363-25.6767,1.0363-25.6767s2.5643-12.15,4.8387-25.6253c2.3052-13.4641,4.2613-28.2557,4.0362-33.174-.4123-9.0757-7.469-14.142-20.477-21.265-12.6371,7.8094-19.4652,12.8843-19.6793,21.69-.1136,4.7641,2.0126,19.0639,3.88,32.2675,1.8609,13.1032,3.59,25.2778,3.59,25.2778s.37,12.0633.7734,25.3c.2727,13.2635.2005,27.7553-.0234,32.5672C587.0312,651.9505,581.2809,656.4651,593.3442,665.1186Z"/><path class="cls-2" d="M594.11,526.0213c-12.16-12.8794-20.4587-11.6865-35.0741-12.056-15.8328-.4-95.1324-.3939-95.1324-.3939s-79.2617-8.831-95.0956-8.5618c-14.6228.2484-22.9423,7.1536-35.2075,19.9314,12.1587,12.8781,20.422,19.853,35.04,20.2274,15.8328.4025,95.1644-7.7727,95.1644-7.7727s79.3129-3.4183,95.1482-3.6887C573.5718,533.4525,581.8423,538.7978,594.11,526.0213Z"/><path class="cls-2" d="M594.1222,652.7017c-11.1506-12.7692-18.67-11.5029-31.9371-11.7427-14.37-.2594-86.3309.4514-86.3309.4514s-72.0065-8.1225-86.3724-7.7139c-13.2659.38-20.7547,7.3591-31.7695,20.2433,11.1494,12.7693,18.71,19.6708,31.98,19.9155,14.3708.2618,86.2867-8.6193,86.2867-8.6193s71.943-4.123,86.31-4.5366C575.5538,660.3165,583.1062,665.5871,594.1222,652.7017Z"/><path class="cls-2" d="M368.5584,655.8668c-13.1131-.6521-12.4243,1.5012-13.5989,4.6516-1.27,3.4122-5.695,21.03-5.695,21.03s-12.9529,15.3066-13.5781,18.8938c-.5762,3.3131,5.6267,6.96,17.2765,13.0127,13.1119.6533,20.3081.6338,21.4863-2.5142,1.2736-3.4122-2.1875-23.1649-2.1875-23.1649s1.13-18.5085,1.7533-22.0969C374.5862,662.3646,380.208,661.9192,368.5584,655.8668Z"/><path class="cls-2" d="M349.1911,526.5351c11.3-6.7045,9.5954-8.0161,9.0914-10.94-.3867-1.6994-1.4963-6.5725-2.5265-11.0943-.8391-4.56-1.6027-8.7123-1.6027-8.7123s1.61-4.5121,3.26-9.1343c1.71-4.6736,3.6887-9.4671,3.526-11.05-.301-2.94-7.1866-4.6344-19.8787-8.0736-12.9332,2.1729-19.9595,4.2907-20.2813,8.0748-.1774,2.0579,1.9576,8.2094,4.4852,13.5339A109.4387,109.4387,0,0,0,330.55,499.04s1.5819,4.7384,3.5957,9.7656c2.141,5.059,4.43,10.4752,5.13,12.1269C340.5607,524.3133,336.1342,527.8858,349.1911,526.5351Z"/><path class="cls-2" d="M342.32,466.6028c-15.7031-1.4412-18.8045,3.9873-26.2285,11.7-4.0508,4.2184-15.993,17.1-27.3919,28.4784-11.3488,11.4258-22.0541,21.4239-22.0541,21.4239s-12.33,8.2963-25.6877,17.2826c-13.4825,8.919-28.36,18.1463-32.8229,21.8314-8.2461,6.8171-8.8468,15.9257-8.6107,31.7083,14.9458,4.8975,24.3064,6.5773,33.3429-.07,4.9-3.597,17.9126-16.5656,29.13-29.0363,11.2791-12.4267,20.8489-24.2477,20.8489-24.2477s10.4361-10.91,21.42-23.2983c11.0429-12.3447,22.5251-26.2322,26.4181-30.7786C337.9168,483.1684,346.0552,481.9034,342.32,466.6028Z"/><path class="cls-2" d="M343.5166,713.0084c-.8173-15.6909-6.62-17.9249-15.3838-24.0336-4.82-3.2924-19.234-13.1363-32.462-22.1728-13.0531-9.286-24.9218-17.7315-24.9218-17.7315s-10.4788-10.452-21.8277-21.7714c-11.3769-11.4027-23.5479-23.948-28.1076-27.4985-8.431-6.5565-17.47-5.1238-32.708-1.2589-1.4547,15.6174-1.1158,25.0075,7.1756,32.2564,4.49,3.93,19.6731,13.66,33.9068,22.0027,14.2166,8.3868,27.4312,15.4523,27.4312,15.4523s12.5869,7.9108,26.4072,16.5962c14.01,8.432,29.2515,17.6067,34.2763,20.6311C326.6243,711.2086,329.0137,719.0167,343.5166,713.0084Z"/></svg>