<svg id="Layer_1" data-name="Layer 1" xmlns="http://www.w3.org/2000/svg" xmlns:xlink="http://www.w3.org/1999/xlink" viewBox="0 0 102.85 65.67"><defs><style>.cls-1{fill:none;}.cls-2{clip-path:url(#clip-path);}.cls-3{fill:#d2d2d2;}</style><clipPath id="clip-path" transform="translate(-7.49 -8.69)"><rect class="cls-1" width="123.71" height="82.2"/></clipPath></defs><title>employees</title><g class="cls-2"><path class="cls-3" d="M29.2,40.49a12,12,0,1,0-12.06-12,12.05,12.05,0,0,0,12.06,12" transform="translate(-7.49 -8.69)"/><path class="cls-3" d="M15.87,61.17H19V74.36h11V56.63A18.78,18.78,0,0,1,35.37,43.1a38,38,0,0,0-6.17-.49c-11.5,0-21.71,4.76-21.71,15.3V74.36h7.9Z" transform="translate(-7.49 -8.69)"/><path class="cls-3" d="M100.69,28.45a12.06,12.06,0,1,0-12.06,12,12.05,12.05,0,0,0,12.06-12" transform="translate(-7.49 -8.69)"/><path class="cls-3" d="M110.34,57.91c0-10.54-10.21-15.3-21.71-15.3a38.06,38.06,0,0,0-6.17.48,18.77,18.77,0,0,1,5.45,13.53V74.36h11V61.17h3l.48,13.19h7.9Z" transform="translate(-7.49 -8.69)"/><path class="cls-3" d="M72.27,41.1A31.76,31.76,0,0,0,68.53,40c-.37-.09-.74-.18-1.12-.26,0,0-1.75-.6-8.49-.6s-8.48.61-8.48.61c-.65.13-1.28.29-1.9.45-1.46.47-2.22.65-3.74,1.26-6.55,2.72-11,7.68-11,15.19V74.36H84.09V56.63c0-7.86-4.84-12.9-11.81-15.52" transform="translate(-7.49 -8.69)"/><path class="cls-3" d="M58.91,36.62a14,14,0,1,0-14-14,14,14,0,0,0,14,14" transform="translate(-7.49 -8.69)"/></g></svg>