<?xml version="1.0" encoding="UTF-8" standalone="no"?>
<svg
   xmlns:dc="http://purl.org/dc/elements/1.1/"
   xmlns:cc="http://creativecommons.org/ns#"
   xmlns:rdf="http://www.w3.org/1999/02/22-rdf-syntax-ns#"
   xmlns:svg="http://www.w3.org/2000/svg"
   xmlns="http://www.w3.org/2000/svg"
   xmlns:sodipodi="http://sodipodi.sourceforge.net/DTD/sodipodi-0.dtd"
   xmlns:inkscape="http://www.inkscape.org/namespaces/inkscape"
   id="Layer_1"
   data-name="Layer 1"
   width="1000"
   height="1000"
   viewBox="0 0 1000 1000"
   version="1.1"
   sodipodi:docname="good_health_red.svg"
   inkscape:version="0.92.4 (5da689c313, 2019-01-14)">
  <metadata
     id="metadata13">
    <rdf:RDF>
      <cc:Work
         rdf:about="">
        <dc:format>image/svg+xml</dc:format>
        <dc:type
           rdf:resource="http://purl.org/dc/dcmitype/StillImage" />
        <dc:title></dc:title>
      </cc:Work>
    </rdf:RDF>
  </metadata>
  <sodipodi:namedview
     pagecolor="#ffffff"
     bordercolor="#666666"
     borderopacity="1"
     objecttolerance="10"
     gridtolerance="10"
     guidetolerance="10"
     inkscape:pageopacity="0"
     inkscape:pageshadow="2"
     inkscape:window-width="955"
     inkscape:window-height="902"
     id="namedview11"
     showgrid="false"
     inkscape:zoom="0.236"
     inkscape:cx="500"
     inkscape:cy="500"
     inkscape:window-x="0"
     inkscape:window-y="346"
     inkscape:window-maximized="0"
     inkscape:current-layer="Layer_1" />
  <defs
     id="defs4">
    <style
       id="style2">.cls-1{fill:#2c2a6c;}.cls-2{fill:#fff;}</style>
  </defs>
  <circle
     class="cls-1"
     cx="500"
     cy="500"
     r="450"
     id="circle6"
     style="fill:#c00000;fill-opacity:0.99607843" />
  <path
     class="cls-2"
     d="M746.7061,424.4576c-.7592-8.0439-2.5126-15.5774-4.2451-23.1263a151.96,151.96,0,0,0-18.9632-42.63c-16.8038-26.6136-44.2211-46.354-74.4318-54.8512-15.0851-4.5677-30.8516-5.7482-46.2942-5.3491a124.7592,124.7592,0,0,0-45.998,10.8651c-23.428,10.37-42.6874,27.897-56.9161,48.5023-12.7978-18.5349-29.5905-34.6157-50.0387-45.1471a125.6814,125.6814,0,0,0-63.2468-14.2356l-9.9641.4825-11.0042,1.542a132.7757,132.7757,0,0,0-75.437,40.1317c-19.6418,21.4132-31.8779,48.7206-36.2606,76.8122,0,0-.7564,5.0419-1.4878,13.8463-.0723,4.469-.4839,9.64-.3171,16.0126a155.661,155.661,0,0,0,1.9968,20.5776A149.6954,149.6954,0,0,0,271.41,516.3647a147.9061,147.9061,0,0,0,16.6842,23.5782c6.5894,7.6114,13.5348,13.8129,20.0561,20.3717,53.16,52.1426,105.2417,103.1157,100.9257,98.4382,50.0527,48.2965,90.6112,86.0171,91.1326,83.0471,5.0558.3907,18.2416-8.5639,28.4254-16.4548a36.5,36.5,0,0,0,5.3588-4.6192L656.6789,597.8378,687.35,567.1154c10.0114-10.3618,20.8056-19.7474,30.6515-32.7719A149.0678,149.0678,0,0,0,747.938,447.278C747.7392,438.5305,747.8866,432.94,746.7061,424.4576ZM700.74,521.344C693.2,531.55,682.1731,541.46,672.0547,551.8453l-30.6738,30.72L518.6847,705.4419c-1.7089,1.8368-4.7721,5.7788-5.3909,6.6395-10.1267,14.1049-14.4288,22.1821-15.0824,26.2979-6.6075-8.874-30.098-34.8576-77.9468-85.326-20.05-21.1838-42.0491-44.4269-63.8072-67.4155-10.9916-11.513-21.9179-22.9594-32.498-34.0428q-7.9236-8.301-15.5524-16.2935A123.9213,123.9213,0,0,1,295.7705,519.62a128.89,128.89,0,0,1-22.0125-59.9611c-.6716-7.592-.8885-14.49-.45-18.7964.253-4.4328.3921-6.8424.3921-6.8424,1.6922-25.8808,10.4048-51.1484,26.0087-71.2518a109.8714,109.8714,0,0,1,62.96-39.74c11.5993-2.4556,25.7668-3.9406,38.0613-2.67a106.2835,106.2835,0,0,1,36.2481,9.9821c22.7773,11.01,41.2316,30.3664,53.3842,53.1465a10.76,10.76,0,0,0,18.9883-.0042c12.6574-23.6922,32.142-43.7886,56.2388-54.4215a103.144,103.144,0,0,1,37.9876-8.9936c13.4027-.3225,26.9042.6577,39.5838,4.5441,25.4108,7.2263,48.07,23.4363,62.268,45.9132a130.3728,130.3728,0,0,1,16.16,36.3566,157.1851,157.1851,0,0,1,3.6068,19.5333c1.0332,5.8316,1.01,14.7973,1.1444,20.4844A127.4156,127.4156,0,0,1,700.74,521.344ZM590.3216,500.1505a4.0066,4.0066,0,0,0-3.6486,1.9564l-.2086.3532c-7.9076,13.361-16.3672,27.6536-24.2122,40.9089-6.474-19.4234-10.9638-32.8929-10.9638-32.8929L526.36,442.62a8.594,8.594,0,0,0-16.1587.0709L476.769,536.1191l-38.0682-93.7829a8.6341,8.6341,0,0,0-15.9792-.0528l-22.185,53.5956-40.5571-.007a23.9359,23.9359,0,0,0-3.5415.7008c-23.7395,7.45-9.3718,13.7337.6048,16.1809a8.14,8.14,0,0,0,2.9367.4241H406.314a8.663,8.663,0,0,0,7.9966-5.3464l16.3158-39.435,38.6327,95.1288a8.6527,8.6527,0,0,0,16.1642-.342l32.9805-92.2172,14.6653,39.8994s9.9571,25.2287,20.4969,51.9326l.1432.3629a7.24,7.24,0,0,0,13.2025.5715c10.8317-21.63,22.0722-44.0792,26.9764-53.8723,49.979-2.069,81.4536-5.8566.3157-9.5066C592.9454,500.2881,591.6787,500.2214,590.3216,500.1505Z"
     id="path8" />
</svg>
