<svg id="Layer_1" data-name="Layer 1" xmlns="http://www.w3.org/2000/svg" viewBox="0 0 70.05 83.93"><defs><style>.cls-1{fill:#d2d2d2;}</style></defs><title>innovation</title><path class="cls-1" d="M52.51,58.48a21.56,21.56,0,1,0-28.76.23c3.42,3.42,3.11,10.71,3,10.79a1.28,1.28,0,0,0,.39,1,1.43,1.43,0,0,0,.93.39H47.92a1.29,1.29,0,0,0,.93-.39,1.48,1.48,0,0,0,.39-1c0-.08-.39-7.38,3-10.79Zm-2-1.79c-.08.08-.23.23-.23.31-3,3.26-3.58,8.62-3.65,11.18H29.42c-.08-2.56-.62-8.15-3.89-11.49a18.93,18.93,0,1,1,25,0Z" transform="translate(-2.96 -2.81)"/><path class="cls-1" d="M38,26.41a1.32,1.32,0,1,0,0,2.64A14.14,14.14,0,0,1,52.12,43.18a1.32,1.32,0,0,0,2.64,0A16.71,16.71,0,0,0,38,26.41Z" transform="translate(-2.96 -2.81)"/><path class="cls-1" d="M49.86,75.64a3.28,3.28,0,0,0-3.26-3.26H29.34a3.26,3.26,0,1,0,0,6.52H46.52A3.35,3.35,0,0,0,49.86,75.64Zm-3.26.54H29.34a.61.61,0,0,1-.62-.62.57.57,0,0,1,.62-.62H46.52a.61.61,0,0,1,.62.62A.55.55,0,0,1,46.6,76.18Z" transform="translate(-2.96 -2.81)"/><path class="cls-1" d="M44,80.22H31.91a3.26,3.26,0,1,0,0,6.52H44a3.28,3.28,0,0,0,3.26-3.26A3.23,3.23,0,0,0,44,80.22ZM44,84H31.91a.61.61,0,0,1-.62-.62.57.57,0,0,1,.62-.62H44A.62.62,0,1,1,44,84Z" transform="translate(-2.96 -2.81)"/><path class="cls-1" d="M39.29,13.14v-9a1.32,1.32,0,0,0-2.64,0v9A1.36,1.36,0,0,0,38,14.46,1.31,1.31,0,0,0,39.29,13.14Z" transform="translate(-2.96 -2.81)"/><path class="cls-1" d="M60,9.49a1.25,1.25,0,0,0-1.79.31l-5,7.45a1.28,1.28,0,0,0,.31,1.86,1.25,1.25,0,0,0,.7.23,1.24,1.24,0,0,0,1.09-.62l5-7.45A1.2,1.2,0,0,0,60,9.49Z" transform="translate(-2.96 -2.81)"/><path class="cls-1" d="M22.19,19a1.25,1.25,0,0,0,.7-.23,1.36,1.36,0,0,0,.39-1.86L18.46,9.41a1.35,1.35,0,0,0-2.25,1.48L21,18.42A1.29,1.29,0,0,0,22.19,19Z" transform="translate(-2.96 -2.81)"/><path class="cls-1" d="M3.69,25.33l7.85,4.27a1.83,1.83,0,0,0,.62.16,1.28,1.28,0,0,0,1.17-.7,1.37,1.37,0,0,0-.54-1.79L4.94,23a1.37,1.37,0,0,0-1.79.54A1.24,1.24,0,0,0,3.69,25.33Z" transform="translate(-2.96 -2.81)"/><path class="cls-1" d="M63.78,29.75a1.47,1.47,0,0,0,.62-.16l7.93-4.27A1.32,1.32,0,1,0,71.08,23l-7.93,4.27a1.37,1.37,0,0,0-.54,1.79A1.28,1.28,0,0,0,63.78,29.75Z" transform="translate(-2.96 -2.81)"/></svg>