<?xml version="1.0" encoding="utf-8"?>
<!-- Generator: Adobe Illustrator 23.0.1, SVG Export Plug-In . SVG Version: 6.00 Build 0)  -->
<svg version="1.1" xmlns="http://www.w3.org/2000/svg" xmlns:xlink="http://www.w3.org/1999/xlink" x="0px" y="0px"
	 viewBox="0 0 252 144" style="enable-background:new 0 0 252 144;" xml:space="preserve">
<style type="text/css">
	.st0{fill:#1B447F;}
	.st1{fill:#CB4D27;}
	.st2{opacity:0.33;fill:#F18422;}
	.st3{opacity:0.33;fill:#3669B2;}
</style>
<g id="Layer_1">
</g>
<g id="over_elements">
	<g id="RUCUtah_Logo_1_">
		<g id="RUCUtah_1_">
			<path class="st0" d="M93.34,80.99h-5.02v9.96h-4.5V65.06h9.1c2.99,0,5.29,0.67,6.92,2.01s2.44,3.28,2.44,5.82
				c0,1.73-0.42,3.18-1.25,4.35c-0.84,1.17-2,2.07-3.49,2.69l5.81,10.78v0.23h-4.82L93.34,80.99z M88.32,77.37h4.62
				c1.52,0,2.7-0.38,3.56-1.15c0.85-0.77,1.28-1.81,1.28-3.14c0-1.39-0.39-2.46-1.18-3.22c-0.79-0.76-1.96-1.15-3.53-1.17h-4.75
				V77.37z"/>
			<path class="st0" d="M124.76,65.06v8.65v8.65c0,1.38-0.22,2.61-0.66,3.7c-0.44,1.09-1.1,2.03-1.98,2.84
				c-0.88,0.8-1.91,1.41-3.08,1.81s-2.49,0.6-3.96,0.6c-1.48,0-2.81-0.2-3.99-0.59c-1.18-0.4-2.2-0.99-3.07-1.78
				c-0.87-0.79-1.53-1.73-1.96-2.83c-0.44-1.1-0.65-2.35-0.65-3.75V73.7v-8.64h2.24h2.24v8.66v8.66c0,0.87,0.11,1.63,0.33,2.29
				c0.22,0.66,0.55,1.22,0.99,1.67c0.44,0.46,0.98,0.8,1.62,1.03c0.65,0.23,1.4,0.34,2.25,0.34c1.73,0,3.03-0.46,3.89-1.37
				s1.3-2.28,1.3-4.11v-8.59v-8.59h2.24H124.76z"/>
			<path class="st0" d="M148.59,82.52c-0.26,2.76-1.28,4.92-3.06,6.46c-1.78,1.55-4.15,2.32-7.1,2.32c-2.06,0-3.88-0.49-5.45-1.47
				c-1.57-0.98-2.79-2.37-3.64-4.17c-0.85-1.8-1.3-3.9-1.33-6.28v-2.42c0-2.44,0.43-4.59,1.3-6.45c0.86-1.86,2.11-3.3,3.72-4.31
				c1.62-1,3.49-1.51,5.61-1.51c2.86,0,5.16,0.77,6.9,2.32c1.74,1.55,2.76,3.74,3.04,6.57h-4.48c-0.21-1.86-0.76-3.2-1.63-4.03
				c-0.87-0.83-2.15-1.24-3.83-1.24c-1.96,0-3.46,0.72-4.51,2.15c-1.05,1.43-1.58,3.52-1.61,6.29v2.3c0,2.8,0.5,4.94,1.5,6.41
				c1,1.47,2.47,2.2,4.4,2.2c1.77,0,3.09-0.4,3.98-1.19c0.89-0.79,1.45-2.11,1.69-3.96H148.59z"/>
			<path class="st1" d="M170.23,65.06v17.53c0,2.74-0.79,4.88-2.38,6.41c-1.59,1.54-3.74,2.3-6.45,2.3c-2.72,0-4.87-0.77-6.46-2.3
				c-1.59-1.53-2.39-3.65-2.4-6.34v-17.6h0.96v17.5c0,2.39,0.72,4.29,2.16,5.69c1.44,1.4,3.35,2.1,5.74,2.1
				c2.38,0,4.29-0.7,5.72-2.1s2.15-3.3,2.15-5.71V65.06H170.23z"/>
			<path class="st1" d="M193.57,66.02h-9.42v24.93h-0.96V66.02h-9.42v-0.96h19.8V66.02z"/>
			<path class="st1" d="M207.42,83.21h-12.68l-2.88,7.74h-1.05l9.69-25.89h1.17l9.69,25.89h-1.05L207.42,83.21z M195.1,82.26h11.97
				l-5.97-16.04L195.1,82.26z"/>
			<path class="st1" d="M233.26,90.95h-0.96V78.11h-16.54v12.84h-0.96V65.06h0.96v12.09h16.54V65.06h0.96V90.95z"/>
		</g>
		<g id="Utah_1_">
			<g id="Southern_Utah_1_">
				<path class="st1" d="M70.71,80.99H49.64c0,0-32.24,0-32.24,3.63c0.02,2.48-0.15,21.77-0.15,21.77
					C17.41,80.99,49.64,80.99,70.71,80.99z"/>
				<path class="st2" d="M70.64,89.48l0.07-8.48c-21.06,0-53.3,0-53.45,25.4l53.48,0.28l0.13-15.52L70.64,89.48z"/>
			</g>
			<g id="Northern_Utah_1_">
				<path class="st0" d="M17.66,37.24c0,0-0.24,32.88-0.24,36.5s53.3,3.63,53.3,3.63C17.46,77.36,17.66,53.35,17.66,37.24z"/>
				<path class="st3" d="M70.93,51.71L49.66,51.6l0.07-14.27L17.66,37.2l0,0.03c0,16.12-0.2,40.13,53.07,40.13h0L70.93,51.71z"/>
			</g>
		</g>
	</g>
</g>
</svg>
