<?xml version="1.0" encoding="UTF-8" standalone="no"?>
<svg
   xmlns:dc="http://purl.org/dc/elements/1.1/"
   xmlns:cc="http://creativecommons.org/ns#"
   xmlns:rdf="http://www.w3.org/1999/02/22-rdf-syntax-ns#"
   xmlns:svg="http://www.w3.org/2000/svg"
   xmlns="http://www.w3.org/2000/svg"
   xmlns:sodipodi="http://sodipodi.sourceforge.net/DTD/sodipodi-0.dtd"
   xmlns:inkscape="http://www.inkscape.org/namespaces/inkscape"
   id="Layer_1"
   data-name="Layer 1"
   viewBox="150 0 88 60"
   version="1.1"
   sodipodi:docname="publicroads.svg"
   inkscape:version="0.92.4 (5da689c313, 2019-01-14)">
  <metadata
     id="metadata92">
    <rdf:RDF>
      <cc:Work
         rdf:about="">
        <dc:format>image/svg+xml</dc:format>
        <dc:type
           rdf:resource="http://purl.org/dc/dcmitype/StillImage" />
      </cc:Work>
    </rdf:RDF>
  </metadata>
  <sodipodi:namedview
     pagecolor="#ffffff"
     bordercolor="#666666"
     borderopacity="1"
     objecttolerance="10"
     gridtolerance="10"
     guidetolerance="10"
     inkscape:pageopacity="0"
     inkscape:pageshadow="2"
     inkscape:window-width="1470"
     inkscape:window-height="1123"
     id="namedview90"
     showgrid="false"
     inkscape:zoom="0.65980766"
     inkscape:cx="194.02715"
     inkscape:cy="-96.449997"
     inkscape:window-x="0"
     inkscape:window-y="346"
     inkscape:window-maximized="0"
     inkscape:current-layer="Layer_1" />
  <defs
     id="defs7">
    <style
       id="style2">.cls-1{fill:none;}.cls-2{clip-path:url(#clip-path);}.cls-3{fill:#fff;}.cls-4{fill:#d1d1d1;}</style>
    <clipPath
       id="clip-path"
       transform="translate(141.63 -5.04)">
      <rect
         class="cls-1"
         width="106.35"
         height="82.39"
         id="rect4" />
    </clipPath>
  </defs>
  <title
     id="title9">public roads</title>
  <g
     class="cls-2"
     clip-path="url(#clip-path)"
     id="g87">
    <path
       class="cls-3"
       d="M-121.65,5.05h0"
       transform="translate(141.63 -5.04)"
       id="path11" />
    <path
       class="cls-3"
       d="M-89.66,17.48C-89.08,10.11-107,6-120.94,5.09l.79,0c1,.06,2.4.16,4.21.3s4,.35,6.52.64c2.26.27,4.78.61,7.49,1.1h4.07c-1-.2-2.05-.37-3-.53-3.09-.48-5.94-.77-8.47-1s-4.73-.33-6.55-.42-3.25-.13-4.22-.16l-1.49,0s49.56-.79,50,12.23S-97.56,35-95.78,46.07c1.69,10.51,53.64,21.2,58.65,22.21.21,0,.21.08,0,.08H-90.89l-1-.46c-1.61-.77-3.56-1.73-5.75-2.91s-4.61-2.59-7.14-4.27l-.3-.2h-6.15l.3.26c1.33,1.13,2.66,2.15,4,3.08,2.46,1.76,4.8,3.24,6.93,4.49h-26.57a1.07,1.07,0,0,1-.66-.29c-3.6-3.66-22.49-17.63-10.39-30.48,12.44-13.21,47.39-12.62,48-20.12M-91,9c-1-.35-2-.65-3-.91h-3.68a50.18,50.18,0,0,1,6.34,1.9c.58.22,1.15.46,1.72.72h2.61A26.83,26.83,0,0,0-91,9m7.43,4.22A11.59,11.59,0,0,0-85,12h-2.21l.55.36a11.57,11.57,0,0,1,2,1.74,8,8,0,0,1,.61.75h1.66a8.83,8.83,0,0,0-1.29-1.67m1,8.93a7,7,0,0,0,.87-1.43A5.12,5.12,0,0,0-81.28,19c0-.15,0-.3,0-.44v-.11a.59.59,0,0,0,0-.08V18l0-.21c0-.14,0-.29-.06-.42s0-.19-.06-.29H-83c0,.17.08.35.1.53s0,.21,0,.31l0,.16v.42s0,0,0,0v.08c0,.1,0,.2,0,.3A3.57,3.57,0,0,1-83.18,20a5.37,5.37,0,0,1-.72,1.09c-.14.18-.3.34-.45.51s-.33.33-.51.48l-.26.24-.14.12h2.39c.09-.11.18-.22.27-.33m-8.84,6.35c1.34-.72,2.67-1.46,4-2.28.77-.49,1.52-1,2.25-1.56h-3.24c-1.72,1-3.53,1.9-5.38,2.77l-2.28,1.06Zm-13.43,6.9.87-.48c1.79-1,3.64-1.91,5.49-2.84l2.8-1.4h-5.2c-1.42.66-2.84,1.33-4.25,2-1.65.83-3.29,1.71-4.88,2.68Zm-3.62,2.18h-4.75a23.14,23.14,0,0,0-2.45,2.15,15,15,0,0,0-2.05,2.6c-.14.25-.28.49-.41.74s-.26.51-.36.78l-.16.4c-.05.14-.1.3-.15.44l-.07.22,0,.11,0,.09-.09.36,0,.08h3.19v0c0-.09,0-.17.07-.26l.1-.29c.06-.19.16-.38.24-.57s.19-.37.29-.56a12.1,12.1,0,0,1,1.57-2.13,25.06,25.06,0,0,1,4.4-3.69l.69-.45m-10.63,11.39a11.9,11.9,0,0,0,1,3.13A20.4,20.4,0,0,0-115,56.79h5c-.78-.67-1.54-1.38-2.26-2.14a17.44,17.44,0,0,1-3-4,8.69,8.69,0,0,1-.77-2.12h-3.25Z"
       transform="translate(141.63 -5.04)"
       id="path13" />
    <polygon
       class="cls-4"
       points="189.52 0.13 149 63.19 151.93 63.19 190.37 0.13 189.52 0.13"
       id="polygon15" />
    <polygon
       class="cls-4"
       points="199.65 0.13 199.12 0.13 237.56 63.19 240.49 63.19 199.65 0.13"
       id="polygon17" />
    <path
       class="cls-4"
       d="M53.13,5.17l.26,4.65h-1l.35-4.65H49.15L13.25,68.23H48l.81-10.76h7.23l.6,10.76H93L82.12,49.17l-25.05-44Zm-.79,5.6h1.1l.22,3.9H52.05Zm-.41,5.38h1.8L54,21.37H51.55Zm-.51,6.69h2.69l.36,6.54H50.94Zm-.67,8.85h3.85l.47,8.48h-5ZM49.16,53l.72-9.49h5.41L55.81,53Z"
       transform="translate(141.63 -5.04)"
       id="path19" />
    <path
       class="cls-3"
       d="M238.84,8.65c2.39-1.23,4.91-2.4,7.61-3.48h-7.61c-.83.36-1.68.74-2.55,1.15l-1.84.83h-2.2L236,5.64l1.13-.46h-4.49S167.91,17,144.6,68.23h23c.17-.86.45-2,.85-3.33a48,48,0,0,1,2-5.51l.36-.8h4.63c-.37.84-.7,1.65-1,2.43a43.39,43.39,0,0,0-1.65,5.1c-.21.8-.36,1.51-.48,2.11h29S200,28.77,238.81,8.66h0Zm-24,7,.09,0h3.38l-2.61,1.53-1.84,1.17h-3.6l0,0,4.54-2.62m-37.42,39-.22.41h-4.61c.41-.77.85-1.56,1.33-2.36,1-1.78,2.23-3.64,3.56-5.51H182l-.21.3a67.22,67.22,0,0,0-4.38,7.16M186,41.9c-.51.62-1,1.23-1.51,1.85l-.19.26h-4.47c.65-.81,1.32-1.61,2-2.44.53-.62,1.09-1.23,1.65-1.86l1.09-1.2H189L187.58,40c-.56.6-1.07,1.23-1.58,1.86m5.49-6h-4.35c.56-.55,1.14-1.09,1.71-1.64,1.08-1.06,2.24-2.06,3.39-3.07h4.22c-.61.54-1.23,1.07-1.8,1.63-1.08,1-2.16,2-3.17,3.07m7.29-6.72h-4.14l.2-.16,2.09-1.68c1.21-.92,2.43-1.82,3.65-2.72h4L202.68,26c-1.31,1-2.62,2.09-3.9,3.16m8.16-6.31-.32.23h-3.87c1-.68,2-1.36,3-2l2.06-1.29h3.65l-.16.1c-1.45,1-2.89,2-4.34,3m15.25-9.51-1.33.73h-3.13l1.59-.84c.74-.4,1.48-.77,2.23-1.12l.84-.41h2.87l-.91.49-2.14,1.15M228.5,10l-.32.16h-2.7l.41-.2L228,9l.81-.36h2.4L228.5,10"
       transform="translate(141.63 -5.04)"
       id="path21" />
    <path
       class="cls-3"
       d="M-132.13,150.9c-2.38-1.23-4.91-2.4-7.61-3.48h7.61c.83.36,1.68.74,2.55,1.15l1.84.83h2.2l-3.74-1.52-1.13-.46h4.49s64.73,11.82,88,63.06h-23c-.17-.86-.45-2-.85-3.33a48,48,0,0,0-2-5.51l-.36-.8h-4.64c.37.84.7,1.65,1,2.43a43.61,43.61,0,0,1,1.65,5.1c.21.8.36,1.51.48,2.11h-29s1.27-39.46-37.53-59.57h0Zm24,7-.09,0h-3.38l2.61,1.53,1.84,1.17h3.6l0,0-4.54-2.62m37.42,39,.22.41h4.61c-.41-.77-.85-1.56-1.33-2.36-1-1.78-2.23-3.64-3.56-5.51h-4.52l.21.3a67.41,67.41,0,0,1,4.38,7.16m-8.62-12.72c.51.62,1,1.23,1.51,1.85l.19.26h4.47c-.65-.81-1.32-1.61-2-2.44-.53-.62-1.09-1.23-1.65-1.86q-.54-.6-1.09-1.2h-4.39l1.37,1.53c.56.6,1.07,1.23,1.58,1.86m-5.49-6h4.35c-.56-.55-1.14-1.09-1.71-1.64-1.08-1.06-2.24-2.06-3.39-3.07h-4.22c.61.54,1.23,1.07,1.81,1.63,1.08,1,2.15,2,3.17,3.07m-7.29-6.72h4.14l-.2-.16-2.09-1.68c-1.21-.92-2.43-1.82-3.65-2.72h-4l1.89,1.41c1.31,1,2.62,2.09,3.9,3.16m-8.16-6.31.32.23H-96c-1-.68-2-1.36-3-2l-2.06-1.29h-3.65l.16.1c1.45,1,2.89,2,4.34,3m-15.25-9.51,1.33.73H-111l-1.59-.84c-.74-.4-1.48-.77-2.23-1.12l-.84-.41h-2.87l.91.49,2.14,1.15m-6.31-3.31.32.16h2.7l-.41-.2-2.13-1-.81-.36h-2.4l2.74,1.35"
       transform="translate(141.63 -5.04)"
       id="path23" />
    <path
       class="cls-3"
       d="M121.14,186.23l-6.79-7.83H75.12l-1.41-2.59h38.4l-5.66-6.54H70.14l-12-21.88H54.05l.09,1.34h-.66l.09-1.34H49L37.2,169.28H.74l-5.66,6.54h38.6l-1.39,2.59H-7.17L-14,186.23h42L15,210.52H49.4L50,201h7.57l.63,9.49H92.67L79.4,186.23ZM53.43,149.49h.76l.1,1.51h-1ZM53.26,152h1.09l.14,2H53.13ZM53,155.33h1.53l.15,2.27H52.89Zm-.25,3.77h2l.18,2.75H52.61Zm-.3,4.47h2.62l.19,2.91h-3Zm-.31,4.63h3.23l.27,4H51.93ZM51.81,174h4l.35,5.35h-4.7Zm-.5,7.62h5l.35,5.35H51Zm-1,15,.44-6.61h6.1l.44,6.61Z"
       transform="translate(141.63 -5.04)"
       id="path25" />
    <polygon
       class="cls-3"
       points="340.02 146.95 289.09 184.88 290.96 185.49 340.94 147.15 340.02 146.95"
       id="polygon27" />
    <polygon
       class="cls-3"
       points="384.39 156.56 336.17 200.19 338.28 200.88 386.19 156.95 384.39 156.56"
       id="polygon29" />
    <path
       class="cls-3"
       d="M221.58,157l-5.41,5-6-1.47,5.27-4.83-14.89-3.23-48.65,38.91L170,197.27l7.12-6.53,5.71,1.79-7.17,6.58,16.78,5.46,48.1-43.43Zm-9.64,8.84-5.38,4.94-6.05-1.47,5.73-5.25Zm-9.6,8.8-5.34,4.9L191,178.08l5.69-5.21Zm-15.24,14-6.05-1.47,6-5.49,5.71,1.79Z"
       transform="translate(141.63 -5.04)"
       id="path31" />
    <polygon
       class="cls-3"
       points="39.84 307.66 7.7 357.68 10.47 357.68 40.96 307.66 39.84 307.66"
       id="polygon33" />
    <polygon
       class="cls-3"
       points="53.23 307.66 52.52 307.66 83.02 357.68 85.62 357.68 53.23 307.66"
       id="polygon35" />
    <path
       class="cls-3"
       d="M-94.86,312.7l.34,6.16h-1.29l.46-6.16h-4.78l-28.48,50h67.42l-28.48-50Zm-1,7.41h1.45l.29,5.16h-2.13Zm-.54,7.11h2.39l.39,6.9H-97Zm-.67,8.85h3.55l.48,8.64h-4.68ZM-98.84,359l.85-11.22h5.09l.63,11.22Z"
       transform="translate(141.63 -5.04)"
       id="path37" />
    <path
       class="cls-3"
       d="M-115.1,329.28h-4.56V303.64a24,24,0,0,1,24-23.94h1.45a24,24,0,0,1,24,23.94v25.65h-4.56V303.64a19.41,19.41,0,0,0-19.4-19.38H-95.7a19.41,19.41,0,0,0-19.4,19.38Z"
       transform="translate(141.63 -5.04)"
       id="path39" />
    <path
       class="cls-3"
       d="M-78.27,328.9l-10.27-15.64v-9.63a5.71,5.71,0,0,0-5.71-5.7H-95.7a5.71,5.71,0,0,0-5.71,5.7v9.59l-10.27,15.67V303.64a16,16,0,0,1,16-16h1.45a16,16,0,0,1,16,16Z"
       transform="translate(141.63 -5.04)"
       id="path41" />
    <polygon
       class="cls-3"
       points="172.51 285.03 150.68 347.31 140.89 347.31 168.87 285.03 172.51 285.03"
       id="polygon43" />
    <polygon
       class="cls-3"
       points="205.64 285.03 227.47 347.31 237.26 347.31 209.28 285.03 205.64 285.03"
       id="polygon45" />
    <polygon
       class="cls-3"
       points="211.16 285.03 239.39 347.31 242.78 347.31 214.8 285.03 211.16 285.03"
       id="polygon47" />
    <polygon
       class="cls-3"
       points="166.99 285.03 138.76 347.31 135.37 347.31 163.35 285.03 166.99 285.03"
       id="polygon49" />
    <polygon
       class="cls-3"
       points="186.28 308.9 185.78 316.17 192.37 316.17 191.86 308.9 186.28 308.9"
       id="polygon51" />
    <polygon
       class="cls-3"
       points="192.72 321.25 185.42 321.25 184.85 329.52 193.29 329.52 192.72 321.25"
       id="polygon53" />
    <polygon
       class="cls-3"
       points="187.49 291.61 190.66 291.61 190.46 288.72 187.69 288.72 187.49 291.61"
       id="polygon55" />
    <polygon
       class="cls-3"
       points="191.64 305.71 191.28 300.56 186.86 300.56 186.5 305.71 191.64 305.71"
       id="polygon57" />
    <polygon
       class="cls-3"
       points="191.1 298 190.78 293.29 187.37 293.29 187.04 298 191.1 298"
       id="polygon59" />
    <polygon
       class="cls-3"
       points="190.38 287.54 190.2 285.03 189.07 285.03 187.94 285.03 187.77 287.54 190.38 287.54"
       id="polygon61" />
    <polygon
       class="cls-3"
       points="184.45 335.29 183.61 347.31 194.53 347.31 193.69 335.29 184.45 335.29"
       id="polygon63" />
    <path
       class="cls-3"
       d="M153.68,294.13h2.7l-.41-.2-2.13-1-.81-.36h-2.4l2.74,1.35.32.16"
       transform="translate(141.63 -5.04)"
       id="path65" />
    <path
       class="cls-3"
       d="M160.33,296l-.84-.41h-2.87l.91.49,2.14,1.15L161,298h3.13l-1.59-.84c-.74-.4-1.49-.77-2.23-1.12"
       transform="translate(141.63 -5.04)"
       id="path67" />
    <path
       class="cls-3"
       d="M167.07,299.57l-.09,0H163.6l2.61,1.53,1.84,1.17h3.6l0,0-4.54-2.62"
       transform="translate(141.63 -5.04)"
       id="path69" />
    <path
       class="cls-3"
       d="M174.93,306.79l.32.23h3.87c-1-.68-2-1.36-3-2l-2.06-1.29h-3.65l.16.1c1.45,1,2.89,2,4.34,3"
       transform="translate(141.63 -5.04)"
       id="path71" />
    <path
       class="cls-3"
       d="M187,312.94l-2.09-1.68c-1.21-.92-2.43-1.82-3.65-2.72h-4l1.89,1.41c1.31,1,2.62,2.09,3.9,3.15h4.14l-.2-.16"
       transform="translate(141.63 -5.04)"
       id="path73" />
    <path
       class="cls-3"
       d="M193,318.18c-1.08-1.06-2.24-2.06-3.39-3.07H185.4c.61.53,1.23,1.07,1.81,1.63,1.08,1,2.15,2,3.17,3.07h4.35c-.56-.55-1.14-1.09-1.71-1.64"
       transform="translate(141.63 -5.04)"
       id="path75" />
    <path
       class="cls-3"
       d="M200,325.53c-.53-.62-1.09-1.23-1.65-1.86-.36-.4-.72-.8-1.09-1.2h-4.39l1.37,1.53c.56.6,1.07,1.23,1.58,1.86s1,1.23,1.51,1.85l.19.26H202c-.65-.81-1.32-1.61-2-2.44"
       transform="translate(141.63 -5.04)"
       id="path77" />
    <path
       class="cls-3"
       d="M208,336.64c-1-1.79-2.23-3.64-3.56-5.51H199.9l.2.3a67,67,0,0,1,4.38,7.16l.22.41h4.61c-.41-.78-.85-1.56-1.33-2.36"
       transform="translate(141.63 -5.04)"
       id="path79" />
    <path
       class="cls-3"
       d="M211.41,343.35l-.35-.8h-4.64c.37.84.7,1.65,1,2.43a43.83,43.83,0,0,1,1.65,5.1c.11.44.21.84.29,1.22h4.74c-.17-.7-.38-1.51-.66-2.44a48,48,0,0,0-2-5.51"
       transform="translate(141.63 -5.04)"
       id="path81" />
    <path
       class="cls-3"
       d="M184.94,300.22a163.33,163.33,0,0,0-24.13-9.11h-4.18c4.26.93,11.93,3.49,27.45,11.1,16.81,8.24,38.83,24.05,50.86,49.09h3.82c-12.27-26.82-36.18-42.44-53.81-51.08"
       transform="translate(141.63 -5.04)"
       id="path83" />
    <path
       class="cls-3"
       d="M144.75,291.58l-.86-.47H141s13.15,6.79,25.32,22c5.38,6.72,6.79,11,9.06,17.19a59.9,59.9,0,0,1,3.52,21h3.46a70.22,70.22,0,0,0-37.56-59.72"
       transform="translate(141.63 -5.04)"
       id="path85" />
  </g>
</svg>
