<?xml version="1.0" encoding="utf-8"?>
<!-- Generator: Adobe Illustrator 23.0.3, SVG Export Plug-In . SVG Version: 6.00 Build 0)  -->
<svg version="1.1" id="Layer_1" xmlns="http://www.w3.org/2000/svg" xmlns:xlink="http://www.w3.org/1999/xlink" x="0px" y="0px"
	 viewBox="0 0 960 540" style="enable-background:new 0 0 960 540;" xml:space="preserve">
<style type="text/css">
	.st0{clip-path:url(#SVGID_2_);}
	.st1{clip-path:url(#SVGID_4_);}
	.st2{clip-path:url(#SVGID_6_);}
	.st3{opacity:0.33;fill:none;stroke:#172B46;stroke-width:0.75;stroke-linejoin:round;enable-background:new    ;}
	.st4{clip-path:url(#SVGID_8_);}
	.st5{fill:#F37900;}
	.st6{clip-path:url(#SVGID_10_);}
	.st7{fill:#CC471E;}
	.st8{clip-path:url(#SVGID_12_);}
	.st9{fill:none;stroke:#172B46;stroke-width:0.75;stroke-linejoin:round;}
	.st10{clip-path:url(#SVGID_14_);}
	.st11{clip-path:url(#SVGID_16_);}
	.st12{fill:#172B46;}
	.st13{clip-path:url(#SVGID_18_);}
	.st14{clip-path:url(#SVGID_20_);}
	.st15{clip-path:url(#SVGID_22_);}
	.st16{clip-path:url(#SVGID_24_);}
	.st17{clip-path:url(#SVGID_26_);}
	.st18{clip-path:url(#SVGID_28_);}
	.st19{clip-path:url(#SVGID_30_);}
	.st20{clip-path:url(#SVGID_32_);}
	.st21{clip-path:url(#SVGID_34_);}
	.st22{clip-path:url(#SVGID_36_);}
	.st23{clip-path:url(#SVGID_38_);}
	.st24{clip-path:url(#SVGID_40_);}
	.st25{clip-path:url(#SVGID_42_);}
	.st26{clip-path:url(#SVGID_44_);}
	.st27{clip-path:url(#SVGID_46_);}
	.st28{clip-path:url(#SVGID_48_);}
	.st29{clip-path:url(#SVGID_50_);}
	.st30{clip-path:url(#SVGID_52_);}
	.st31{clip-path:url(#SVGID_54_);}
	.st32{clip-path:url(#SVGID_56_);}
	.st33{clip-path:url(#SVGID_58_);}
	.st34{clip-path:url(#SVGID_60_);}
	.st35{clip-path:url(#SVGID_62_);}
	.st36{clip-path:url(#SVGID_64_);}
	.st37{clip-path:url(#SVGID_66_);}
	.st38{clip-path:url(#SVGID_68_);}
	.st39{clip-path:url(#SVGID_70_);}
	.st40{clip-path:url(#SVGID_72_);}
	.st41{clip-path:url(#SVGID_74_);}
	.st42{clip-path:url(#SVGID_76_);}
	.st43{fill:#F47900;}
	.st44{fill:#CE5736;}
	.st45{fill-rule:evenodd;clip-rule:evenodd;fill:#172B46;}
</style>
<title>rucutah-purchasingpower_decline-slide</title>
<g>
	<g>
		<defs>
			<rect id="SVGID_1_" width="960" height="540"/>
		</defs>
		<clipPath id="SVGID_2_">
			<use xlink:href="#SVGID_1_"  style="overflow:visible;"/>
		</clipPath>
		<g class="st0">
			<g>
				<g>
					<defs>
						<rect id="SVGID_3_" x="15.6" y="481.7" width="97.7" height="55.9"/>
					</defs>
					<clipPath id="SVGID_4_">
						<use xlink:href="#SVGID_3_"  style="overflow:visible;"/>
					</clipPath>
					<g class="st1">
						
							<image style="overflow:visible;enable-background:new    ;" width="407" height="233" xlink:href="53FADCA0.png"  transform="matrix(0.24 0 0 0.24 15.6 481.68)">
						</image>
					</g>
				</g>
			</g>
		</g>
	</g>
</g>
<g>
	<g>
		<defs>
			<rect id="SVGID_5_" x="26.9" y="114" width="660" height="374.9"/>
		</defs>
		<clipPath id="SVGID_6_">
			<use xlink:href="#SVGID_5_"  style="overflow:visible;"/>
		</clipPath>
		<g class="st2">
			<path class="st3" d="M63.7,177h601.2 M63.7,217h601.2 M63.7,256h601.2 M63.7,295h601.2 M63.7,335h601.2 M63.7,374h601.2
				 M63.7,413h601.2 M63.7,452.5h601.2"/>
		</g>
	</g>
</g>
<g>
	<g>
		<defs>
			<rect id="SVGID_7_" x="62.9" y="136.8" width="601.9" height="316.1"/>
		</defs>
		<clipPath id="SVGID_8_">
			<use xlink:href="#SVGID_7_"  style="overflow:visible;"/>
		</clipPath>
		<g class="st4">
			<polygon class="st5" points="63.7,137.9 101,155 139,214 176,260 214,280 252,280 289,269 327,258 364,261 402,282 439,284 
				477,290 515,303 552,290 590,288 627,296 664.9,317.8 664.9,137.9 627,137.9 590,137.9 552,137.9 515,137.9 477,137.9 439,137.9 
				402,137.9 364,137.9 327,137.9 289,137.9 252,137.9 214,137.9 176,137.9 139,137.9 101,137.9 			"/>
		</g>
	</g>
</g>
<g>
	<g>
		<defs>
			<rect id="SVGID_9_" x="62.9" y="136.8" width="601.9" height="316.1"/>
		</defs>
		<clipPath id="SVGID_10_">
			<use xlink:href="#SVGID_9_"  style="overflow:visible;"/>
		</clipPath>
		<g class="st6">
			<polygon class="st7" points="63.7,137.9 101,150 139,216 176,265 214,296 252,304 289,314 327,306 364,304 402,342 439,352 
				477,357 515,376 552,365 590,365 627,379 664.9,403.8 664.9,318 627,296 590,288 552,290 515,303 477,290 439,284 402,282 
				364,261 327,258 289,269 252,280 214,280 176,260 139,214 101,155 			"/>
		</g>
	</g>
</g>
<g>
	<g>
		<defs>
			<rect id="SVGID_11_" x="26.9" y="114" width="660" height="374.9"/>
		</defs>
		<clipPath id="SVGID_12_">
			<use xlink:href="#SVGID_11_"  style="overflow:visible;"/>
		</clipPath>
		<g class="st8">
			<line class="st9" x1="63.7" y1="137.9" x2="664.9" y2="137.9"/>
		</g>
	</g>
</g>
<g>
	<g>
		<defs>
			<rect id="SVGID_13_" x="26.9" y="114" width="660" height="374.9"/>
		</defs>
		<clipPath id="SVGID_14_">
			<use xlink:href="#SVGID_13_"  style="overflow:visible;"/>
		</clipPath>
		<g class="st10">
			<path class="st9" d="M664.9,138v3 M627,138v3 M590,138v3 M552,138v3 M515,138v3 M477,138v3 M439,138v3 M402,138v3 M364,138v3
				 M327,138v3 M289,138v3 M252,138v3 M214,138v3 M176,138v3 M139,138v3 M101,138v3 M63.7,138v3"/>
		</g>
	</g>
</g>
<g>
	<g>
		<defs>
			<rect id="SVGID_15_" x="26.9" y="114" width="660" height="374.9"/>
		</defs>
		<clipPath id="SVGID_16_">
			<use xlink:href="#SVGID_15_"  style="overflow:visible;"/>
		</clipPath>
		<g class="st11">
			<path class="st12" d="M35.9,453.1h-2.2v-0.6h2.2V453.1z"/>
			<path class="st12" d="M37.2,450.2c0-1,0.9-1.7,2.3-1.7s2.2,0.7,2.2,1.7c0,0.7-0.6,1.4-1.3,1.5c0.3,0.1,0.6,0.3,0.9,0.5
				c0.4,0.3,0.7,0.8,0.7,1.3c0,1.1-1,1.9-2.5,1.9s-2.6-0.8-2.6-1.9c0-0.8,0.5-1.3,1.6-1.7C37.7,451.6,37.2,451,37.2,450.2z
				 M37.7,453.6c0,0.7,0.7,1.2,1.8,1.2s1.8-0.5,1.8-1.1s-0.6-1.1-1.8-1.5C38.2,452.4,37.7,452.9,37.7,453.6z M41,450.1
				c0-0.6-0.6-1-1.5-1s-1.5,0.4-1.5,1s0.5,1,1.4,1.3C40.5,451.1,41,450.8,41,450.1L41,450.1z"/>
			<path class="st12" d="M46.5,449.8c0.4,0.7,0.5,1.5,0.5,2.3c0,0.8-0.2,1.5-0.5,2.2c-0.4,0.8-1.2,1.2-2,1.2c-1.5,0-2.5-1.4-2.5-3.5
				c0-0.8,0.2-1.5,0.5-2.2c0.5-1.1,1.9-1.6,3-1C45.9,448.9,46.2,449.3,46.5,449.8L46.5,449.8z M42.8,451.9c0,1.8,0.6,2.9,1.7,2.9
				c0.6,0,1.2-0.4,1.4-1c0.2-0.5,0.3-1.1,0.3-1.6c0-0.7-0.1-1.4-0.3-2c-0.2-0.6-0.7-1-1.3-1C43.4,449.1,42.8,450.1,42.8,451.9z"/>
			<path class="st12" d="M50.6,450.3c0,1-0.6,1.7-1.4,1.7s-1.4-0.7-1.4-1.7s0.5-1.7,1.4-1.7S50.6,449.2,50.6,450.3z M48.4,450.3
				c0,0.9,0.3,1.4,0.9,1.4s0.8-0.5,0.8-1.3s-0.3-1.4-0.9-1.4S48.4,449.4,48.4,450.3L48.4,450.3z M48.8,455.3l4-6.7h0.6l-4,6.7H48.8z
				 M54.4,453.6c0,1-0.6,1.7-1.4,1.7s-1.4-0.7-1.4-1.7s0.5-1.7,1.4-1.7S54.3,452.6,54.4,453.6L54.4,453.6z M52.1,453.6
				c0,0.9,0.3,1.4,0.9,1.4s0.8-0.5,0.8-1.3s-0.3-1.4-0.9-1.4S52.1,452.7,52.1,453.6L52.1,453.6z"/>
		</g>
	</g>
</g>
<g>
	<g>
		<defs>
			<rect id="SVGID_17_" x="26.9" y="114" width="660" height="374.9"/>
		</defs>
		<clipPath id="SVGID_18_">
			<use xlink:href="#SVGID_17_"  style="overflow:visible;"/>
		</clipPath>
		<g class="st13">
			<path class="st12" d="M35.9,413.7h-2.2v-0.6h2.2V413.7z"/>
			<path class="st12" d="M38.5,415.9v-0.2c0-1.1,0.3-2.2,0.8-3.3c0.4-0.9,0.9-1.7,1.6-2.5h-3.6l0.1-0.7h4.4v0.5
				c-0.5,0.6-1,1.3-1.4,2c-0.6,1.2-1,2.5-1,3.9v0.2L38.5,415.9z"/>
			<path class="st12" d="M46.5,410.4c0.3,0.7,0.5,1.5,0.5,2.2c0,0.8-0.2,1.5-0.5,2.2c-0.4,0.8-1.2,1.2-2,1.2c-1.5,0-2.5-1.4-2.5-3.5
				c0-0.8,0.2-1.5,0.5-2.2c0.5-1.1,1.9-1.6,3-1C45.9,409.6,46.2,409.9,46.5,410.4L46.5,410.4z M42.8,412.6c0,1.8,0.6,2.9,1.7,2.9
				c0.6,0,1.2-0.4,1.4-1c0.2-0.5,0.3-1.1,0.3-1.6c0-0.7-0.1-1.4-0.3-2c-0.2-0.6-0.7-1-1.3-1C43.4,409.8,42.8,410.8,42.8,412.6
				L42.8,412.6z"/>
			<path class="st12" d="M50.6,410.9c0,1-0.6,1.7-1.4,1.7s-1.4-0.7-1.4-1.7s0.5-1.7,1.4-1.7S50.6,409.9,50.6,410.9z M48.4,410.9
				c0,0.9,0.3,1.4,0.9,1.4s0.8-0.5,0.8-1.3s-0.3-1.4-0.9-1.4S48.4,410,48.4,410.9L48.4,410.9z M48.8,415.9l4-6.7h0.6l-4,6.7H48.8z
				 M54.4,414.3c0,1-0.6,1.7-1.4,1.7s-1.4-0.7-1.4-1.7s0.5-1.7,1.4-1.7S54.3,413.2,54.4,414.3L54.4,414.3z M52.1,414.3
				c0,0.9,0.3,1.4,0.9,1.4s0.8-0.5,0.8-1.3s-0.3-1.4-0.9-1.4S52.1,413.4,52.1,414.3L52.1,414.3z"/>
		</g>
	</g>
</g>
<g>
	<g>
		<defs>
			<rect id="SVGID_19_" x="26.9" y="114" width="660" height="374.9"/>
		</defs>
		<clipPath id="SVGID_20_">
			<use xlink:href="#SVGID_19_"  style="overflow:visible;"/>
		</clipPath>
		<g class="st14">
			<path class="st12" d="M35.9,374.4h-2.2v-0.6h2.2V374.4z"/>
			<path class="st12" d="M41.1,371.5c-0.2-0.6-0.8-1-1.4-1c-0.7,0-1.4,0.5-1.6,1.1c-0.2,0.6-0.3,1.3-0.3,1.9
				c0.1-0.3,0.3-0.6,0.6-0.8c0.9-0.8,2.3-0.7,3.1,0.2c0.4,0.4,0.6,0.9,0.5,1.5c0,1.3-1,2.3-2.3,2.3c0,0,0,0-0.1,0
				c-1.6,0-2.6-1.3-2.6-3.3c0-1,0.2-2,0.8-2.8c0.5-0.6,1.2-0.9,1.9-0.9c1-0.1,1.9,0.6,2.2,1.5L41.1,371.5z M38,374.5
				c0,0.9,0.7,1.6,1.6,1.6s1.6-0.7,1.6-1.6l0,0c0-0.9-0.6-1.6-1.5-1.6c0,0,0,0,0,0C38.8,372.9,38,373.6,38,374.5L38,374.5z"/>
			<path class="st12" d="M46.5,371c0.3,0.7,0.5,1.5,0.5,2.2c0,0.8-0.2,1.5-0.5,2.2c-0.4,0.8-1.2,1.2-2,1.2c-1.5,0-2.5-1.4-2.5-3.5
				c0-0.8,0.2-1.5,0.5-2.2c0.5-1.1,1.9-1.6,3-1C45.9,370.2,46.2,370.5,46.5,371L46.5,371z M42.8,373.2c0,1.8,0.6,2.9,1.7,2.9
				c0.6,0,1.2-0.4,1.4-1c0.2-0.5,0.3-1.1,0.3-1.6c0-0.7-0.1-1.4-0.3-2c-0.2-0.6-0.7-1-1.3-1C43.4,370.4,42.8,371.4,42.8,373.2
				L42.8,373.2z"/>
			<path class="st12" d="M50.6,371.6c0,1-0.6,1.7-1.4,1.7s-1.4-0.7-1.4-1.7s0.5-1.7,1.4-1.7S50.6,370.5,50.6,371.6z M48.4,371.6
				c0,0.9,0.3,1.4,0.9,1.4s0.8-0.5,0.8-1.3s-0.3-1.4-0.9-1.4S48.4,370.7,48.4,371.6L48.4,371.6z M48.8,376.6l4-6.7h0.6l-4,6.7H48.8z
				 M54.4,374.9c0,1-0.6,1.7-1.4,1.7s-1.4-0.7-1.4-1.7s0.5-1.7,1.4-1.7S54.3,373.9,54.4,374.9L54.4,374.9z M52.1,374.9
				c0,0.9,0.3,1.4,0.9,1.4s0.8-0.5,0.8-1.3s-0.3-1.4-0.9-1.4S52.1,374,52.1,374.9L52.1,374.9z"/>
		</g>
	</g>
</g>
<g>
	<g>
		<defs>
			<rect id="SVGID_21_" x="26.9" y="114" width="660" height="374.9"/>
		</defs>
		<clipPath id="SVGID_22_">
			<use xlink:href="#SVGID_21_"  style="overflow:visible;"/>
		</clipPath>
		<g class="st15">
			<path class="st12" d="M35.9,335h-2.2v-0.6h2.2V335z"/>
			<path class="st12" d="M41.3,331.3H38l-0.1,2.2c0.4-0.5,1-0.7,1.6-0.7c1.3,0,2.3,1,2.3,2.2c0,0,0,0,0,0.1c0,1.3-1.1,2.4-2.4,2.3
				c0,0-0.1,0-0.1,0c-0.7,0-1.3-0.2-1.8-0.7c-0.3-0.2-0.5-0.5-0.6-0.9l0.7-0.3c0.2,0.7,0.9,1.2,1.7,1.2c0.9,0.1,1.7-0.6,1.7-1.5
				c0-0.1,0-0.1,0-0.2c0-0.8-0.6-1.6-1.4-1.6c0,0-0.1,0-0.1,0c-0.6,0-1.3,0.3-1.6,0.9l-0.7-0.1l0.2-3.6h4L41.3,331.3z"/>
			<path class="st12" d="M46.5,331.7c0.4,0.7,0.5,1.5,0.5,2.2c0,0.8-0.2,1.5-0.5,2.2c-0.4,0.8-1.2,1.2-2,1.2c-1.5,0-2.5-1.4-2.5-3.5
				c0-0.8,0.2-1.5,0.5-2.2c0.5-1.1,1.9-1.6,3-1C45.9,330.8,46.2,331.2,46.5,331.7L46.5,331.7z M42.8,333.8c0,1.8,0.6,2.9,1.7,2.9
				c0.6,0,1.2-0.4,1.4-1c0.2-0.5,0.3-1.1,0.3-1.6c0-0.7-0.1-1.4-0.3-2c-0.2-0.6-0.7-1-1.3-1C43.4,331,42.8,332.1,42.8,333.8
				L42.8,333.8z"/>
			<path class="st12" d="M50.6,332.2c0,1-0.6,1.7-1.4,1.7s-1.4-0.7-1.4-1.7s0.5-1.7,1.4-1.7S50.6,331.2,50.6,332.2z M48.4,332.2
				c0,0.9,0.3,1.4,0.9,1.4s0.8-0.5,0.8-1.3s-0.3-1.4-0.9-1.4S48.4,331.3,48.4,332.2L48.4,332.2z M48.8,337.2l4-6.7h0.6l-4,6.7H48.8z
				 M54.4,335.6c0,1-0.6,1.7-1.4,1.7s-1.4-0.7-1.4-1.7s0.5-1.7,1.4-1.7S54.3,334.5,54.4,335.6L54.4,335.6z M52.1,335.6
				c0,0.9,0.3,1.4,0.9,1.4s0.8-0.5,0.8-1.3s-0.3-1.4-0.9-1.4S52.1,334.7,52.1,335.6L52.1,335.6z"/>
		</g>
	</g>
</g>
<g>
	<g>
		<defs>
			<rect id="SVGID_23_" x="26.9" y="114" width="660" height="374.9"/>
		</defs>
		<clipPath id="SVGID_24_">
			<use xlink:href="#SVGID_23_"  style="overflow:visible;"/>
		</clipPath>
		<g class="st16">
			<path class="st12" d="M35.9,295.6h-2.2V295h2.2V295.6z"/>
			<path class="st12" d="M40.1,297.8v-1.6h-3.3v-0.6l3-4.7h1v4.6H42v0.7h-1.1v1.6H40.1z M40.1,292.4c0-0.3,0-0.4,0-0.7
				c-0.2,0.3-0.2,0.4-0.4,0.6l-2.1,3.3h2.4V292.4z"/>
			<path class="st12" d="M46.5,292.3c0.3,0.7,0.5,1.5,0.5,2.2c0,0.8-0.2,1.5-0.5,2.2c-0.4,0.8-1.2,1.2-2,1.2c-1.5,0-2.5-1.4-2.5-3.5
				c0-0.8,0.2-1.5,0.5-2.2c0.5-1.1,1.9-1.6,3-1C45.9,291.5,46.2,291.9,46.5,292.3L46.5,292.3z M42.8,294.5c0,1.8,0.6,2.9,1.7,2.9
				c0.6,0,1.2-0.4,1.4-1c0.2-0.5,0.3-1.1,0.3-1.6c0-0.7-0.1-1.4-0.3-2c-0.2-0.6-0.7-1-1.3-1C43.4,291.7,42.8,292.7,42.8,294.5z"/>
			<path class="st12" d="M50.6,292.9c0,1-0.6,1.7-1.4,1.7s-1.4-0.7-1.4-1.7s0.5-1.7,1.4-1.7S50.6,291.8,50.6,292.9z M48.4,292.9
				c0,0.9,0.3,1.4,0.9,1.4s0.8-0.5,0.8-1.3s-0.3-1.4-0.9-1.4S48.4,292,48.4,292.9L48.4,292.9z M48.8,297.9l4-6.7h0.6l-4,6.7H48.8z
				 M54.4,296.2c0,1-0.6,1.7-1.4,1.7s-1.4-0.7-1.4-1.7s0.5-1.7,1.4-1.7S54.3,295.1,54.4,296.2L54.4,296.2z M52.1,296.2
				c0,0.9,0.3,1.4,0.9,1.4s0.8-0.5,0.8-1.3s-0.3-1.4-0.9-1.4S52.1,295.3,52.1,296.2L52.1,296.2z"/>
		</g>
	</g>
</g>
<g>
	<g>
		<defs>
			<rect id="SVGID_25_" x="26.9" y="114" width="660" height="374.9"/>
		</defs>
		<clipPath id="SVGID_26_">
			<use xlink:href="#SVGID_25_"  style="overflow:visible;"/>
		</clipPath>
		<g class="st17">
			<path class="st12" d="M35.9,256.5h-2.2v-0.6h2.2V256.5z"/>
			<path class="st12" d="M38.4,254.9h0.8c1,0,1.5-0.4,1.5-1.2c0-0.7-0.6-1.2-1.3-1.2c0,0-0.1,0-0.1,0c-0.4,0-0.9,0.2-1.2,0.5
				c-0.2,0.2-0.3,0.4-0.4,0.6l-0.8-0.2c0.1-0.4,0.4-0.7,0.8-1c0.5-0.3,1.1-0.5,1.6-0.5c1.1-0.1,2,0.6,2.2,1.7c0,0,0,0.1,0,0.1
				c0,0.8-0.5,1.4-1.3,1.5c0.9,0.1,1.5,0.8,1.5,1.7c0,1.2-1,2-2.5,2c-0.6,0-1.3-0.2-1.8-0.5c-0.4-0.3-0.6-0.6-0.8-1.1l0.8-0.3
				c0.1,0.3,0.2,0.6,0.5,0.8c0.4,0.3,0.8,0.4,1.3,0.4c0.5,0,0.9-0.1,1.3-0.4c0.2-0.2,0.4-0.5,0.4-0.9c0-0.8-0.7-1.3-1.8-1.3h-0.8
				L38.4,254.9z"/>
			<path class="st12" d="M46.5,253.2c0.3,0.7,0.5,1.5,0.5,2.2c0,0.8-0.2,1.5-0.5,2.2c-0.4,0.8-1.2,1.2-2,1.2c-1.5,0-2.5-1.4-2.5-3.5
				c0-0.8,0.2-1.5,0.5-2.2c0.5-1.1,1.9-1.6,3-1C45.9,252.4,46.2,252.7,46.5,253.2L46.5,253.2z M42.8,255.4c0,1.8,0.6,2.9,1.7,2.9
				c0.6,0,1.2-0.4,1.4-1c0.2-0.5,0.3-1.1,0.3-1.6c0-0.7-0.1-1.4-0.3-2c-0.2-0.6-0.7-1-1.3-1C43.4,252.6,42.8,253.6,42.8,255.4z"/>
			<path class="st12" d="M50.6,253.7c0,1-0.6,1.7-1.4,1.7s-1.4-0.7-1.4-1.7s0.5-1.7,1.4-1.7S50.6,252.7,50.6,253.7z M48.4,253.7
				c0,0.9,0.3,1.4,0.9,1.4s0.8-0.5,0.8-1.3s-0.3-1.4-0.9-1.4S48.4,252.8,48.4,253.7L48.4,253.7z M48.8,258.7l4-6.7h0.6l-4,6.7H48.8z
				 M54.4,257.1c0,1-0.6,1.7-1.4,1.7s-1.4-0.7-1.4-1.7s0.5-1.7,1.4-1.7S54.3,256,54.4,257.1L54.4,257.1z M52.1,257.1
				c0,0.9,0.3,1.4,0.9,1.4s0.8-0.5,0.8-1.3s-0.3-1.4-0.9-1.4S52.1,256.2,52.1,257.1L52.1,257.1z"/>
		</g>
	</g>
</g>
<g>
	<g>
		<defs>
			<rect id="SVGID_27_" x="26.9" y="114" width="660" height="374.9"/>
		</defs>
		<clipPath id="SVGID_28_">
			<use xlink:href="#SVGID_27_"  style="overflow:visible;"/>
		</clipPath>
		<g class="st18">
			<path class="st12" d="M35.9,217.2h-2.2v-0.6h2.2V217.2z"/>
			<path class="st12" d="M41.8,219.4H37v-0.7c1.5-1.1,1.5-1.1,2.2-1.7c1.3-1.1,1.7-1.6,1.7-2.4c0-0.8-0.7-1.4-1.5-1.4c0,0,0,0,0,0
				c-0.5,0-1,0.2-1.3,0.6c-0.2,0.3-0.3,0.6-0.3,0.9l-0.8-0.2c0.2-1.2,1.2-2,2.4-1.9c1.2-0.1,2.2,0.8,2.3,1.9c0,0,0,0,0,0.1
				c0,0.9-0.5,1.6-1.9,2.8c-0.6,0.5-1.1,0.9-1.8,1.3h3.7L41.8,219.4z"/>
			<path class="st12" d="M46.5,213.8c0.3,0.7,0.5,1.5,0.5,2.2c0,0.8-0.2,1.5-0.5,2.2c-0.4,0.8-1.2,1.2-2,1.2c-1.5,0-2.5-1.4-2.5-3.5
				c0-0.8,0.2-1.5,0.5-2.2c0.5-1.1,1.9-1.6,3-1C45.9,213,46.2,213.4,46.5,213.8L46.5,213.8z M42.8,216c0,1.8,0.6,2.9,1.7,2.9
				c0.6,0,1.2-0.4,1.4-1.1c0.2-0.5,0.3-1.1,0.3-1.6c0-0.7-0.1-1.4-0.3-2c-0.2-0.6-0.7-1-1.3-1C43.4,213.2,42.8,214.2,42.8,216z"/>
			<path class="st12" d="M50.6,214.4c0,1-0.6,1.7-1.4,1.7s-1.4-0.7-1.4-1.7s0.5-1.7,1.4-1.7S50.6,213.3,50.6,214.4z M48.4,214.4
				c0,0.9,0.3,1.4,0.9,1.4s0.8-0.5,0.8-1.3s-0.3-1.4-0.9-1.4S48.4,213.5,48.4,214.4L48.4,214.4z M48.8,219.4l4-6.7h0.6l-4,6.7H48.8z
				 M54.4,217.7c0,1-0.6,1.7-1.4,1.7s-1.4-0.7-1.4-1.7s0.5-1.7,1.4-1.7S54.3,216.7,54.4,217.7L54.4,217.7z M52.1,217.7
				c0,0.9,0.3,1.4,0.9,1.4s0.8-0.5,0.8-1.3s-0.3-1.4-0.9-1.4S52.1,216.8,52.1,217.7L52.1,217.7z"/>
		</g>
	</g>
</g>
<g>
	<g>
		<defs>
			<rect id="SVGID_29_" x="26.9" y="114" width="660" height="374.9"/>
		</defs>
		<clipPath id="SVGID_30_">
			<use xlink:href="#SVGID_29_"  style="overflow:visible;"/>
		</clipPath>
		<g class="st19">
			<path class="st12" d="M35.9,177.8h-2.2v-0.6h2.2V177.8z"/>
			<path class="st12" d="M42.1,180h-4.7v-0.6h2v-5.1c-0.5,0.6-1.1,1.1-1.8,1.4v-0.8c0.8-0.4,1.5-0.9,2-1.6h0.6v6.2h1.9L42.1,180z"/>
			<path class="st12" d="M46.5,174.5c0.4,0.7,0.5,1.5,0.5,2.2c0,0.8-0.2,1.5-0.5,2.2c-0.4,0.8-1.2,1.2-2,1.2c-1.5,0-2.5-1.4-2.5-3.5
				c0-0.8,0.2-1.5,0.5-2.2c0.5-1.1,1.9-1.6,3-1C45.9,173.6,46.2,174,46.5,174.5L46.5,174.5z M42.8,176.6c0,1.8,0.6,2.9,1.7,2.9
				c0.6,0,1.2-0.4,1.4-1c0.2-0.5,0.3-1.1,0.3-1.6c0-0.7-0.1-1.4-0.3-2c-0.2-0.6-0.7-1-1.3-1C43.4,173.9,42.8,174.9,42.8,176.6z"/>
			<path class="st12" d="M50.6,175c0,1-0.6,1.7-1.4,1.7s-1.4-0.7-1.4-1.7s0.5-1.7,1.4-1.7S50.6,174,50.6,175z M48.4,175
				c0,0.9,0.3,1.4,0.9,1.4s0.8-0.5,0.8-1.3s-0.3-1.4-0.9-1.4S48.4,174.1,48.4,175z M48.8,180l4-6.7h0.6l-4,6.7H48.8z M54.4,178.4
				c0,1-0.6,1.7-1.4,1.7s-1.4-0.7-1.4-1.7s0.5-1.7,1.4-1.7S54.3,177.3,54.4,178.4z M52.1,178.4c0,0.9,0.3,1.4,0.9,1.4
				s0.8-0.5,0.8-1.3S53.5,177,53,177S52.1,177.5,52.1,178.4L52.1,178.4z"/>
		</g>
	</g>
</g>
<g>
	<g>
		<defs>
			<rect id="SVGID_31_" x="26.9" y="114" width="660" height="374.9"/>
		</defs>
		<clipPath id="SVGID_32_">
			<use xlink:href="#SVGID_31_"  style="overflow:visible;"/>
		</clipPath>
		<g class="st20">
			<path class="st12" d="M46.6,137.3c0,2.4-0.7,3.4-2.2,3.4s-2.2-1.1-2.2-3.4c-0.1-1,0.2-2,0.7-2.9c0.4-0.4,1-0.6,1.5-0.6
				C45.9,133.9,46.6,135,46.6,137.3z M43.7,137.3c0,2,0.1,2.4,0.7,2.4s0.7-0.4,0.7-2.4c0-0.7,0-1.3-0.1-1.9
				c-0.1-0.2-0.3-0.4-0.5-0.4C43.8,134.9,43.7,135.4,43.7,137.3L43.7,137.3z"/>
			<path class="st12" d="M50,135.6c0,1.1-0.5,1.7-1.3,1.7s-1.3-0.6-1.3-1.7s0.5-1.7,1.3-1.7S50,134.6,50,135.6z M48.3,135.6
				c0,0.7,0.1,1,0.4,1s0.4-0.3,0.4-1s-0.1-1-0.4-1S48.3,134.9,48.3,135.6z M52.4,134l-3.1,6.7h-0.8l3.1-6.7H52.4z M53.5,139
				c0,1.1-0.5,1.7-1.3,1.7s-1.3-0.6-1.3-1.7s0.5-1.7,1.3-1.7S53.5,137.9,53.5,139z M51.8,139c0,0.7,0.1,1,0.4,1s0.4-0.3,0.4-1
				s-0.1-1-0.4-1S51.8,138.2,51.8,139z"/>
		</g>
	</g>
</g>
<g>
	<g>
		<defs>
			<rect id="SVGID_33_" x="26.9" y="114" width="660" height="374.9"/>
		</defs>
		<clipPath id="SVGID_34_">
			<use xlink:href="#SVGID_33_"  style="overflow:visible;"/>
		</clipPath>
		<g class="st21">
			<path class="st12" d="M57.2,128.2h-4.7v-0.7c1.5-1.1,1.5-1.1,2.2-1.7c1.3-1.1,1.7-1.6,1.7-2.4c0-0.8-0.7-1.4-1.5-1.4c0,0,0,0,0,0
				c-0.5,0-1,0.2-1.3,0.6c-0.2,0.3-0.3,0.6-0.3,0.9l-0.8-0.2c0.2-1.2,1.2-2,2.4-2c1.2-0.1,2.2,0.8,2.3,1.9c0,0,0,0,0,0.1
				c0,0.9-0.5,1.6-1.9,2.8c-0.6,0.5-1.1,0.9-1.8,1.3h3.7L57.2,128.2z"/>
			<path class="st12" d="M62.9,122.6c0.3,0.7,0.5,1.5,0.5,2.2c0,0.8-0.2,1.5-0.5,2.2c-0.4,0.8-1.2,1.2-2,1.2c-1.5,0-2.5-1.4-2.5-3.5
				c0-0.8,0.2-1.5,0.5-2.2c0.6-1.1,1.9-1.5,3-1C62.2,121.9,62.6,122.2,62.9,122.6L62.9,122.6z M59.2,124.8c0,1.8,0.6,2.8,1.7,2.8
				c0.6,0,1.2-0.4,1.4-1c0.2-0.5,0.3-1.1,0.3-1.6c0-0.7-0.1-1.4-0.3-2c-0.2-0.6-0.7-1-1.3-1C59.8,122,59.2,123,59.2,124.8z"/>
			<path class="st12" d="M68.9,122.6c0.3,0.7,0.5,1.5,0.5,2.2c0,0.8-0.2,1.5-0.5,2.2c-0.4,0.8-1.2,1.2-2,1.2c-1.5,0-2.5-1.4-2.5-3.5
				c0-0.8,0.2-1.5,0.5-2.2c0.5-1.1,1.9-1.6,3-1C68.3,121.8,68.6,122.2,68.9,122.6L68.9,122.6z M65.2,124.8c0,1.8,0.6,2.8,1.7,2.8
				c0.6,0,1.2-0.4,1.4-1c0.2-0.5,0.3-1.1,0.3-1.6c0-0.7-0.1-1.4-0.3-2c-0.2-0.6-0.7-1-1.3-1C65.8,122,65.2,123,65.2,124.8z"/>
			<path class="st12" d="M71.9,124.4h0.8c1,0,1.6-0.4,1.6-1.2c0-0.7-0.6-1.2-1.3-1.2c0,0-0.1,0-0.1,0c-0.4,0-0.9,0.2-1.2,0.5
				c-0.2,0.2-0.3,0.4-0.4,0.6l-0.8-0.2c0.1-0.4,0.4-0.7,0.8-1c0.5-0.3,1.1-0.5,1.6-0.5c1.1-0.1,2,0.6,2.1,1.7c0,0,0,0,0,0
				c0,0.8-0.5,1.4-1.3,1.5c0.9,0.1,1.5,0.8,1.5,1.7c0,1.2-1,2-2.5,2c-0.6,0-1.3-0.2-1.8-0.6c-0.4-0.3-0.6-0.6-0.8-1.1l0.8-0.3
				c0.1,0.3,0.2,0.6,0.5,0.8c0.4,0.3,0.8,0.4,1.3,0.4c0.5,0,0.9-0.1,1.3-0.4c0.2-0.2,0.4-0.5,0.4-0.9c0-0.8-0.7-1.3-1.8-1.3h-0.8
				L71.9,124.4z"/>
		</g>
	</g>
</g>
<g>
	<g>
		<defs>
			<rect id="SVGID_35_" x="26.9" y="114" width="660" height="374.9"/>
		</defs>
		<clipPath id="SVGID_36_">
			<use xlink:href="#SVGID_35_"  style="overflow:visible;"/>
		</clipPath>
		<g class="st22">
			<path class="st12" d="M100.3,122.6c0.3,0.7,0.5,1.5,0.5,2.2c0,0.8-0.2,1.5-0.5,2.2c-0.4,0.8-1.2,1.2-2,1.2
				c-1.5,0-2.5-1.4-2.5-3.5c0-0.8,0.2-1.5,0.5-2.2c0.6-1.1,1.9-1.5,3-1C99.7,121.9,100,122.2,100.3,122.6L100.3,122.6z M96.6,124.8
				c0,1.8,0.6,2.8,1.7,2.8c0.6,0,1.2-0.4,1.4-1c0.2-0.5,0.3-1.1,0.3-1.6c0-0.7-0.1-1.4-0.3-2c-0.2-0.6-0.7-1-1.3-1
				C97.2,122,96.6,123,96.6,124.8z"/>
			<path class="st12" d="M105,128.2v-1.6h-3.3V126l3-4.7h1v4.6h1.1v0.7h-1.1v1.6L105,128.2z M105,122.8c0-0.3,0-0.4,0-0.7
				c-0.2,0.3-0.2,0.4-0.4,0.6l-2.1,3.3h2.4V122.8z"/>
		</g>
	</g>
</g>
<g>
	<g>
		<defs>
			<rect id="SVGID_37_" x="26.9" y="114" width="660" height="374.9"/>
		</defs>
		<clipPath id="SVGID_38_">
			<use xlink:href="#SVGID_37_"  style="overflow:visible;"/>
		</clipPath>
		<g class="st23">
			<path class="st12" d="M137.9,122.6c0.3,0.7,0.5,1.5,0.5,2.2c0,0.8-0.2,1.5-0.5,2.2c-0.4,0.8-1.2,1.2-2,1.2
				c-1.5,0-2.5-1.4-2.5-3.5c0-0.8,0.2-1.5,0.5-2.2c0.6-1.1,1.9-1.5,3-1C137.3,121.9,137.6,122.2,137.9,122.6L137.9,122.6z
				 M134.2,124.8c0,1.8,0.6,2.8,1.7,2.8c0.6,0,1.2-0.4,1.4-1c0.2-0.5,0.3-1.1,0.3-1.6c0-0.7-0.1-1.4-0.3-2c-0.2-0.6-0.7-1-1.4-1
				C134.8,122,134.2,123,134.2,124.8z"/>
			<path class="st12" d="M143.8,122.2h-3.3l-0.1,2.2c0.4-0.5,1-0.7,1.6-0.7c1.3,0,2.3,1,2.3,2.2c0,0,0,0,0,0.1
				c0,1.3-1.1,2.4-2.4,2.3c0,0-0.1,0-0.1,0c-0.7,0-1.3-0.2-1.8-0.7c-0.3-0.2-0.5-0.5-0.6-0.9l0.7-0.3c0.2,0.7,0.9,1.2,1.6,1.2
				c0.9,0.1,1.7-0.6,1.7-1.5c0-0.1,0-0.1,0-0.2c0-0.8-0.6-1.6-1.4-1.6c0,0-0.1,0-0.1,0c-0.6,0-1.3,0.3-1.6,0.9l-0.7-0.1l0.2-3.6h4
				L143.8,122.2z"/>
		</g>
	</g>
</g>
<g>
	<g>
		<defs>
			<rect id="SVGID_39_" x="26.9" y="114" width="660" height="374.9"/>
		</defs>
		<clipPath id="SVGID_40_">
			<use xlink:href="#SVGID_39_"  style="overflow:visible;"/>
		</clipPath>
		<g class="st24">
			<path class="st12" d="M175.5,122.6c0.3,0.7,0.5,1.5,0.5,2.2c0,0.8-0.2,1.5-0.5,2.2c-0.4,0.8-1.2,1.2-2,1.2
				c-1.5,0-2.5-1.4-2.5-3.5c0-0.8,0.2-1.5,0.5-2.2c0.4-0.8,1.1-1.3,2-1.3C174.3,121.3,175.1,121.8,175.5,122.6z M171.8,124.8
				c0,1.8,0.6,2.8,1.7,2.8c0.6,0,1.2-0.4,1.4-1c0.2-0.5,0.3-1.1,0.3-1.6c0-0.7-0.1-1.4-0.3-2c-0.2-0.6-0.7-1-1.4-1
				C172.4,122,171.8,123,171.8,124.8z"/>
			<path class="st12" d="M181.1,123.1c-0.2-0.6-0.8-1-1.4-1c-0.7,0-1.4,0.5-1.6,1.2c-0.2,0.6-0.3,1.3-0.3,1.9
				c0.1-0.3,0.3-0.6,0.6-0.8c0.9-0.8,2.3-0.7,3.1,0.2c0.4,0.4,0.6,0.9,0.5,1.5c0,1.3-1,2.3-2.3,2.3c0,0,0,0-0.1,0
				c-1.6,0-2.6-1.3-2.6-3.3c0-1,0.2-2,0.8-2.8c0.5-0.6,1.2-0.9,1.9-0.8c1-0.1,1.9,0.6,2.1,1.5L181.1,123.1z M178,126.1
				c0,0.9,0.7,1.6,1.6,1.6s1.6-0.7,1.6-1.6l0,0c0-0.9-0.6-1.6-1.5-1.6c0,0,0,0,0,0C178.8,124.5,178,125.2,178,126.1L178,126.1z"/>
		</g>
	</g>
</g>
<g>
	<g>
		<defs>
			<rect id="SVGID_41_" x="26.9" y="114" width="660" height="374.9"/>
		</defs>
		<clipPath id="SVGID_42_">
			<use xlink:href="#SVGID_41_"  style="overflow:visible;"/>
		</clipPath>
		<g class="st25">
			<path class="st12" d="M213,122.6c0.3,0.7,0.5,1.5,0.5,2.2c0,0.8-0.2,1.5-0.5,2.2c-0.4,0.8-1.2,1.2-2,1.2c-1.5,0-2.5-1.4-2.5-3.5
				c0-0.8,0.2-1.5,0.5-2.2c0.6-1.1,1.9-1.5,3-1C212.4,121.9,212.7,122.2,213,122.6L213,122.6z M209.3,124.8c0,1.8,0.6,2.8,1.7,2.8
				c0.6,0,1.2-0.4,1.4-1c0.2-0.5,0.3-1.1,0.3-1.6c0-0.7-0.1-1.4-0.3-2c-0.2-0.6-0.7-1-1.4-1C210,122,209.4,123,209.3,124.8
				L209.3,124.8z"/>
			<path class="st12" d="M216,128.2V128c0-1.1,0.3-2.2,0.8-3.3c0.4-0.9,0.9-1.7,1.6-2.5h-3.6l0.1-0.7h4.4v0.5
				c-0.5,0.6-1,1.3-1.4,2.1c-0.6,1.2-1,2.5-1,3.9v0.2L216,128.2z"/>
		</g>
	</g>
</g>
<g>
	<g>
		<defs>
			<rect id="SVGID_43_" x="26.9" y="114" width="660" height="374.9"/>
		</defs>
		<clipPath id="SVGID_44_">
			<use xlink:href="#SVGID_43_"  style="overflow:visible;"/>
		</clipPath>
		<g class="st26">
			<path class="st12" d="M250.6,122.6c0.3,0.7,0.5,1.5,0.5,2.2c0,0.8-0.2,1.5-0.5,2.2c-0.4,0.8-1.2,1.2-2,1.2
				c-1.5,0-2.5-1.4-2.5-3.5c0-0.8,0.2-1.5,0.5-2.2c0.5-1.1,1.9-1.6,3-1C250,121.8,250.4,122.2,250.6,122.6L250.6,122.6z
				 M246.9,124.8c0,1.8,0.6,2.8,1.7,2.8c0.6,0,1.2-0.4,1.4-1c0.2-0.5,0.3-1.1,0.3-1.6c0-0.7-0.1-1.4-0.3-2c-0.2-0.6-0.7-1-1.4-1
				C247.5,122,246.9,123,246.9,124.8z"/>
			<path class="st12" d="M252.4,123.1c0-1,0.9-1.7,2.3-1.7s2.2,0.7,2.2,1.7c0,0.7-0.6,1.4-1.3,1.5c0.3,0.1,0.6,0.3,0.9,0.5
				c0.4,0.3,0.7,0.8,0.7,1.3c0,1.1-1,1.9-2.6,1.9s-2.6-0.8-2.6-1.9c0-0.8,0.5-1.3,1.6-1.7C252.9,124.5,252.4,123.8,252.4,123.1z
				 M252.9,126.5c0,0.7,0.7,1.2,1.8,1.2s1.8-0.5,1.8-1.2s-0.6-1.1-1.8-1.5C253.4,125.3,252.9,125.8,252.9,126.5z M256.1,123
				c0-0.6-0.6-1-1.5-1s-1.5,0.4-1.5,1s0.6,1,1.4,1.3C255.7,124,256.1,123.6,256.1,123L256.1,123z"/>
		</g>
	</g>
</g>
<g>
	<g>
		<defs>
			<rect id="SVGID_45_" x="26.9" y="114" width="660" height="374.9"/>
		</defs>
		<clipPath id="SVGID_46_">
			<use xlink:href="#SVGID_45_"  style="overflow:visible;"/>
		</clipPath>
		<g class="st27">
			<path class="st12" d="M288.2,122.6c0.3,0.7,0.5,1.5,0.5,2.2c0,0.8-0.2,1.5-0.5,2.2c-0.4,0.8-1.2,1.2-2,1.2
				c-1.5,0-2.5-1.4-2.5-3.5c0-0.8,0.2-1.5,0.5-2.2c0.5-1.1,1.9-1.6,3-1C287.6,121.8,287.9,122.2,288.2,122.6L288.2,122.6z
				 M284.5,124.8c0,1.8,0.6,2.8,1.7,2.8c0.6,0,1.2-0.4,1.4-1c0.2-0.5,0.3-1.1,0.3-1.6c0-0.7-0.1-1.4-0.3-2c-0.2-0.6-0.7-1-1.4-1
				C285.1,122,284.5,123,284.5,124.8z"/>
			<path class="st12" d="M290.5,126.7c0.2,0.6,0.8,1,1.4,0.9c1.2,0,1.9-1,1.9-3c-0.4,0.8-1.2,1.2-2,1.2c-1.2,0-2.2-0.9-2.2-2.1
				c0,0,0-0.1,0-0.1c0-1.2,1-2.3,2.2-2.3c0,0,0.1,0,0.1,0c0.7,0,1.3,0.2,1.8,0.7c0.6,0.7,0.9,1.7,0.8,2.6c0,0.9-0.2,1.8-0.7,2.6
				c-0.5,0.7-1.2,1.1-2.1,1.1c-0.5,0-1-0.1-1.4-0.4c-0.3-0.2-0.5-0.6-0.6-0.9L290.5,126.7z M290.5,123.6c0,0.8,0.6,1.5,1.5,1.5
				c0,0,0.1,0,0.1,0c0.9,0,1.6-0.7,1.6-1.6c0-0.9-0.7-1.6-1.6-1.6C291.2,122,290.5,122.7,290.5,123.6L290.5,123.6z"/>
		</g>
	</g>
</g>
<g>
	<g>
		<defs>
			<rect id="SVGID_47_" x="26.9" y="114" width="660" height="374.9"/>
		</defs>
		<clipPath id="SVGID_48_">
			<use xlink:href="#SVGID_47_"  style="overflow:visible;"/>
		</clipPath>
		<g class="st28">
			<path class="st12" d="M326.4,128.2h-4.7v-0.6h2v-5.2c-0.5,0.6-1.1,1.1-1.8,1.4V123c0.8-0.4,1.5-0.9,2-1.6h0.6v6.2h1.9
				L326.4,128.2z"/>
			<path class="st12" d="M331.8,122.6c0.3,0.7,0.5,1.5,0.5,2.2c0,0.8-0.2,1.5-0.5,2.2c-0.4,0.8-1.2,1.2-2,1.2
				c-1.5,0-2.5-1.4-2.5-3.5c0-0.8,0.2-1.5,0.5-2.2c0.6-1.1,1.9-1.5,3-1C331.1,121.9,331.5,122.2,331.8,122.6L331.8,122.6z
				 M328.1,124.8c0,1.8,0.6,2.8,1.7,2.8c0.6,0,1.2-0.4,1.4-1c0.2-0.5,0.3-1.1,0.3-1.6c0-0.7-0.1-1.4-0.3-2c-0.2-0.6-0.7-1-1.4-1
				C328.7,122,328.1,123,328.1,124.8z"/>
		</g>
	</g>
</g>
<g>
	<g>
		<defs>
			<rect id="SVGID_49_" x="26.9" y="114" width="660" height="374.9"/>
		</defs>
		<clipPath id="SVGID_50_">
			<use xlink:href="#SVGID_49_"  style="overflow:visible;"/>
		</clipPath>
		<g class="st29">
			<path class="st12" d="M364,128.2h-4.7v-0.6h2v-5.2c-0.5,0.6-1.1,1.1-1.8,1.4V123c0.8-0.4,1.5-0.9,2-1.6h0.6v6.2h1.9V128.2z"/>
			<path class="st12" d="M370,128.2h-4.7v-0.6h2v-5.2c-0.5,0.6-1.1,1.1-1.8,1.4V123c0.8-0.4,1.5-0.9,2-1.6h0.6v6.2h1.9V128.2z"/>
		</g>
	</g>
</g>
<g>
	<g>
		<defs>
			<rect id="SVGID_51_" x="26.9" y="114" width="660" height="374.9"/>
		</defs>
		<clipPath id="SVGID_52_">
			<use xlink:href="#SVGID_51_"  style="overflow:visible;"/>
		</clipPath>
		<g class="st30">
			<path class="st12" d="M401.6,128.2h-4.7v-0.6h2v-5.2c-0.5,0.6-1.1,1.1-1.8,1.4V123c0.8-0.4,1.5-0.9,2-1.6h0.6v6.2h1.9
				L401.6,128.2z"/>
			<path class="st12" d="M407.2,128.2h-4.7v-0.7c1.5-1.1,1.5-1.1,2.2-1.7c1.3-1.1,1.7-1.6,1.7-2.4c0-0.8-0.7-1.4-1.5-1.4
				c0,0,0,0,0,0c-0.5,0-1,0.2-1.3,0.6c-0.2,0.3-0.3,0.6-0.3,0.9l-0.8-0.2c0.2-1.2,1.2-2,2.4-2c1.2-0.1,2.2,0.8,2.3,1.9
				c0,0,0,0,0,0.1c0,0.9-0.5,1.6-1.9,2.8c-0.6,0.5-1.1,0.9-1.8,1.3h3.7V128.2z"/>
		</g>
	</g>
</g>
<g>
	<g>
		<defs>
			<rect id="SVGID_53_" x="26.9" y="114" width="660" height="374.9"/>
		</defs>
		<clipPath id="SVGID_54_">
			<use xlink:href="#SVGID_53_"  style="overflow:visible;"/>
		</clipPath>
		<g class="st31">
			<path class="st12" d="M439.1,128.2h-4.7v-0.6h2v-5.2c-0.5,0.6-1.1,1.1-1.8,1.4V123c0.8-0.4,1.5-0.9,2-1.6h0.6v6.2h1.9
				L439.1,128.2z"/>
			<path class="st12" d="M441.5,124.4h0.8c1,0,1.5-0.4,1.5-1.2c0-0.7-0.6-1.2-1.3-1.2c0,0-0.1,0-0.1,0c-0.4,0-0.9,0.2-1.2,0.5
				c-0.2,0.2-0.3,0.4-0.4,0.6l-0.8-0.2c0.1-0.4,0.4-0.7,0.8-1c0.5-0.3,1.1-0.5,1.6-0.5c1.1-0.1,2,0.6,2.2,1.7c0,0,0,0.1,0,0.1
				c0,0.8-0.5,1.4-1.3,1.5c0.9,0.1,1.5,0.8,1.5,1.7c0,1.2-1,2-2.5,2c-0.6,0-1.3-0.2-1.8-0.6c-0.4-0.3-0.6-0.6-0.8-1.1l0.8-0.3
				c0.1,0.3,0.2,0.6,0.5,0.8c0.4,0.3,0.8,0.4,1.3,0.4c0.5,0,0.9-0.1,1.3-0.4c0.2-0.2,0.4-0.5,0.4-0.9c0-0.8-0.7-1.3-1.8-1.3h-0.8
				V124.4z"/>
		</g>
	</g>
</g>
<g>
	<g>
		<defs>
			<rect id="SVGID_55_" x="26.9" y="114" width="660" height="374.9"/>
		</defs>
		<clipPath id="SVGID_56_">
			<use xlink:href="#SVGID_55_"  style="overflow:visible;"/>
		</clipPath>
		<g class="st32">
			<path class="st12" d="M476.7,128.2H472v-0.6h2v-5.2c-0.5,0.6-1.1,1.1-1.8,1.4V123c0.8-0.4,1.5-0.9,2-1.6h0.6v6.2h1.9L476.7,128.2
				z"/>
			<path class="st12" d="M480.7,128.2v-1.6h-3.3V126l3-4.7h1v4.6h1.1v0.7h-1.1v1.6L480.7,128.2z M480.7,122.8c0-0.3,0-0.4,0-0.7
				c-0.2,0.3-0.2,0.4-0.4,0.6l-2.1,3.3h2.4L480.7,122.8z"/>
		</g>
	</g>
</g>
<g>
	<g>
		<defs>
			<rect id="SVGID_57_" x="26.9" y="114" width="660" height="374.9"/>
		</defs>
		<clipPath id="SVGID_58_">
			<use xlink:href="#SVGID_57_"  style="overflow:visible;"/>
		</clipPath>
		<g class="st33">
			<path class="st12" d="M514.3,128.2h-4.7v-0.6h2v-5.2c-0.5,0.6-1.1,1.1-1.8,1.4V123c0.8-0.4,1.5-0.9,2-1.6h0.6v6.2h1.9
				L514.3,128.2z"/>
			<path class="st12" d="M519.5,122.2h-3.3l-0.1,2.2c0.4-0.5,1-0.7,1.6-0.7c1.3,0,2.3,1,2.3,2.3c0,0,0,0.1,0,0.1
				c0,1.3-1.1,2.4-2.4,2.3c0,0-0.1,0-0.1,0c-0.7,0-1.3-0.2-1.8-0.7c-0.3-0.2-0.5-0.5-0.6-0.9l0.7-0.3c0.2,0.7,0.9,1.2,1.7,1.2
				c0.9,0.1,1.7-0.6,1.7-1.5c0-0.1,0-0.1,0-0.2c0-0.8-0.6-1.6-1.4-1.6c0,0-0.1,0-0.1,0c-0.6,0-1.3,0.3-1.6,0.9l-0.7-0.1l0.2-3.6h4
				L519.5,122.2z"/>
		</g>
	</g>
</g>
<g>
	<g>
		<defs>
			<rect id="SVGID_59_" x="26.9" y="114" width="660" height="374.9"/>
		</defs>
		<clipPath id="SVGID_60_">
			<use xlink:href="#SVGID_59_"  style="overflow:visible;"/>
		</clipPath>
		<g class="st34">
			<path class="st12" d="M551.9,128.2h-4.7v-0.6h2v-5.2c-0.5,0.6-1.1,1.1-1.8,1.4V123c0.8-0.4,1.5-0.9,2-1.6h0.6v6.2h1.9
				L551.9,128.2z"/>
			<path class="st12" d="M556.9,123.1c-0.2-0.6-0.8-1-1.4-1c-0.7,0-1.4,0.5-1.6,1.2c-0.2,0.6-0.3,1.3-0.3,1.9
				c0.1-0.3,0.3-0.6,0.6-0.8c0.4-0.3,0.9-0.5,1.4-0.5c1.2,0,2.2,1,2.2,2.2c0,0,0,0,0,0c0,1.3-1,2.3-2.3,2.3c0,0,0,0-0.1,0
				c-1.6,0-2.6-1.3-2.6-3.3c0-1,0.2-2,0.8-2.8c0.5-0.6,1.2-0.9,1.9-0.8c1-0.1,1.9,0.6,2.2,1.5L556.9,123.1z M553.8,126.1
				c0,0.9,0.7,1.6,1.6,1.6c0.9,0,1.6-0.7,1.6-1.6c0-0.9-0.7-1.6-1.5-1.6C554.5,124.4,553.8,125.2,553.8,126.1L553.8,126.1z"/>
		</g>
	</g>
</g>
<g>
	<g>
		<defs>
			<rect id="SVGID_61_" x="26.9" y="114" width="660" height="374.9"/>
		</defs>
		<clipPath id="SVGID_62_">
			<use xlink:href="#SVGID_61_"  style="overflow:visible;"/>
		</clipPath>
		<g class="st35">
			<path class="st12" d="M589.4,128.2h-4.7v-0.6h2v-5.2c-0.5,0.6-1.1,1.1-1.8,1.4V123c0.8-0.4,1.5-0.9,2-1.6h0.6v6.2h1.9
				L589.4,128.2z"/>
			<path class="st12" d="M591.8,128.2V128c0-1.1,0.3-2.2,0.8-3.3c0.4-0.9,0.9-1.7,1.6-2.5h-3.6l0.1-0.7h4.4v0.5
				c-0.5,0.6-1,1.3-1.4,2.1c-0.6,1.2-1,2.5-1,3.9v0.2L591.8,128.2z"/>
		</g>
	</g>
</g>
<g>
	<g>
		<defs>
			<rect id="SVGID_63_" x="26.9" y="114" width="660" height="374.9"/>
		</defs>
		<clipPath id="SVGID_64_">
			<use xlink:href="#SVGID_63_"  style="overflow:visible;"/>
		</clipPath>
		<g class="st36">
			<path class="st12" d="M627,128.2h-4.7v-0.6h2v-5.2c-0.5,0.6-1.1,1.1-1.8,1.4V123c0.8-0.4,1.5-0.9,2-1.6h0.6v6.2h1.9V128.2z"/>
			<path class="st12" d="M628.1,123.1c0-1,0.9-1.7,2.3-1.7s2.2,0.7,2.2,1.7c0,0.7-0.6,1.4-1.3,1.5c0.3,0.1,0.6,0.3,0.9,0.5
				c0.4,0.3,0.7,0.8,0.7,1.3c0,1.1-1,1.9-2.5,1.9s-2.6-0.8-2.6-1.9c0-0.8,0.5-1.3,1.6-1.7C628.6,124.5,628.1,123.8,628.1,123.1z
				 M628.6,126.5c0,0.7,0.7,1.2,1.8,1.2s1.8-0.5,1.8-1.2s-0.6-1.1-1.8-1.5C629.2,125.3,628.6,125.8,628.6,126.5z M631.9,123
				c0-0.6-0.6-1-1.5-1s-1.5,0.4-1.5,1s0.5,1,1.4,1.3C631.5,124,631.9,123.6,631.9,123L631.9,123z"/>
		</g>
	</g>
</g>
<g>
	<g>
		<defs>
			<rect id="SVGID_65_" x="26.9" y="114" width="660" height="374.9"/>
		</defs>
		<clipPath id="SVGID_66_">
			<use xlink:href="#SVGID_65_"  style="overflow:visible;"/>
		</clipPath>
		<g class="st37">
			<path class="st12" d="M658.4,128.2h-4.7v-0.7c1.5-1.1,1.5-1.1,2.2-1.7c1.3-1.1,1.7-1.6,1.7-2.4c0-0.8-0.7-1.4-1.4-1.4
				c0,0-0.1,0-0.1,0c-0.5,0-1,0.2-1.3,0.6c-0.2,0.3-0.3,0.6-0.3,0.9l-0.8-0.2c0.2-1.2,1.2-2,2.4-2c1.2-0.1,2.2,0.8,2.3,1.9
				c0,0,0,0,0,0.1c0,0.9-0.5,1.6-1.9,2.8c-0.6,0.5-1.1,0.9-1.8,1.3h3.7L658.4,128.2z"/>
			<path class="st12" d="M664.1,122.6c0.3,0.7,0.5,1.5,0.5,2.2c0,0.8-0.2,1.5-0.5,2.2c-0.4,0.8-1.2,1.2-2,1.2
				c-1.5,0-2.5-1.4-2.5-3.5c0-0.8,0.2-1.5,0.5-2.2c0.5-1.1,1.9-1.6,3-1C663.5,121.8,663.8,122.2,664.1,122.6L664.1,122.6z
				 M660.4,124.8c0,1.8,0.6,2.8,1.7,2.8c0.6,0,1.2-0.4,1.4-1c0.2-0.5,0.3-1.1,0.3-1.6c0-0.7-0.1-1.4-0.3-2c-0.2-0.6-0.7-1-1.3-1
				C661,122,660.4,123,660.4,124.8z"/>
			<path class="st12" d="M670.7,128.2h-4.7v-0.6h2v-5.2c-0.5,0.6-1.1,1.1-1.8,1.4V123c0.8-0.4,1.5-0.9,2-1.6h0.6v6.2h1.9
				L670.7,128.2z"/>
			<path class="st12" d="M672.4,126.7c0.2,0.6,0.8,1,1.4,0.9c1.2,0,1.9-1,1.9-3c-0.4,0.8-1.2,1.2-2,1.2c-1.2,0-2.2-0.9-2.2-2.1
				c0,0,0-0.1,0-0.1c0-1.2,1-2.3,2.2-2.3c0,0,0.1,0,0.1,0c0.7,0,1.3,0.2,1.8,0.7c0.6,0.7,0.9,1.7,0.8,2.6c0,0.9-0.2,1.8-0.7,2.6
				c-0.5,0.7-1.2,1.1-2.1,1.1c-0.5,0-1-0.1-1.4-0.4c-0.3-0.2-0.5-0.6-0.6-0.9L672.4,126.7z M672.4,123.6c0,0.8,0.6,1.5,1.5,1.5
				c0,0,0.1,0,0.1,0c0.9,0,1.6-0.7,1.6-1.6c0-0.9-0.7-1.6-1.6-1.6C673.1,122,672.4,122.7,672.4,123.6L672.4,123.6z"/>
		</g>
	</g>
</g>
<g>
	<g>
		<defs>
			<rect id="SVGID_67_" x="26.9" y="114" width="660" height="374.9"/>
		</defs>
		<clipPath id="SVGID_68_">
			<use xlink:href="#SVGID_67_"  style="overflow:visible;"/>
		</clipPath>
		<g class="st38">
			<rect x="165.9" y="470.2" class="st5" width="6.1" height="6.1"/>
		</g>
	</g>
</g>
<g>
	<g>
		<defs>
			<rect id="SVGID_69_" x="26.9" y="114" width="660" height="374.9"/>
		</defs>
		<clipPath id="SVGID_70_">
			<use xlink:href="#SVGID_69_"  style="overflow:visible;"/>
		</clipPath>
		<g class="st39">
			<path class="st12" d="M180.9,476.6h-5.2v-8h5.1v0.9h-4.1v2.5h3.2v0.8h-3.2v2.9h4.2V476.6z"/>
			<path class="st12" d="M182.6,476.6v-5.9h0.8v1.4c0.2-0.4,0.4-0.7,0.6-1c0.3-0.3,0.7-0.5,1.2-0.5h0.3v0.9c-1-0.1-1.9,0.7-2,1.8
				c0,0.1,0,0.2,0,0.3v3.1L182.6,476.6z"/>
			<path class="st12" d="M191.4,473.8c0.1,1.5-1,2.9-2.5,3c-0.1,0-0.1,0-0.2,0c-1.6,0-2.6-1.3-2.6-3.1s1.1-3.1,2.7-3.1
				S191.4,471.8,191.4,473.8z M187.5,472c-0.3,0.5-0.4,1.1-0.4,1.7c0,1.5,0.6,2.4,1.6,2.4s1.7-0.9,1.7-2.3c0-0.6-0.1-1.2-0.4-1.7
				c-0.3-0.4-0.8-0.6-1.3-0.6C188.3,471.4,187.8,471.6,187.5,472z"/>
			<path class="st12" d="M192.7,474.9c0.1,0.3,0.2,0.5,0.4,0.7c0.4,0.3,0.9,0.5,1.5,0.4c0.8,0,1.4-0.4,1.4-1s-0.4-0.8-1-0.9
				l-1.3-0.2c-1-0.2-1.6-0.8-1.6-1.6c0-1,0.9-1.7,2.2-1.7c1-0.1,2,0.5,2.3,1.5l-0.8,0.2c-0.2-0.6-0.9-1-1.5-0.9
				c-0.8,0-1.3,0.4-1.3,0.9s0.3,0.7,0.9,0.8l1.2,0.2c1.2,0.2,1.8,0.8,1.8,1.8s-1,1.8-2.4,1.8c-0.7,0-1.4-0.2-2-0.7
				c-0.3-0.3-0.5-0.6-0.6-1L192.7,474.9z"/>
			<path class="st12" d="M198.5,469.7h-1v-1h1V469.7z M198.5,476.7h-0.9v-5.9h0.9V476.7z"/>
			<path class="st12" d="M205.4,473.8c0.1,1.5-1,2.9-2.5,3c-0.1,0-0.1,0-0.2,0c-1.6,0-2.6-1.3-2.6-3.1s1.1-3.1,2.7-3.1
				S205.4,471.8,205.4,473.8z M201.5,472c-0.3,0.5-0.4,1.1-0.4,1.7c0,1.5,0.6,2.4,1.6,2.4s1.7-0.9,1.7-2.3c0-0.6-0.1-1.2-0.4-1.7
				c-0.3-0.4-0.8-0.6-1.3-0.6C202.3,471.4,201.8,471.6,201.5,472L201.5,472z"/>
			<path class="st12" d="M210.4,476.6v-3.8c0-1-0.4-1.5-1.2-1.5c-1,0.1-1.7,1-1.7,2c0,0,0,0,0,0v3.3h-0.9v-5.9h0.9v1.1
				c0.6-0.9,1.1-1.3,1.9-1.3c0.7,0,1.4,0.4,1.7,1c0.2,0.5,0.3,1.1,0.2,1.6v3.4L210.4,476.6z"/>
			<path class="st12" d="M219,471.5h-1.4v5.2h-0.9v-5.2h-1v-0.7h1c0-0.4,0-0.9,0.2-1.3c0.3-0.6,0.9-1,1.6-0.9c0.3,0,0.6,0,0.9,0.1
				v0.7c-0.2-0.1-0.4-0.1-0.6-0.1c-0.6,0-1,0.2-1.1,0.6s-0.1,0.3-0.1,1h1.4V471.5z"/>
			<path class="st12" d="M219.6,476.6v-5.9h0.8v1.4c0.2-0.4,0.4-0.7,0.6-1c0.3-0.3,0.7-0.5,1.2-0.5h0.3v0.9c-1-0.1-1.9,0.7-2,1.8
				c0,0.1,0,0.2,0,0.3v3.1L219.6,476.6z"/>
			<path class="st12" d="M228.4,473.8c0.1,1.5-1,2.9-2.5,3c-0.1,0-0.1,0-0.2,0c-1.5,0-2.6-1.3-2.6-3.1s1.1-3.1,2.7-3.1
				S228.4,471.8,228.4,473.8z M224.5,472c-0.3,0.5-0.4,1.1-0.4,1.7c0,1.5,0.6,2.4,1.6,2.4s1.7-0.9,1.7-2.3c0-0.6-0.1-1.2-0.4-1.7
				c-0.3-0.4-0.8-0.6-1.3-0.6C225.3,471.4,224.8,471.6,224.5,472L224.5,472z"/>
			<path class="st12" d="M237.6,476.6V473c0.1-0.4,0-0.7-0.2-1.1c-0.2-0.3-0.6-0.5-0.9-0.5c-0.4,0-0.8,0.2-1.1,0.5
				c-0.3,0.4-0.5,0.9-0.5,1.4v3.3H234v-3.9c0-0.4-0.1-0.7-0.3-1c-0.2-0.3-0.5-0.4-0.9-0.4c-0.9,0.1-1.5,0.9-1.4,1.8v3.5h-0.9v-5.9
				h0.8v1.1c0.3-0.8,1-1.3,1.8-1.3c0.8,0,1.5,0.6,1.7,1.4c0.3-0.8,1-1.4,1.9-1.4c0.6,0,1.2,0.3,1.5,0.8c0.2,0.5,0.3,1,0.3,1.6v3.7
				L237.6,476.6z"/>
			<path class="st12" d="M248.4,474.2c-0.1,0.6-0.4,1.2-0.8,1.7c-0.5,0.6-1.3,1-2.1,0.9c-0.8,0-1.7-0.3-2.2-1
				c-0.7-0.9-1.1-2.1-1-3.3c0-2.5,1.3-4.1,3.3-4.1c1.5,0,2.5,0.9,2.9,2.6l-0.9,0.2c-0.4-1.3-1-1.9-1.9-1.9c-1.4,0-2.2,1.2-2.2,3.3
				s0.9,3.3,2.2,3.3c0.6,0,1.1-0.3,1.5-0.7c0.3-0.4,0.4-0.8,0.5-1.3L248.4,474.2z"/>
			<path class="st12" d="M254.4,473.8c0.1,1.5-1,2.9-2.5,3c-0.1,0-0.1,0-0.2,0c-1.5,0-2.6-1.3-2.6-3.1s1.1-3.1,2.7-3.1
				S254.4,471.8,254.4,473.8z M250.5,472c-0.3,0.5-0.4,1.1-0.4,1.7c0,1.5,0.6,2.4,1.6,2.4s1.6-0.9,1.6-2.3c0-0.6-0.1-1.2-0.4-1.7
				c-0.3-0.4-0.8-0.6-1.3-0.6C251.3,471.4,250.8,471.6,250.5,472L250.5,472z"/>
			<path class="st12" d="M260.4,476.6v-3.8c0-1-0.4-1.5-1.2-1.5c-1,0.1-1.7,1-1.7,2c0,0,0,0,0,0v3.3h-0.9v-5.9h0.9v1.1
				c0.6-0.9,1.1-1.3,1.9-1.3c0.7,0,1.4,0.4,1.7,1c0.2,0.5,0.3,1.1,0.2,1.6v3.4L260.4,476.6z"/>
			<path class="st12" d="M262.6,474.9c0.1,0.3,0.2,0.5,0.4,0.7c0.4,0.3,0.9,0.5,1.5,0.4c0.8,0,1.4-0.4,1.4-1s-0.4-0.8-1-0.9
				l-1.3-0.2c-1-0.2-1.6-0.8-1.6-1.6c0-1,0.9-1.7,2.2-1.7c1-0.1,2,0.5,2.3,1.5l-0.8,0.2c-0.2-0.6-0.9-1-1.5-0.9
				c-0.8,0-1.3,0.4-1.3,0.9s0.3,0.7,0.9,0.8l1.2,0.2c1.2,0.2,1.8,0.8,1.8,1.8s-1,1.8-2.4,1.8c-0.7,0-1.4-0.2-2-0.7
				c-0.3-0.3-0.5-0.6-0.6-1L262.6,474.9z"/>
			<path class="st12" d="M271.2,476.7c-0.3,0-0.6,0.1-0.9,0.1c-1.1,0-1.7-0.6-1.7-1.8v-3.6h-1v-0.7h1v-1.5l0.9-0.1v1.6h1.3v0.7h-1.3
				v3.7c-0.1,0.5,0.3,0.9,0.7,0.9c0.1,0,0.2,0,0.3,0c0.2,0,0.5,0,0.7-0.1L271.2,476.7z"/>
			<path class="st12" d="M271.6,476.6v-5.9h0.8v1.4c0.2-0.4,0.4-0.7,0.6-1c0.3-0.3,0.7-0.5,1.2-0.5h0.3v0.9c-1-0.1-1.9,0.7-2,1.8
				c0,0.1,0,0.2,0,0.3v3.1L271.6,476.6z"/>
			<path class="st12" d="M279.4,476.6v-1.1c-0.3,0.8-1,1.3-1.9,1.3c-1.2,0-2-0.9-2-2.3v-3.8h0.9v3.8c0,0.4,0.1,0.8,0.3,1.1
				c0.2,0.3,0.5,0.4,0.9,0.4c1-0.1,1.7-1,1.6-2v-3.3h0.9v5.9L279.4,476.6z"/>
			<path class="st12" d="M286.9,474.7c-0.1,0.5-0.3,1.1-0.7,1.5c-0.4,0.4-1,0.7-1.6,0.6c-1.5,0-2.5-1.2-2.5-3.1s1-3.1,2.5-3.1
				c1.2,0,2.2,0.9,2.3,2.1l-0.8,0.2c0-0.3-0.1-0.6-0.3-0.9c-0.3-0.4-0.7-0.6-1.1-0.6c-1,0-1.6,0.9-1.6,2.3s0.6,2.4,1.6,2.4
				c0.7,0,1.3-0.5,1.4-1.5L286.9,474.7z"/>
			<path class="st12" d="M290.2,476.7c-0.3,0-0.6,0.1-0.9,0.1c-1.1,0-1.7-0.6-1.7-1.8v-3.6h-1v-0.7h1v-1.5l0.9-0.1v1.6h1.3v0.7h-1.3
				v3.7c-0.1,0.5,0.3,0.9,0.7,0.9c0.1,0,0.2,0,0.3,0c0.2,0,0.5,0,0.7-0.1L290.2,476.7z"/>
			<path class="st12" d="M292.5,469.7h-1v-1h1V469.7z M292.5,476.7h-0.9v-5.9h0.9V476.7z"/>
			<path class="st12" d="M299.4,473.8c0.1,1.5-1,2.9-2.5,3c-0.1,0-0.1,0-0.2,0c-1.5,0-2.6-1.3-2.6-3.1s1.1-3.1,2.7-3.1
				S299.4,471.8,299.4,473.8z M295.5,472c-0.3,0.5-0.4,1.1-0.4,1.7c0,1.5,0.6,2.4,1.6,2.4s1.6-0.9,1.6-2.3c0-0.6-0.1-1.2-0.4-1.7
				c-0.3-0.4-0.8-0.6-1.2-0.6C296.2,471.3,295.7,471.6,295.5,472L295.5,472z"/>
			<path class="st12" d="M304.3,476.6v-3.8c0-1-0.4-1.5-1.2-1.5c-1,0.1-1.7,1-1.7,2c0,0,0,0,0,0v3.3h-0.9v-5.9h0.9v1.1
				c0.6-0.9,1.1-1.3,1.9-1.3c0.7,0,1.4,0.4,1.7,1c0.2,0.5,0.3,1.1,0.2,1.6v3.4L304.3,476.6z"/>
			<path class="st12" d="M316.3,474.2c-0.1,0.6-0.4,1.2-0.8,1.7c-0.5,0.6-1.3,1-2.1,0.9c-0.8,0-1.7-0.4-2.2-1
				c-0.7-0.9-1.1-2.1-1.1-3.3c0-2.5,1.3-4.1,3.3-4.1c1.5,0,2.5,0.9,2.9,2.6l-0.9,0.2c-0.4-1.3-1-1.9-2-1.9c-1.4,0-2.2,1.2-2.2,3.3
				s0.9,3.3,2.2,3.3c0.6,0,1.1-0.3,1.5-0.7c0.3-0.4,0.4-0.8,0.5-1.3L316.3,474.2z"/>
			<path class="st12" d="M322.4,473.8c0.1,1.5-1,2.9-2.5,3c-0.1,0-0.1,0-0.2,0c-1.5,0-2.6-1.3-2.6-3.1s1.1-3.1,2.7-3.1
				S322.4,471.8,322.4,473.8z M318.5,472c-0.3,0.5-0.4,1.1-0.4,1.7c0,1.5,0.6,2.4,1.6,2.4s1.7-0.9,1.7-2.3c0-0.6-0.1-1.2-0.4-1.7
				c-0.3-0.4-0.8-0.6-1.3-0.6C319.2,471.4,318.7,471.6,318.5,472z"/>
			<path class="st12" d="M323.6,474.9c0.1,0.3,0.2,0.5,0.4,0.7c0.4,0.3,0.9,0.5,1.5,0.4c0.8,0,1.4-0.4,1.4-1s-0.4-0.8-1-0.9
				l-1.3-0.2c-1-0.2-1.6-0.8-1.6-1.6c0-1,0.9-1.7,2.2-1.7c1-0.1,2,0.5,2.3,1.5l-0.8,0.2c-0.2-0.6-0.9-1-1.5-0.9
				c-0.8,0-1.3,0.4-1.3,0.9s0.3,0.7,0.9,0.8l1.2,0.2c1.2,0.2,1.8,0.8,1.8,1.8s-1,1.8-2.4,1.8c-0.7,0-1.4-0.2-2-0.7
				c-0.3-0.3-0.5-0.6-0.6-1L323.6,474.9z"/>
			<path class="st12" d="M331.2,476.7c-0.3,0-0.6,0.1-0.9,0.1c-1.1,0-1.7-0.6-1.7-1.8v-3.6h-1v-0.7h1v-1.5l0.9-0.1v1.6h1.3v0.7h-1.3
				v3.7c-0.1,0.5,0.3,0.9,0.7,0.9c0.1,0,0.2,0,0.3,0c0.2,0,0.5,0,0.7-0.1L331.2,476.7z"/>
			<path class="st12" d="M335.6,476.6v-8h1v8H335.6z"/>
			<path class="st12" d="M342.3,476.6v-3.8c0-1-0.4-1.5-1.2-1.5c-1,0.1-1.7,1-1.7,2c0,0,0,0,0,0v3.3h-0.9v-5.9h0.9v1.1
				c0.6-0.9,1.1-1.3,1.9-1.3c0.7,0,1.4,0.4,1.7,1c0.2,0.5,0.3,1.1,0.2,1.6v3.4L342.3,476.6z"/>
			<path class="st12" d="M348,471.5h-1.4v5.2h-0.9v-5.2h-1v-0.7h1c0-0.4,0-0.9,0.2-1.3c0.3-0.6,0.9-1,1.6-0.9c0.3,0,0.6,0,0.9,0.1
				v0.7c-0.2-0.1-0.4-0.1-0.5-0.1c-0.6,0-1,0.2-1.1,0.6s-0.1,0.3-0.1,1h1.4V471.5z"/>
			<path class="st12" d="M348.5,476.6v-8h0.9v8H348.5z"/>
			<path class="st12" d="M355.2,476.6c-0.1-0.4-0.1-0.7-0.1-1.1c-0.4,0.8-1.2,1.3-2.1,1.2c-1,0.1-1.9-0.6-2-1.6c0-0.1,0-0.1,0-0.2
				c0-0.7,0.4-1.3,1-1.6c0.7-0.3,1.6-0.5,2.4-0.4c0.2,0,0.4,0,0.8,0v-0.2c0-1.1-0.4-1.5-1.5-1.5c-0.9,0-1.4,0.4-1.6,1.1l-0.9-0.1
				c0-0.3,0.2-0.7,0.5-0.9c0.6-0.5,1.4-0.8,2.2-0.7c0.7-0.1,1.4,0.2,1.8,0.7c0.3,0.5,0.4,1.2,0.4,1.8v2.5c0,0.4,0,0.8,0.1,1.1
				L355.2,476.6z M354.4,473.6c-1.5,0-2.4,0.5-2.4,1.4c0,0.6,0.5,1.1,1.3,1.1c1.1,0,1.9-0.9,1.9-2c0-0.1,0-0.2,0-0.4L354.4,473.6z"
				/>
			<path class="st12" d="M360.2,476.7c-0.3,0-0.6,0.1-0.9,0.1c-1.1,0-1.7-0.6-1.7-1.8v-3.6h-1v-0.7h1v-1.5l0.9-0.1v1.6h1.3v0.7h-1.3
				v3.7c-0.1,0.5,0.3,0.9,0.7,0.9c0.1,0,0.1,0,0.2,0c0.2,0,0.5,0,0.7-0.1L360.2,476.7z"/>
			<path class="st12" d="M362.5,469.7h-1v-1h1V469.7z M362.5,476.7h-0.9v-5.9h0.9V476.7z"/>
			<path class="st12" d="M369.4,473.8c0.1,1.5-1,2.9-2.5,3c-0.1,0-0.1,0-0.2,0c-1.5,0-2.6-1.3-2.6-3.1s1.1-3.1,2.7-3.1
				S369.4,471.8,369.4,473.8z M365.5,472c-0.3,0.5-0.4,1.1-0.4,1.7c0,1.5,0.6,2.4,1.6,2.4s1.7-0.9,1.7-2.3c0-0.6-0.1-1.2-0.4-1.7
				c-0.3-0.4-0.8-0.6-1.3-0.6C366.2,471.3,365.7,471.6,365.5,472L365.5,472z"/>
			<path class="st12" d="M374.3,476.6v-3.8c0-1-0.4-1.5-1.2-1.5c-1,0.1-1.7,1-1.7,2c0,0,0,0,0,0v3.3h-0.9v-5.9h0.9v1.1
				c0.6-0.9,1.1-1.3,1.9-1.3c0.7,0,1.4,0.4,1.7,1c0.2,0.5,0.3,1.1,0.2,1.6v3.4L374.3,476.6z"/>
		</g>
	</g>
</g>
<g>
	<g>
		<defs>
			<rect id="SVGID_71_" x="26.9" y="114" width="660" height="374.9"/>
		</defs>
		<clipPath id="SVGID_72_">
			<use xlink:href="#SVGID_71_"  style="overflow:visible;"/>
		</clipPath>
		<g class="st40">
			<rect x="403.9" y="470.2" class="st7" width="6.1" height="6.1"/>
		</g>
	</g>
</g>
<g>
	<g>
		<defs>
			<rect id="SVGID_73_" x="26.9" y="114" width="660" height="374.9"/>
		</defs>
		<clipPath id="SVGID_74_">
			<use xlink:href="#SVGID_73_"  style="overflow:visible;"/>
		</clipPath>
		<g class="st41">
			<path class="st12" d="M418.9,476.6h-5.2v-8h5.1v0.9h-4.1v2.5h3.2v0.8h-3.2v2.9h4.2L418.9,476.6z"/>
			<path class="st12" d="M420.6,476.6v-5.9h0.8v1.4c0.2-0.4,0.4-0.7,0.6-1c0.3-0.3,0.7-0.5,1.2-0.5h0.3v0.9c-1-0.1-1.9,0.7-2,1.8
				c0,0.1,0,0.2,0,0.3v3.1L420.6,476.6z"/>
			<path class="st12" d="M429.5,473.8c0.1,1.5-1,2.9-2.5,3c-0.1,0-0.1,0-0.2,0c-1.5,0-2.6-1.3-2.6-3.1s1.1-3.1,2.7-3.1
				S429.5,471.8,429.5,473.8z M425.6,472c-0.3,0.5-0.4,1.1-0.4,1.7c0,1.5,0.6,2.4,1.6,2.4s1.7-0.9,1.7-2.3c0-0.6-0.1-1.2-0.4-1.7
				c-0.3-0.4-0.8-0.6-1.3-0.6C426.3,471.4,425.9,471.6,425.6,472z"/>
			<path class="st12" d="M430.7,474.9c0.1,0.3,0.2,0.5,0.4,0.7c0.4,0.3,0.9,0.5,1.5,0.4c0.8,0,1.4-0.4,1.4-1s-0.4-0.8-1-0.9
				l-1.3-0.2c-1-0.2-1.6-0.8-1.6-1.6c0-1,0.9-1.7,2.2-1.7c1-0.1,2,0.5,2.3,1.5l-0.8,0.2c-0.2-0.6-0.9-1-1.5-0.9
				c-0.8,0-1.3,0.4-1.3,0.9s0.3,0.7,0.9,0.8l1.2,0.2c1.2,0.2,1.8,0.8,1.8,1.8s-1,1.8-2.4,1.8c-0.7,0-1.4-0.2-2-0.7
				c-0.3-0.3-0.5-0.6-0.6-1L430.7,474.9z"/>
			<path class="st12" d="M436.6,469.7h-1v-1h1V469.7z M436.6,476.7h-0.9v-5.9h0.9V476.7z"/>
			<path class="st12" d="M443.5,473.8c0.1,1.5-1,2.9-2.5,3c-0.1,0-0.1,0-0.2,0c-1.5,0-2.6-1.3-2.6-3.1s1.1-3.1,2.7-3.1
				S443.5,471.8,443.5,473.8z M439.6,472c-0.3,0.5-0.4,1.1-0.4,1.7c0,1.5,0.6,2.4,1.6,2.4s1.7-0.9,1.7-2.3c0-0.6-0.1-1.2-0.5-1.7
				c-0.3-0.4-0.8-0.6-1.3-0.6C440.3,471.4,439.8,471.6,439.6,472z"/>
			<path class="st12" d="M448.4,476.6v-3.8c0-1-0.4-1.5-1.2-1.5c-1,0.1-1.7,1-1.7,2c0,0,0,0,0,0v3.3h-0.9v-5.9h0.9v1.1
				c0.6-0.9,1.1-1.3,1.9-1.3c0.7,0,1.4,0.4,1.7,1c0.2,0.5,0.3,1.1,0.2,1.6v3.4L448.4,476.6z"/>
			<path class="st12" d="M457.1,471.5h-1.4v5.2h-0.9v-5.2h-1v-0.7h1c0-0.4,0-0.9,0.2-1.3c0.3-0.6,0.9-1,1.6-0.9c0.3,0,0.6,0,0.9,0.1
				v0.7c-0.2-0.1-0.4-0.1-0.5-0.1c-0.6,0-1,0.2-1.1,0.6s-0.1,0.3-0.1,1h1.4L457.1,471.5z"/>
			<path class="st12" d="M457.6,476.6v-5.9h0.8v1.4c0.2-0.4,0.4-0.7,0.6-1c0.3-0.3,0.7-0.5,1.2-0.5h0.3v0.9c-1-0.1-1.9,0.7-2,1.8
				c0,0.1,0,0.2,0,0.3v3.1L457.6,476.6z"/>
			<path class="st12" d="M466.5,473.8c0.1,1.5-1,2.9-2.5,3c-0.1,0-0.1,0-0.2,0c-1.5,0-2.6-1.3-2.6-3.1s1.1-3.1,2.7-3.1
				S466.5,471.8,466.5,473.8z M462.6,472c-0.3,0.5-0.4,1.1-0.4,1.7c0,1.5,0.6,2.4,1.6,2.4s1.7-0.9,1.7-2.3c0-0.6-0.1-1.2-0.5-1.7
				c-0.3-0.4-0.8-0.6-1.3-0.6C463.3,471.4,462.8,471.6,462.6,472L462.6,472z"/>
			<path class="st12" d="M475.6,476.6V473c0.1-0.4,0-0.7-0.2-1.1c-0.2-0.3-0.6-0.5-1-0.5c-0.4,0-0.8,0.2-1,0.5
				c-0.3,0.4-0.5,0.9-0.5,1.4v3.3h-0.9v-3.9c0-0.4-0.1-0.7-0.3-1c-0.2-0.3-0.5-0.4-0.9-0.4c-0.9,0.1-1.5,0.9-1.5,1.8v3.5h-0.9v-5.9
				h0.8v1.1c0.3-0.8,1-1.3,1.8-1.3c0.8,0,1.5,0.6,1.6,1.4c0.3-0.8,1-1.4,1.9-1.4c0.6,0,1.2,0.3,1.5,0.8c0.2,0.5,0.3,1,0.3,1.6v3.7
				L475.6,476.6z"/>
			<path class="st12" d="M480.7,476.6v-8h4.9v0.9h-3.9v2.5h3.2v0.8h-3.2v3.8H480.7z"/>
			<path class="st12" d="M490.4,476.6v-1.1c-0.3,0.8-1,1.3-1.9,1.3c-1.2,0-1.9-0.9-1.9-2.3v-3.8h0.9v3.8c0,0.4,0.1,0.8,0.3,1.1
				c0.2,0.3,0.5,0.4,0.9,0.4c1-0.1,1.7-1,1.6-2v-3.3h0.9v5.9L490.4,476.6z"/>
			<path class="st12" d="M498.4,475.1c-0.4,1.1-1.4,1.8-2.5,1.7c-1.6,0-2.7-1.2-2.7-3.1c-0.2-1.6,0.9-3,2.5-3.1c0.1,0,0.2,0,0.2,0
				c0.9,0,1.8,0.5,2.2,1.4c0.3,0.6,0.4,1.2,0.4,1.8h-4.3c0,0.5,0,0.9,0.2,1.4c0.3,0.6,0.9,0.9,1.5,0.9c0.5,0,0.9-0.2,1.2-0.5
				c0.2-0.2,0.3-0.4,0.4-0.6L498.4,475.1z M497.5,473.1c0-0.4-0.1-0.8-0.3-1.2c-0.3-0.4-0.7-0.6-1.2-0.6c-0.5,0-1,0.2-1.3,0.6
				c-0.3,0.3-0.4,0.8-0.4,1.2H497.5z"/>
			<path class="st12" d="M499.6,476.6v-8h0.9v8H499.6z"/>
			<path class="st12" d="M510.8,476.6h-5.2v-8h5.1v0.9h-4.1v2.5h3.2v0.8h-3.2v2.9h4.2V476.6z"/>
			<path class="st12" d="M515,471.5h-1.4v5.2h-0.9v-5.2h-1v-0.7h1c0-0.4,0-0.9,0.2-1.3c0.3-0.6,0.9-1,1.6-0.9c0.3,0,0.6,0,0.9,0.1
				v0.7c-0.2-0.1-0.4-0.1-0.5-0.1c-0.6,0-1,0.2-1.1,0.6s-0.1,0.3-0.1,1h1.4V471.5z"/>
			<path class="st12" d="M518.1,471.5h-1.4v5.2h-0.8v-5.2h-1v-0.7h1c0-0.4,0-0.9,0.2-1.3c0.3-0.6,0.9-1,1.6-0.9c0.3,0,0.6,0,0.9,0.1
				v0.7c-0.2-0.1-0.4-0.1-0.5-0.1c-0.6,0-1,0.2-1.1,0.6s-0.1,0.3-0.1,1h1.4L518.1,471.5z"/>
			<path class="st12" d="M520.5,469.7h-1v-1h1V469.7z M520.5,476.7h-0.9v-5.9h0.9V476.7z"/>
			<path class="st12" d="M526.9,474.7c-0.1,0.5-0.3,1.1-0.7,1.5c-0.4,0.4-1,0.7-1.6,0.6c-1.5,0-2.5-1.2-2.5-3.1s1-3.1,2.5-3.1
				c1.2,0,2.2,0.9,2.2,2.1l-0.8,0.2c0-0.3-0.1-0.6-0.3-0.9c-0.3-0.4-0.7-0.6-1.1-0.6c-1,0-1.6,0.9-1.6,2.3s0.6,2.4,1.6,2.4
				c0.8,0,1.3-0.5,1.4-1.5L526.9,474.7z"/>
			<path class="st12" d="M528.5,469.7h-1v-1h1V469.7z M528.5,476.7h-0.9v-5.9h0.9V476.7z"/>
			<path class="st12" d="M535.3,475.1c-0.3,1.1-1.4,1.8-2.5,1.7c-1.6,0-2.7-1.2-2.7-3.1s1.1-3.1,2.7-3.1c0.9,0,1.8,0.5,2.2,1.4
				c0.3,0.6,0.4,1.2,0.3,1.8h-4.3c0,0.5,0,0.9,0.2,1.4c0.3,0.6,0.9,0.9,1.5,0.9c0.5,0,0.9-0.2,1.2-0.5c0.2-0.2,0.3-0.4,0.4-0.6
				L535.3,475.1z M534.4,473.1c0-0.4-0.1-0.8-0.3-1.2c-0.3-0.4-0.7-0.6-1.2-0.6c-0.5,0-1,0.2-1.3,0.6c-0.3,0.3-0.4,0.8-0.4,1.2
				H534.4z"/>
			<path class="st12" d="M540.4,476.6v-3.8c0-1-0.4-1.5-1.2-1.5c-1,0.1-1.7,1-1.7,2c0,0,0,0,0,0v3.3h-0.9v-5.9h0.8v1.1
				c0.6-0.9,1.1-1.3,1.9-1.3c0.7,0,1.4,0.4,1.7,1c0.2,0.5,0.3,1.1,0.2,1.6v3.4L540.4,476.6z"/>
			<path class="st12" d="M547.9,474.7c-0.1,0.6-0.3,1.1-0.7,1.5c-0.4,0.4-1,0.7-1.6,0.6c-1.5,0-2.5-1.2-2.5-3.1s1-3.1,2.5-3.1
				c1.2,0,2.2,0.9,2.2,2.1l-0.8,0.2c0-0.3-0.1-0.6-0.3-0.9c-0.3-0.4-0.7-0.6-1.1-0.6c-1,0-1.6,0.9-1.6,2.3s0.6,2.4,1.6,2.4
				c0.8,0,1.3-0.5,1.4-1.5L547.9,474.7z"/>
			<path class="st12" d="M550.3,477.3c-0.1,0.5-0.4,0.9-0.8,1.2c-0.3,0.2-0.6,0.3-0.9,0.2c-0.2,0-0.5,0-0.7-0.1v-0.7
				c0.2,0.1,0.4,0.1,0.6,0.1c0.4,0,0.8-0.2,0.9-0.5c0.2-0.3,0.3-0.7,0.4-1l-2-5.8h0.9l1.6,4.5l1.6-4.5h0.8L550.3,477.3z"/>
		</g>
	</g>
</g>
<g>
	<g>
		<defs>
			<rect id="SVGID_75_" width="960" height="540"/>
		</defs>
		<clipPath id="SVGID_76_">
			<use xlink:href="#SVGID_75_"  style="overflow:visible;"/>
		</clipPath>
		<g class="st42">
			<path class="st12" d="M34.9,54.5L41,69.4V54.5h4.1v24h-4.7l-7.3-17.4v17.4H29v-24L34.9,54.5z"/>
			<path class="st12" d="M48.1,65.9c0.5-3.6,3.1-5.5,7.2-5.5c1.9-0.1,3.8,0.6,5.2,1.9c0.9,0.9,1.1,2.2,1.1,5.2v7c0,2.9,0,3.2,0.3,4
				h-4.6c-0.3-0.9-0.3-1.8-0.3-2.7c-0.3,0.7-0.8,1.3-1.3,1.8c-1,0.8-2.2,1.3-3.5,1.3c-2.9,0-4.7-1.8-4.7-4.9
				c-0.1-2.3,1.2-4.5,3.4-5.4c1.8-0.7,3.8-1,5.8-1.1v-0.7c0-2.4-0.4-3.1-1.8-3.1s-1.9,0.8-2.1,2.7L48.1,65.9z M56.7,70
				c-3.1,0.4-4,1.2-4,3.3c0,1.4,0.6,2.2,1.7,2.2c0.7,0,1.4-0.5,1.7-1.1c0.6-1.1,0.8-2.4,0.7-3.6L56.7,70z"/>
			<path class="st12" d="M69.8,55.1v5.6H73v3.9h-3.2v6.5c0,2.4,0,2.7,0.4,3.1c0.5,0.4,1.1,0.6,1.7,0.5c0.4,0,0.5,0,1.3,0v3.8
				c-1,0.2-2,0.4-3,0.4c-2.2,0-3.7-0.7-4.5-2c-0.7-1-0.8-1.9-0.8-5.2v-7.1h-2v-3.9h2.2l0.4-5.3L69.8,55.1z"/>
			<path class="st12" d="M74.3,59.3v-4.9h5v4.9H74.3z M79.3,60.7v17.8h-5V60.7H79.3z"/>
			<path class="st12" d="M95.6,69.6c0,6.1-2.4,9.2-7.2,9.2s-7.2-3.1-7.2-9.2c0-6.3,2.4-9.3,7.3-9.3C93.2,60.4,95.6,63.5,95.6,69.6z
				 M86.3,69.6c0,4.3,0.5,5.8,2.1,5.8s2.1-1.4,2.1-5.8s-0.5-5.8-2.1-5.8S86.3,65.3,86.3,69.6L86.3,69.6z"/>
			<path class="st12" d="M102.1,60.7v2.4c0.9-2,2.1-2.8,4.5-2.8c1.6-0.2,3.2,0.6,4,2c0.5,0.9,0.7,1.8,0.7,4.5v11.7h-4.9V66.8
				c0-2-0.4-2.6-1.7-2.6c-0.9-0.1-1.8,0.5-2,1.3c-0.2,0.8-0.2,1.7-0.2,2.5v10.4h-5V60.7H102.1z"/>
			<path class="st12" d="M113.7,65.9c0.5-3.6,3.1-5.5,7.2-5.5c1.9-0.1,3.8,0.6,5.1,1.9c0.9,0.9,1.1,2.2,1.1,5.2v7c0,2.9,0,3.2,0.3,4
				h-4.6c-0.3-0.9-0.3-1.8-0.3-2.7c-0.3,0.7-0.8,1.3-1.3,1.8c-1,0.8-2.2,1.3-3.5,1.3c-2.9,0-4.7-1.8-4.7-4.9
				c-0.1-2.3,1.2-4.5,3.4-5.4c1.8-0.7,3.8-1,5.8-1.1v-0.7c0-2.4-0.4-3.1-1.8-3.1s-1.9,0.8-2.1,2.7L113.7,65.9z M122.2,70
				c-3.1,0.4-4,1.2-4,3.3c0,1.4,0.6,2.2,1.7,2.2c0.7,0,1.4-0.5,1.7-1.1c0.6-1.1,0.8-2.4,0.7-3.6L122.2,70z"/>
			<path class="st12" d="M134.8,54.5v24h-4.9v-24H134.8z"/>
			<path class="st12" d="M157.8,54.5v4.1h-9v6.3h6.9V69h-6.9v9.5h-5.3v-24H157.8z"/>
			<path class="st12" d="M161.5,60.7v11.4c-0.1,0.7,0,1.4,0.2,2c0.2,0.6,0.9,1,1.5,0.9c0.9,0.1,1.7-0.4,1.9-1.3
				c0.2-0.5,0.3-1.2,0.3-3.9v-9.1h4.9v17.8h-4.6v-2.4c-1.4,2.2-2.3,2.8-4.6,2.8c-1.4,0.1-2.8-0.5-3.7-1.6c-0.7-1-0.8-1.9-0.8-5V60.7
				H161.5z"/>
			<path class="st12" d="M177.3,70.4v0.9c0,2.8,0.7,4,2.4,4c1.5,0,2.3-0.9,2.5-3l4.4,0.3c-0.2,1.5-0.9,3-1.9,4.1
				c-1.3,1.4-3.2,2.1-5.2,2c-4.7,0-7.4-3.3-7.4-9c0-5.9,2.7-9.5,7.4-9.5c2.4-0.1,4.6,1.2,5.8,3.2c1,1.9,1.3,3.4,1.3,6.8L177.3,70.4z
				 M181.9,67.6c0.1-0.9-0.1-1.8-0.4-2.7c-0.3-0.8-1.1-1.3-1.9-1.3c-1.6,0-2.2,1.1-2.3,3.9H181.9z"/>
			<path class="st12" d="M193.4,54.5v24h-4.9v-24H193.4z"/>
			<path class="st12" d="M214.5,54.5V59h-4.9v19.5h-5.3V59h-4.8v-4.5L214.5,54.5z"/>
			<path class="st12" d="M212.9,65.9c0.5-3.6,3.1-5.5,7.2-5.5c1.9-0.1,3.8,0.6,5.2,1.9c0.9,0.9,1.1,2.2,1.1,5.2v7c0,2.9,0,3.2,0.3,4
				h-4.6c-0.3-0.9-0.3-1.8-0.3-2.7c-0.3,0.7-0.8,1.3-1.3,1.8c-1,0.8-2.2,1.3-3.5,1.3c-2.9,0-4.7-1.8-4.7-4.9
				c-0.1-2.3,1.2-4.5,3.4-5.4c1.8-0.7,3.8-1,5.8-1.1v-0.7c0-2.4-0.4-3.1-1.8-3.1s-1.9,0.8-2.1,2.7L212.9,65.9z M221.5,70
				c-3.1,0.4-4,1.2-4,3.3c0,1.4,0.6,2.2,1.6,2.2c0.7,0,1.4-0.5,1.7-1.1c0.6-1.1,0.8-2.4,0.7-3.6L221.5,70z"/>
			<path class="st12" d="M232.4,60.7l1.9,4.1l2.3-4.1h4.3l-4.6,7.8l5.3,9.9h-5.4l-2.6-5.3l-3,5.3h-4.3l5.3-9.1l-4.6-8.7L232.4,60.7z
				"/>
			<path class="st12" d="M254.7,54.5c3.5,0,4.8,0.3,6.1,1.2c1.8,1.2,2.8,3.5,2.8,6.3c0,2.8-1,5.2-2.7,6.4c-1.4,0.9-2.9,1.3-6,1.3
				H253v8.9h-5.3v-24L254.7,54.5z M253,65.5h1.6c2.5,0,3.4-1,3.4-3.6c0.1-1-0.3-2.1-1-2.8c-0.5-0.5-1.1-0.7-2.4-0.7H253L253,65.5z"
				/>
			<path class="st12" d="M269.5,60.7v11.4c-0.1,0.7,0,1.4,0.2,2c0.3,0.6,0.7,0.9,1.5,0.9c0.9,0.1,1.7-0.4,1.9-1.3
				c0.2-0.5,0.3-1.2,0.3-3.9v-9.1h4.9v17.8h-4.6v-2.4c-1.4,2.2-2.3,2.8-4.6,2.8c-1.4,0.1-2.8-0.5-3.7-1.6c-0.7-1-0.8-1.9-0.8-5V60.7
				H269.5z"/>
			<path class="st12" d="M285.3,60.7V65c0.9-3.2,2.2-4.5,4.2-4.5c0.3,0,0.6,0,0.9,0.1v4.8c-0.3,0-0.7-0.1-0.8-0.1
				c-2.5,0-3.6,1.8-3.6,5.5v7.7h-4.9V60.7H285.3z"/>
			<path class="st12" d="M299.4,67.4c-0.1-2.4-0.7-3.3-2-3.3c-1.7,0-2.5,1.7-2.5,5.3c0,3.8,0.7,5.4,2.4,5.4c1.3,0,1.9-0.9,2-3.3
				l4.6,0.3c-0.5,4.7-2.8,7-7,7c-4.6,0-7.1-3.2-7.1-9.3s2.6-9.2,7.3-9.2c1.8-0.1,3.5,0.5,4.8,1.8c1.3,1.3,1.7,2.6,2,5.1L299.4,67.4z
				"/>
			<path class="st12" d="M310.8,54.5v8.1c0.9-1.5,2.6-2.4,4.4-2.2c1.6-0.2,3.2,0.7,3.9,2.2c0.5,0.9,0.6,1.9,0.6,4.6v11.4h-4.9V67.1
				c0-2.3-0.3-2.9-1.7-2.9c-1.6,0-2.2,0.8-2.2,3v11.3h-4.9v-24L310.8,54.5z"/>
			<path class="st12" d="M322.1,65.9c0.5-3.6,3.1-5.5,7.2-5.5c1.9-0.1,3.8,0.6,5.2,1.9c0.9,0.9,1.1,2.2,1.1,5.2v7c0,2.9,0,3.2,0.3,4
				h-4.6c-0.3-0.9-0.3-1.8-0.3-2.7c-0.3,0.7-0.8,1.3-1.3,1.8c-1,0.8-2.2,1.3-3.5,1.3c-2.9,0-4.7-1.8-4.7-4.9
				c-0.1-2.3,1.2-4.5,3.4-5.4c1.8-0.7,3.8-1,5.8-1.1v-0.7c0-2.4-0.4-3.1-1.8-3.1s-1.9,0.8-2.1,2.7L322.1,65.9z M330.6,70
				c-3.1,0.4-4,1.2-4,3.3c0,1.4,0.6,2.2,1.7,2.2c0.7,0,1.4-0.5,1.7-1.1c0.6-1.1,0.8-2.4,0.7-3.6L330.6,70z"/>
			<path class="st12" d="M346.4,66.1c-0.6-1.7-1.3-2.4-2.6-2.4c-0.8-0.1-1.5,0.5-1.5,1.3c0,0.1,0,0.1,0,0.2c0,1.2,0.5,1.6,3,2.4
				c2.3,0.8,2.8,1,3.6,1.7c1.1,0.9,1.7,2.3,1.7,3.7c0,3.5-2.7,5.8-6.7,5.8c-1.8,0.1-3.6-0.5-5-1.7c-1-0.9-1.5-2.2-1.6-3.6l3.9-0.6
				c0.4,1.8,1.3,2.6,2.9,2.6c1.2,0,1.9-0.6,1.9-1.7s-0.5-1.6-2.8-2.3c-3.8-1.2-5.3-2.9-5.3-5.6c0-3.3,2.6-5.7,6.3-5.7
				c1.6,0,3.1,0.5,4.2,1.5c0.9,0.8,1.5,1.9,1.7,3.1L346.4,66.1z"/>
			<path class="st12" d="M352,59.3v-4.9h5v4.9H352z M357,60.7v17.8h-5V60.7H357z"/>
			<path class="st12" d="M364.3,60.7v2.4c0.9-2,2.1-2.8,4.5-2.8c1.6-0.2,3.2,0.6,4,2c0.5,0.9,0.6,1.8,0.6,4.5v11.7h-4.9V66.8
				c0-2-0.4-2.6-1.7-2.6c-0.9-0.1-1.7,0.5-2,1.3c-0.2,0.8-0.2,1.7-0.2,2.5v10.4h-4.9V60.7H364.3z"/>
			<path class="st12" d="M390.8,61c-0.4-0.1-0.7-0.1-1.1-0.1c-1-0.1-1.8,0.6-1.9,1.6c0,0,0,0,0,0c0.9,1,1.4,2.2,1.3,3.5
				c0,3.2-2.6,5.3-6.4,5.3c-0.8,0-1.6-0.1-2.3-0.3c-0.8,0.4-1.2,0.9-1.2,1.5c0,0.4,0.3,0.8,0.7,0.9c0.4,0.2,0.5,0.2,3.5,0.4
				c3.5,0.2,4.3,0.4,5.4,1.3c1.1,0.9,1.8,2.3,1.7,3.8c0,4-2.9,5.9-8.7,5.9c-4.8,0-7.2-1.4-7.2-4.2c0-1.6,0.8-2.6,2.9-3.3
				c-1.6-0.8-2.3-1.7-2.3-3.1c0-1,0.5-2,1.3-2.7c0.5-0.5,1.1-0.9,1.8-1.2c-1.8-0.8-2.8-2.6-2.6-4.5c0-3.4,2.5-5.4,6.6-5.4
				c1.3,0,2.6,0.2,3.8,0.8c0.4-2.6,1.2-3.5,3.3-3.5c0.5,0,0.9,0,1.4,0.2L390.8,61z M378.8,79.8c0,1.2,1.2,1.8,4,1.8s3.6-0.5,3.6-1.9
				c0-0.6-0.2-1.1-0.7-1.4c-0.5-0.3-0.8-0.4-3.1-0.5c-0.8,0-1.3-0.1-2.2-0.2C379.4,78,378.8,78.9,378.8,79.8z M380.8,66
				c0,1.8,0.5,2.7,1.7,2.7s1.6-0.8,1.6-2.8s-0.5-2.9-1.5-2.9C381.3,63,380.8,63.9,380.8,66z"/>
			<path class="st12" d="M404.4,54.5c3.5,0,4.8,0.3,6.1,1.2c1.8,1.2,2.8,3.5,2.8,6.3c0,2.8-1,5.2-2.7,6.4c-1.4,0.9-2.9,1.3-6,1.3
				h-1.9v8.9h-5.2v-24L404.4,54.5z M402.8,65.5h1.6c2.5,0,3.4-1,3.4-3.6c0.1-1-0.3-2.1-1-2.8c-0.5-0.5-1.1-0.7-2.4-0.7h-1.6
				L402.8,65.5z"/>
			<path class="st12" d="M427.7,69.6c0,6.1-2.4,9.2-7.2,9.2s-7.2-3.1-7.2-9.2c0-6.3,2.4-9.3,7.3-9.3
				C425.3,60.4,427.7,63.5,427.7,69.6z M418.4,69.6c0,4.3,0.5,5.8,2.1,5.8s2.1-1.4,2.1-5.8s-0.5-5.8-2-5.8S418.4,65.3,418.4,69.6
				L418.4,69.6z"/>
			<path class="st12" d="M432,60.7l2,10.8l2-10.8h4.8l1.6,10.8l2.4-10.8h3.9l-4.4,17.8h-4.2l-2.3-12.1l-2.2,12.1h-4l-4.5-17.8
				L432,60.7z"/>
			<path class="st12" d="M453.3,70.4v0.9c0,2.8,0.7,4,2.4,4c1.5,0,2.3-0.9,2.5-3l4.4,0.3c-0.2,1.5-0.9,3-1.9,4.1
				c-1.3,1.4-3.2,2.1-5.2,2c-4.7,0-7.4-3.3-7.4-9c0-5.9,2.7-9.5,7.4-9.5c2.4-0.1,4.6,1.2,5.8,3.2c1,1.9,1.3,3.4,1.3,6.8L453.3,70.4z
				 M458,67.6c0.1-0.9-0.1-1.8-0.4-2.7c-0.3-0.8-1.1-1.3-2-1.3c-1.5,0-2.2,1.1-2.3,3.9H458z"/>
			<path class="st12" d="M468.9,60.7V65c0.9-3.2,2.2-4.5,4.2-4.5c0.3,0,0.6,0,0.9,0.1v4.8c-0.3,0-0.7-0.1-0.8-0.1
				c-2.5,0-3.6,1.8-3.6,5.5v7.7h-4.9V60.7H468.9z"/>
			<path class="st12" d="M486.4,54.5c3.6,0,5.6,0.5,7.4,1.8c2.4,1.7,3.7,5.3,3.7,10c0,5-1.5,8.9-4.3,10.8c-1.6,1.1-3,1.4-6.2,1.4
				h-6.3v-24L486.4,54.5z M486,74.3h0.9c1.9,0,2.8-0.4,3.7-1.6s1.3-3.4,1.3-6.6s-0.5-5.1-1.5-6.3c-0.8-1-1.7-1.3-3.5-1.3H486V74.3z"
				/>
			<path class="st12" d="M504,70.4v0.9c0,2.8,0.7,4,2.4,4c1.5,0,2.3-0.9,2.5-3l4.4,0.3c-0.2,1.5-0.9,3-1.9,4.1
				c-1.3,1.4-3.2,2.1-5.2,2c-4.7,0-7.4-3.3-7.4-9c0-5.9,2.7-9.5,7.4-9.5c2.4,0,4.6,1.2,5.7,3.3c1,1.9,1.3,3.3,1.3,6.8H504z
				 M508.6,67.6c0.1-0.9-0.1-1.8-0.4-2.7c-0.3-0.8-1.1-1.3-2-1.3c-1.5,0-2.2,1.1-2.3,3.9H508.6z"/>
			<path class="st12" d="M523.8,67.4c-0.2-2.4-0.7-3.3-2-3.3c-1.7,0-2.5,1.7-2.5,5.3c0,3.8,0.7,5.4,2.4,5.4c1.3,0,1.9-0.9,2-3.3
				l4.6,0.3c-0.5,4.7-2.8,7-7,7c-4.6,0-7.1-3.2-7.1-9.3s2.6-9.2,7.3-9.2c1.8-0.1,3.5,0.5,4.8,1.8c1.3,1.3,1.7,2.6,1.9,5.1
				L523.8,67.4z"/>
			<path class="st12" d="M535.1,54.5v24h-4.9v-24H535.1z"/>
			<path class="st12" d="M537.6,59.3v-4.9h5v4.9H537.6z M542.6,60.7v17.8h-4.9V60.7H542.6z"/>
			<path class="st12" d="M549.9,60.7v2.4c0.9-2,2.1-2.8,4.5-2.8c1.6-0.2,3.2,0.6,4,2c0.5,0.9,0.7,1.8,0.7,4.5v11.7h-4.9V66.8
				c0-2-0.4-2.6-1.7-2.6c-0.9-0.1-1.7,0.5-2,1.3c-0.2,0.8-0.2,1.7-0.2,2.5v10.4h-4.9V60.7H549.9z"/>
			<path class="st12" d="M565.8,70.4v0.9c0,2.8,0.7,4,2.4,4c1.5,0,2.3-0.9,2.5-3l4.4,0.3c-0.2,1.5-0.9,3-1.9,4.1
				c-1.3,1.4-3.2,2.1-5.2,2c-4.7,0-7.4-3.3-7.4-9c0-5.9,2.7-9.5,7.4-9.5c2.4-0.1,4.6,1.2,5.8,3.2c1,1.9,1.3,3.4,1.3,6.8L565.8,70.4z
				 M570.4,67.6c0.1-0.9-0.1-1.8-0.4-2.7c-0.3-0.8-1.1-1.3-2-1.3c-1.5,0-2.2,1.1-2.3,3.9H570.4z"/>
			<path class="st12" d="M923,506.5v6.8h1.3v1.3h-4.4v-1.3h1.3v-4.7c-0.4,0.4-0.8,0.7-1.3,1V508c0.7-0.4,1.3-0.9,1.8-1.5L923,506.5z
				"/>
			<path class="st12" d="M573.3,203.3v3.9h-7.2v-3.9H573.3z"/>
			<path class="st12" d="M596.2,190v14.6h2.7v4.1h-2.7v5.6h-5.3v-5.6h-8.6v-4.1l8.2-14.6H596.2z M591.3,195l-5.3,9.9h5.3V195z"/>
			<path class="st12" d="M612.7,197.6c-0.4-2.6-1.4-3.8-3-3.8s-2.5,1.1-2.9,3.3c-0.3,1.6-0.4,3.2-0.4,4.8c1.2-2,2.4-2.7,4.4-2.7
				c1.2,0,2.4,0.4,3.4,1.1c1.8,1.3,2.8,3.6,2.8,6.5c0,4.9-2.9,7.9-7.6,7.9c-1.8,0.1-3.7-0.6-5-1.8c-2.1-2-3-5.2-3-10.4
				c0-4.6,0.7-7.4,2.4-9.8c1.4-1.8,3.6-2.9,5.8-2.8c1.4-0.1,2.8,0.3,4,1.1c1.7,1.1,2.5,2.5,3.1,5.3L612.7,197.6z M606.7,207
				c0,2.4,1,3.8,2.7,3.8s2.7-1.3,2.7-4.1c0-2.4-0.9-3.7-2.5-3.7C607.6,203,606.7,204.4,606.7,207L606.7,207z"/>
			<path class="st12" d="M628.6,196.4c0,4-1.7,6.2-4.7,6.2s-4.8-2.2-4.8-6.2s1.7-6.2,4.8-6.2S628.6,192.5,628.6,196.4z M622.5,196.4
				c0,2.6,0.4,3.5,1.3,3.5s1.3-0.9,1.3-3.5s-0.4-3.5-1.3-3.5S622.5,193.8,622.5,196.4z M637.2,190.3l-11.3,24h-2.7l11.3-24H637.2z
				 M641.1,208.3c0,3.9-1.7,6.2-4.8,6.2s-4.8-2.2-4.8-6.2s1.7-6.2,4.8-6.2S641.1,204.4,641.1,208.3L641.1,208.3z M635,208.3
				c0,2.6,0.4,3.5,1.3,3.5s1.3-0.9,1.3-3.5s-0.4-3.5-1.3-3.5S635,205.6,635,208.3L635,208.3z"/>
			<path class="st12" d="M573.3,340.3v3.9h-7.2v-3.9H573.3z"/>
			<path class="st12" d="M582.4,334.8c0.2-1.9,0.9-3.8,2.1-5.3c1.4-1.8,3.6-2.7,5.9-2.5c4.5,0,7.4,2.7,7.4,7c0,3.1-1.5,5.9-4.9,8.8
				c-1.6,1.4-3.4,2.7-5.2,3.9h10.4l-0.4,4.7h-15.4v-4.7c7.8-6.7,9.9-9.2,9.9-12.4c0-1.9-0.8-3-2.2-3c-1.7,0-2.5,1.4-2.8,4.5
				L582.4,334.8z"/>
			<path class="st12" d="M600.8,334.8c0.2-1.9,0.9-3.8,2.1-5.3c1.4-1.8,3.6-2.7,5.9-2.5c4.5,0,7.4,2.7,7.4,7c0,3.1-1.5,5.9-4.9,8.8
				c-1.6,1.4-3.4,2.7-5.2,3.9h10.4l-0.4,4.7h-15.4v-4.7c7.8-6.7,9.9-9.2,9.9-12.4c0-1.9-0.8-3-2.2-3c-1.7,0-2.5,1.4-2.8,4.5
				L600.8,334.8z"/>
			<path class="st12" d="M628.6,333.4c0,4-1.7,6.2-4.7,6.2s-4.8-2.2-4.8-6.2s1.7-6.2,4.8-6.2S628.6,329.5,628.6,333.4z M622.5,333.4
				c0,2.6,0.4,3.5,1.3,3.5s1.3-0.9,1.3-3.5s-0.4-3.5-1.3-3.5S622.5,330.8,622.5,333.4z M637.2,327.4l-11.3,24h-2.7l11.3-24H637.2z
				 M641.1,345.4c0,3.9-1.7,6.2-4.8,6.2s-4.8-2.2-4.8-6.2s1.7-6.2,4.8-6.2S641.1,341.4,641.1,345.4L641.1,345.4z M635,345.4
				c0,2.6,0.4,3.5,1.3,3.5s1.3-0.9,1.3-3.5s-0.4-3.5-1.3-3.5s-1.4,0.8-1.4,3.4L635,345.4z"/>
			<path class="st43" d="M697.5,268.3v-16h2v16H697.5z"/>
			<path class="st43" d="M711,268.3v-7.6c0-1.9-0.9-3-2.5-3c-1.9,0-3.3,1.7-3.3,4.1v6.5h-1.8v-11.8h1.7v2.2c1.2-1.9,2.2-2.5,3.8-2.5
				c1.4,0,2.8,0.8,3.4,2.1c0.4,1,0.5,2.1,0.4,3.2v6.8L711,268.3z"/>
			<path class="st43" d="M725.6,268.3h-1.7v-2c-0.6,1.5-2.1,2.4-3.7,2.4c-2.8,0-4.8-2.5-4.8-6.1s2-6.3,4.8-6.3
				c1.4,0,2.8,0.7,3.5,1.9v-5.8h1.8L725.6,268.3z M723.8,261.1c0-0.8-0.2-1.6-0.7-2.2c-0.6-0.8-1.5-1.2-2.5-1.2
				c-1.9,0-3.1,1.8-3.1,4.6c0,3.1,1.1,4.9,3,4.9c0.9,0,1.8-0.5,2.4-1.2c0.6-0.7,0.9-1.5,0.9-2.4L723.8,261.1z"/>
			<path class="st43" d="M738.8,265.1c-0.7,2.1-2.7,3.6-5,3.5c-3.2,0-5.4-2.5-5.4-6.2s2.3-6.3,5.5-6.3c1.9-0.1,3.7,1,4.5,2.7
				c0.5,1.1,0.7,2.4,0.7,3.6h-8.6c-0.1,0.9,0.1,1.9,0.5,2.8c0.6,1.1,1.7,1.8,3,1.8c0.9,0,1.8-0.4,2.5-1.1c0.3-0.4,0.6-0.8,0.7-1.3
				L738.8,265.1z M737,261.1c0-0.8-0.2-1.7-0.7-2.4c-0.5-0.8-1.5-1.3-2.4-1.3c-1,0-1.9,0.4-2.5,1.2c-0.5,0.7-0.8,1.5-0.8,2.4H737z"
				/>
			<path class="st43" d="M747.5,268.3l-3-4.8l-3.1,4.8h-1.8l4-6.1l-3.6-5.7h2.1l2.5,4l2.6-4h1.8l-3.5,5.3l4.1,6.5L747.5,268.3z"/>
			<path class="st43" d="M753.4,254.4h-2v-2h2V254.4z M753.3,268.4h-1.8v-11.9h1.8V268.4z"/>
			<path class="st43" d="M764.6,268.3v-7.6c0-1.9-0.9-3-2.5-3c-1.9,0-3.3,1.7-3.3,4.1v6.5H757v-11.8h1.7v2.2
				c1.2-1.9,2.2-2.5,3.8-2.5c1.4,0,2.8,0.8,3.4,2.1c0.4,1,0.5,2.1,0.4,3.2v6.8L764.6,268.3z"/>
			<path class="st43" d="M779.7,256.1c-1.6,0-2.1,0.3-2.3,1.4c0.7,0.8,1.1,1.8,1.1,2.9c0,2.3-1.9,3.9-4.5,3.9c-0.3,0-0.5,0-0.8-0.1
				c-0.3-0.1-0.5-0.1-0.8-0.1c-0.6,0-1.2,0.5-1.3,1.1c0,0.4,0.2,0.7,0.6,0.9c0.4,0.2,0.9,0.2,3.1,0.3c2.4,0.1,3.2,0.2,4,0.7
				c0.8,0.5,1.3,1.4,1.3,2.4c0,2.2-2,3.4-6,3.4c-3.5,0-5.4-1.1-5.4-3.1c0-1.1,0.7-2.1,1.8-2.4c-0.7-0.4-1.2-1.1-1.2-1.9
				c0-1,0.4-1.5,1.6-2.1c-1-0.7-1.6-1.9-1.5-3.1c0-2.3,1.9-4,4.5-4c0.8,0,1.7,0.2,2.4,0.5c0.1-0.6,0.3-1.1,0.8-1.5
				c0.4-0.4,0.9-0.5,2-0.5c0.2,0,0.3,0,0.5,0L779.7,256.1z M770.5,269.5c0,0.4,0.2,0.7,0.4,1c1,0.6,2.2,1,3.3,0.9
				c1,0,1.9-0.1,2.8-0.4c0.7-0.1,1.2-0.8,1.3-1.5c0-0.5-0.3-1-0.8-1.1c-0.6-0.3-0.8-0.3-2.9-0.3c-1.2,0-2.3-0.1-2.8-0.2
				C770.9,268.3,770.5,268.7,770.5,269.5z M771.4,260.2c0,1.5,1.2,2.6,2.6,2.6s2.6-1.2,2.6-2.6c0.1-1.4-1-2.6-2.5-2.7
				c0,0-0.1,0-0.1,0c-1.4-0.1-2.6,1-2.7,2.4C771.4,260,771.4,260.1,771.4,260.2z"/>
			<path class="st43" d="M793.1,268.5c-0.6,0.1-1.2,0.1-1.8,0.1c-2.2,0-3.4-1.2-3.4-3.6v-7.1h-2.1v-1.4h2.1l0.1-3l1.7-0.1v3.1h2.7
				v1.4h-2.7v7.4c-0.1,0.9,0.5,1.7,1.5,1.9c0.2,0,0.3,0,0.5,0c0.5,0,0.9,0,1.4-0.1L793.1,268.5z"/>
			<path class="st43" d="M804.5,262.5c0,3.5-2.3,6.1-5.5,6.1s-5.2-2.5-5.2-6.3s2.2-6.2,5.3-6.2S804.5,258.7,804.5,262.5z M796.7,259
				c-0.6,1-0.9,2.2-0.8,3.4c0,3,1.2,4.8,3.3,4.8s3.3-1.8,3.3-4.7c0.1-1.2-0.2-2.4-0.8-3.5c-0.6-0.8-1.5-1.3-2.5-1.3
				C798.2,257.7,797.3,258.2,796.7,259L796.7,259z"/>
			<path class="st43" d="M824.9,263.4c-0.2,1.3-0.8,2.4-1.6,3.4c-1.1,1.2-2.6,1.9-4.3,1.9c-1.7,0.1-3.3-0.7-4.4-1.9
				c-1.4-1.9-2.2-4.2-2.1-6.5c0-5,2.6-8.2,6.7-8.2c3,0,4.9,1.7,5.8,5.1l-1.9,0.4c-0.8-2.7-1.9-3.8-3.9-3.8c-2.8,0-4.4,2.5-4.4,6.7
				c0,4,1.7,6.5,4.4,6.5c1.2,0,2.3-0.5,3-1.5c0.5-0.8,0.9-1.6,1.1-2.5L824.9,263.4z"/>
			<path class="st43" d="M827.3,268.3v-16h5.7c1.2-0.1,2.4,0.3,3.4,1c1.1,0.9,1.8,2.3,1.8,3.8c0,2.6-2,4.7-4.6,4.7
				c-0.1,0-0.3,0-0.4,0h-3.9v6.5H827.3z M833,260.2c1.7,0,3.1-1.5,3-3.2c0-1.6-1.3-2.9-2.9-3h-3.8v6.2H833z"/>
			<path class="st43" d="M840.7,268.3v-16h2v16H840.7z"/>
			<path class="st44" d="M707,366.5l-3-6.9h-4.6v6.9h-1.9v-16h6.3c3,0,5.1,1.8,5.1,4.5c0,1.1-0.4,2.2-1.1,3c-0.5,0.6-1.1,1-1.9,1.1
				l3.1,7.4L707,366.5z M703.6,357.9c0.9,0.1,1.8-0.2,2.5-0.9c0.5-0.6,0.8-1.3,0.8-2.1c0-1.7-1.2-2.7-3.1-2.7h-4.4v5.7H703.6z"/>
			<path class="st44" d="M721.5,360.7c0,3.5-2.3,6.1-5.5,6.1s-5.2-2.5-5.2-6.3s2.2-6.2,5.3-6.2S721.5,356.8,721.5,360.7z
				 M713.7,357.1c-0.6,1-0.9,2.2-0.8,3.4c0,3,1.2,4.8,3.3,4.8s3.3-1.8,3.3-4.7c0.1-1.2-0.2-2.4-0.8-3.5c-0.6-0.8-1.5-1.3-2.5-1.3
				C715.1,355.9,714.2,356.3,713.7,357.1z"/>
			<path class="st44" d="M731.7,366.5c-0.1-0.7-0.2-1.4-0.2-2.1c-0.7,1.6-2.4,2.6-4.2,2.5c-2.5,0-4.1-1.5-4.1-3.6
				c0-1.4,0.8-2.6,2-3.2c1.5-0.7,3.1-1,4.8-0.9c0.4,0,0.8,0,1.5,0v-0.4c0-2.2-0.8-3-3.1-3c-1.8,0-2.8,0.7-3.2,2.2l-1.7-0.3
				c0.1-0.7,0.4-1.4,0.9-1.9c1.2-1.1,2.8-1.6,4.4-1.4c1.8,0,3,0.5,3.7,1.4c0.6,1,0.9,2.3,0.8,3.5v5c0,0.8,0.1,1.5,0.3,2.3
				L731.7,366.5z M729.9,360.5c-3.1,0-4.8,1-4.8,2.8c0,1.3,1,2.1,2.5,2.1c2.1,0,3.8-1.8,3.8-3.9c0,0,0-0.1,0-0.1c0-0.2,0-0.5,0-0.8
				L729.9,360.5z"/>
			<path class="st44" d="M746.2,366.5h-1.7v-2c-0.7,1.5-2.1,2.4-3.8,2.4c-2.8,0-4.8-2.5-4.8-6.1s2-6.3,4.8-6.3
				c1.4,0,2.8,0.7,3.5,1.9v-5.8h1.8L746.2,366.5z M744.4,359.2c0-0.8-0.2-1.6-0.7-2.2c-0.6-0.8-1.5-1.2-2.5-1.2
				c-1.9,0-3.1,1.8-3.1,4.6c0,3.1,1.1,4.9,3,4.9c0.9,0,1.8-0.5,2.4-1.2c0.6-0.7,0.9-1.5,0.9-2.4V359.2z"/>
			<path class="st44" d="M766.8,350.5v10.5c0.1,1.4-0.3,2.8-1.1,4c-1.1,1.3-2.8,2-4.5,1.9c-2.1,0-3.6-0.6-4.5-1.9
				c-0.8-1.2-1.1-2.6-1-4v-10.5h2v10.5c-0.1,1,0.1,2,0.7,2.9c1.7,1.6,4.3,1.6,5.9,0c0.6-0.8,0.9-1.9,0.8-2.9v-10.5H766.8z"/>
			<path class="st44" d="M770.5,363c0.1,0.5,0.4,1,0.8,1.3c0.8,0.6,1.9,0.9,2.9,0.9c1.7,0,2.8-0.8,2.8-1.9c0-1-0.7-1.6-2-1.8
				l-2.5-0.5c-2-0.4-3.2-1.6-3.2-3.3c0-2.1,1.8-3.5,4.5-3.5c2.5,0,4.1,1,4.7,3l-1.7,0.4c-0.5-1.2-1.7-2-3-1.9
				c-1.5,0-2.5,0.7-2.5,1.8c0,0.9,0.6,1.4,1.8,1.7l2.3,0.4c2.4,0.4,3.6,1.6,3.6,3.5c0,2.2-1.9,3.6-4.9,3.6c-1.5,0.1-2.9-0.4-4-1.3
				c-0.6-0.5-1.1-1.3-1.2-2.1L770.5,363z"/>
			<path class="st44" d="M789,366.5c-0.1-0.7-0.2-1.4-0.2-2.1c-0.7,1.6-2.4,2.6-4.2,2.5c-2.5,0-4.1-1.5-4.1-3.6c0-1.4,0.8-2.6,2-3.2
				c1.5-0.7,3.1-1,4.8-0.9c0.4,0,0.8,0,1.5,0v-0.4c0-2.2-0.8-3-3.1-3c-1.8,0-2.9,0.7-3.2,2.2l-1.7-0.3c0.1-0.7,0.4-1.4,0.9-1.9
				c1.2-1,2.8-1.6,4.4-1.4c1.8,0,3,0.5,3.7,1.4c0.6,1,0.9,2.3,0.8,3.5v5c0,0.8,0.1,1.5,0.3,2.3L789,366.5z M787.2,360.5
				c-3.1,0-4.8,1-4.8,2.8c0,1.3,1,2.1,2.5,2.1c2.1,0,3.9-1.8,3.8-4c0,0,0-0.1,0-0.1c0-0.3,0-0.5,0-0.8L787.2,360.5z"/>
			<path class="st44" d="M803.9,354.3c-1.6,0-2.1,0.3-2.3,1.4c0.7,0.8,1.1,1.8,1.1,2.9c0,2.3-1.9,3.9-4.5,3.9c-0.3,0-0.5,0-0.8-0.1
				c-0.3-0.1-0.5-0.1-0.8-0.1c-0.6,0-1.2,0.5-1.3,1.1c0,0.4,0.2,0.7,0.6,0.9c0.4,0.2,0.9,0.2,3.1,0.3c2.4,0.1,3.2,0.2,4,0.7
				c0.8,0.5,1.3,1.4,1.3,2.4c0,2.2-2,3.4-6,3.4c-3.5,0-5.4-1.1-5.4-3.1c0-1.1,0.7-2.1,1.8-2.4c-0.7-0.4-1.2-1.1-1.2-1.9
				c0-1,0.4-1.5,1.6-2.1c-1-0.7-1.6-1.9-1.5-3.1c0-2.3,1.9-4,4.5-4c0.8,0,1.7,0.2,2.4,0.5c0.1-0.6,0.3-1.1,0.8-1.5
				c0.4-0.4,0.9-0.5,2-0.5h0.5L803.9,354.3z M794.8,367.6c0,0.4,0.2,0.7,0.4,1c1,0.6,2.2,1,3.3,0.9c1,0,1.9-0.1,2.8-0.4
				c0.7-0.1,1.2-0.8,1.2-1.5c0-0.5-0.3-1-0.8-1.1c-0.6-0.3-0.8-0.3-2.9-0.3c-1.2,0-2.3-0.1-2.9-0.2
				C795.1,366.5,794.8,366.9,794.8,367.6z M795.6,358.4c0,1.5,1.2,2.7,2.6,2.7c1.5,0,2.7-1.2,2.7-2.6c0.1-1.4-1-2.6-2.5-2.7
				c0,0-0.1,0-0.1,0c-1.4-0.1-2.6,1-2.7,2.4C795.6,358.2,795.6,358.3,795.6,358.4L795.6,358.4z"/>
			<path class="st44" d="M815.5,363.3c-0.7,2.1-2.7,3.6-5,3.5c-3.2,0-5.4-2.5-5.4-6.2s2.3-6.3,5.5-6.3c1.9-0.1,3.7,1,4.5,2.7
				c0.5,1.1,0.7,2.4,0.7,3.6h-8.6c-0.1,0.9,0.1,1.9,0.5,2.8c0.6,1.1,1.7,1.8,3,1.8c0.9,0,1.8-0.4,2.5-1.1c0.3-0.4,0.6-0.8,0.7-1.3
				L815.5,363.3z M813.7,359.3c0-0.8-0.2-1.7-0.7-2.4c-0.5-0.8-1.5-1.3-2.4-1.3c-1,0-1.9,0.4-2.5,1.2c-0.5,0.7-0.8,1.5-0.8,2.4
				H813.7z"/>
			<path class="st44" d="M824.7,366.5v-16h9.8v1.8h-7.8v5.1h6.5v1.6h-6.5v7.6L824.7,366.5z"/>
			<path class="st44" d="M845.8,363.3c-0.7,2.1-2.7,3.6-5,3.5c-3.2,0-5.4-2.5-5.4-6.2s2.3-6.3,5.5-6.3c1.9-0.1,3.7,1,4.5,2.7
				c0.5,1.1,0.7,2.4,0.7,3.6h-8.6c-0.1,0.9,0.1,1.9,0.5,2.8c0.6,1.1,1.7,1.8,3,1.8c0.9,0,1.8-0.4,2.5-1.1c0.3-0.4,0.6-0.8,0.7-1.3
				L845.8,363.3z M844,359.3c0.1-0.8-0.2-1.7-0.7-2.4c-0.5-0.8-1.5-1.3-2.5-1.3c-1,0-1.9,0.4-2.5,1.2c-0.5,0.7-0.8,1.5-0.8,2.4H844z
				"/>
			<path class="st44" d="M858.3,363.3c-0.7,2.1-2.7,3.6-5,3.5c-3.2,0-5.4-2.5-5.4-6.2s2.3-6.3,5.5-6.3c1.9-0.1,3.6,1,4.5,2.7
				c0.5,1.1,0.7,2.4,0.7,3.6h-8.6c-0.1,0.9,0.1,1.9,0.5,2.8c0.6,1.1,1.7,1.8,3,1.8c0.9,0,1.8-0.4,2.5-1.1c0.3-0.4,0.6-0.8,0.7-1.3
				L858.3,363.3z M856.5,359.3c0.1-0.8-0.2-1.7-0.7-2.4c-0.5-0.8-1.5-1.3-2.5-1.3c-1,0-1.9,0.4-2.5,1.2c-0.5,0.7-0.8,1.5-0.8,2.4
				H856.5z"/>
			<path class="st44" d="M861.4,363c0.1,0.5,0.4,1,0.8,1.3c0.8,0.6,1.9,0.9,2.9,0.9c1.7,0,2.8-0.8,2.8-1.9c0-1-0.7-1.6-2-1.8
				l-2.5-0.5c-2-0.4-3.2-1.6-3.2-3.3c0-2.1,1.8-3.5,4.5-3.5c2.5,0,4.1,1,4.7,3l-1.7,0.4c-0.5-1.2-1.7-2-3-1.9
				c-1.5,0-2.5,0.7-2.5,1.8c0,0.9,0.6,1.4,1.8,1.7l2.3,0.4c2.4,0.4,3.6,1.6,3.6,3.5c0,2.2-2,3.6-4.9,3.6c-1.5,0.1-2.9-0.4-4-1.3
				c-0.6-0.5-1.1-1.3-1.2-2.1L861.4,363z"/>
			<path class="st12" d="M707.6,145v10.5c0.1,1.4-0.3,2.8-1.1,4c-1.1,1.3-2.8,2-4.5,1.9c-2.1,0-3.6-0.6-4.5-1.9
				c-0.8-1.2-1.1-2.6-1-4V145h2v10.5c-0.1,1,0.1,2,0.7,2.9c0.8,0.8,1.9,1.2,3,1.2c1.1,0.1,2.2-0.4,3-1.2c0.6-0.8,0.9-1.9,0.8-2.9
				V145H707.6z"/>
			<path class="st12" d="M716.5,161.2c-0.6,0.1-1.2,0.1-1.8,0.1c-2.2,0-3.4-1.2-3.4-3.6v-7.1h-2.1v-1.4h2.1l0.1-3l1.7-0.1v3.1h2.7
				v1.4h-2.7v7.4c-0.1,0.9,0.5,1.7,1.5,1.9c0.2,0,0.3,0,0.5,0c0.5,0,1,0,1.4-0.1L716.5,161.2z"/>
			<path class="st12" d="M726,161c-0.1-0.7-0.2-1.4-0.2-2.1c-0.7,1.6-2.4,2.6-4.2,2.4c-2.5,0-4.1-1.5-4.1-3.6c0-1.4,0.8-2.6,2-3.2
				c1.5-0.7,3.1-1,4.8-0.9c0.4,0,0.8,0,1.5,0.1v-0.4c0-2.2-0.8-3.1-3.1-3.1c-1.8,0-2.9,0.7-3.2,2.2l-1.7-0.3
				c0.1-0.7,0.4-1.4,0.9-1.9c1.2-1,2.8-1.6,4.4-1.4c1.8,0,3,0.5,3.7,1.4c0.6,1,0.9,2.3,0.8,3.5v5c0,0.8,0.1,1.5,0.3,2.3L726,161z
				 M724.2,155c-3.1,0-4.8,1-4.8,2.8c0,1.3,1,2.1,2.5,2.1c2.1,0,3.9-1.8,3.8-4c0,0,0-0.1,0-0.1c0-0.2,0-0.5,0-0.8L724.2,155z"/>
			<path class="st12" d="M738.7,161v-7.2c0.1-0.7,0-1.4-0.2-2.1c-0.4-0.8-1.2-1.3-2.1-1.3c-0.9,0-1.7,0.4-2.3,1.1
				c-0.7,0.9-1.1,2-1,3.1v6.4h-1.8v-16h1.8v6.4c1-1.8,2-2.5,3.6-2.5c1.2,0,2.4,0.5,3.1,1.6c0.6,0.9,0.7,1.5,0.7,3.4v7.2H738.7z"/>
			<path class="st12" d="M759.9,161h-9.4v-16h2v14.3h7.4L759.9,161z"/>
			<path class="st12" d="M771.5,157.9c-0.7,2.1-2.7,3.6-5,3.5c-3.2,0-5.4-2.5-5.4-6.2s2.3-6.3,5.5-6.3c1.9-0.1,3.6,1,4.5,2.7
				c0.5,1.1,0.7,2.4,0.7,3.6h-8.6c-0.1,0.9,0.1,1.9,0.5,2.8c0.6,1.1,1.7,1.8,3,1.8c0.9,0,1.8-0.4,2.5-1.1c0.3-0.4,0.6-0.8,0.7-1.3
				L771.5,157.9z M769.8,153.9c0.1-0.8-0.2-1.7-0.7-2.4c-0.5-0.8-1.5-1.3-2.5-1.3c-1,0-1.9,0.4-2.5,1.2c-0.5,0.7-0.8,1.5-0.8,2.4
				L769.8,153.9z"/>
			<path class="st12" d="M784.2,148.8c-1.6,0-2.1,0.3-2.3,1.4c0.7,0.8,1.1,1.8,1.1,2.9c0,2.3-1.9,3.9-4.5,3.9c-0.3,0-0.5,0-0.8-0.1
				c-0.4-0.1-0.7-0.1-0.8-0.1c-0.6,0-1.2,0.5-1.3,1.1c0,0.4,0.2,0.7,0.6,0.9c0.4,0.2,0.9,0.2,3.1,0.3c2.5,0.1,3.2,0.2,4,0.7
				c0.8,0.5,1.3,1.4,1.3,2.4c0,2.2-2,3.4-6,3.4c-3.5,0-5.4-1.1-5.4-3.1c0-1.1,0.7-2.1,1.8-2.4c-0.7-0.4-1.2-1.1-1.2-1.9
				c0-1,0.4-1.5,1.6-2.1c-1-0.7-1.6-1.9-1.5-3.1c0-2.3,1.9-4,4.5-4c0.8,0,1.7,0.2,2.4,0.6c0.1-0.6,0.3-1.1,0.7-1.5
				c0.4-0.4,0.9-0.5,2-0.5c0.2,0,0.3,0,0.5,0L784.2,148.8z M775,162.2c0,0.4,0.2,0.7,0.4,1c1,0.6,2.2,1,3.3,0.9c1,0,1.9-0.1,2.8-0.4
				c0.7-0.1,1.2-0.8,1.3-1.5c0-0.5-0.3-1-0.8-1.1c-0.6-0.3-0.8-0.3-2.8-0.3c-1.2,0-2.3-0.1-2.9-0.2C775.4,161,775,161.4,775,162.2z
				 M775.9,152.9c-0.1,1.4,1,2.5,2.3,2.6c0.1,0,0.2,0,0.3,0c1.4,0.1,2.6-1,2.6-2.3c0-0.1,0-0.1,0-0.2c0.1-1.4-1-2.6-2.5-2.7
				c-0.1,0-0.1,0-0.2,0c-1.4-0.1-2.6,1-2.7,2.4C775.9,152.8,775.9,152.9,775.9,152.9L775.9,152.9z"/>
			<path class="st12" d="M788.2,147.1h-2v-2h2V147.1z M788.1,161.1h-1.8v-11.9h1.8V161.1z"/>
			<path class="st12" d="M791.9,157.6c0.1,0.5,0.4,1,0.8,1.3c0.8,0.6,1.9,0.9,2.9,0.9c1.7,0,2.8-0.8,2.8-1.9c0-1-0.7-1.6-2-1.8
				l-2.5-0.5c-2-0.4-3.2-1.6-3.2-3.3c0-2.1,1.8-3.5,4.5-3.5c2.5,0,4.1,1,4.7,3l-1.7,0.4c-0.5-1.2-1.7-2-3-1.9
				c-1.5,0-2.5,0.7-2.5,1.8c0,0.9,0.6,1.4,1.8,1.7l2.3,0.4c2.4,0.4,3.6,1.6,3.6,3.5c0,2.2-1.9,3.6-4.9,3.6c-1.5,0.1-2.9-0.4-4-1.3
				c-0.6-0.5-1.1-1.3-1.2-2.1L791.9,157.6z"/>
			<path class="st12" d="M802.9,161v-16h1.8v16H802.9z"/>
			<path class="st12" d="M815.9,161c-0.1-0.7-0.2-1.4-0.2-2.1c-0.7,1.6-2.4,2.6-4.2,2.4c-2.5,0-4.1-1.5-4.1-3.6c0-1.4,0.8-2.6,2-3.2
				c1.5-0.7,3.1-1,4.8-0.9c0.4,0,0.8,0,1.5,0.1v-0.4c0-2.2-0.8-3.1-3.1-3.1c-1.8,0-2.9,0.7-3.2,2.2l-1.7-0.3
				c0.1-0.7,0.4-1.4,0.9-1.9c1.2-1,2.8-1.6,4.4-1.4c1.8,0,3,0.5,3.7,1.4c0.6,1,0.9,2.3,0.8,3.5v5c0,0.8,0.1,1.5,0.3,2.3L815.9,161z
				 M814.1,155c-3.1,0-4.8,1-4.8,2.8c0,1.3,1,2.1,2.5,2.1c2.1,0,3.9-1.8,3.8-4c0,0,0-0.1,0-0.1c0-0.3,0-0.5,0-0.8L814.1,155z"/>
			<path class="st12" d="M826.5,161.2c-0.6,0.1-1.2,0.1-1.8,0.1c-2.2,0-3.4-1.2-3.4-3.6v-7.1h-2.1v-1.4h2.1l0.1-3l1.7-0.1v3.1h2.7
				v1.4h-2.7v7.4c-0.1,0.9,0.5,1.7,1.5,1.9c0.2,0,0.3,0,0.5,0c0.5,0,0.9,0,1.4-0.1L826.5,161.2z"/>
			<path class="st12" d="M830.5,147.1h-2v-2h2V147.1z M830.4,161.1h-1.8v-11.9h1.8V161.1z"/>
			<path class="st12" d="M838.7,161h-1.9l-4.2-11.8h2l3.3,9.6l3.3-9.6h1.6L838.7,161z"/>
			<path class="st12" d="M854,157.9c-0.7,2.1-2.7,3.6-5,3.5c-3.2,0-5.4-2.5-5.4-6.2s2.3-6.3,5.5-6.3c1.9-0.1,3.7,1,4.5,2.7
				c0.5,1.1,0.7,2.4,0.7,3.6h-8.6c-0.1,0.9,0.1,1.9,0.5,2.8c0.6,1.1,1.7,1.8,3,1.8c0.9,0,1.8-0.4,2.5-1.1c0.3-0.4,0.6-0.8,0.7-1.3
				L854,157.9z M852.2,153.9c0-0.8-0.2-1.7-0.7-2.4c-0.5-0.8-1.5-1.3-2.4-1.3c-1,0-1.9,0.4-2.5,1.2c-0.5,0.7-0.8,1.5-0.8,2.4
				L852.2,153.9z"/>
			<polygon class="st45" points="694.8,163 748.1,163 801.5,163 854.8,163 854.8,164 801.5,164 748.1,164 694.8,164 			"/>
			<path class="st12" d="M708.2,185.1c-0.2,1.3-0.8,2.4-1.6,3.4c-1.1,1.2-2.7,1.9-4.3,1.9c-1.7,0.1-3.3-0.7-4.4-1.9
				c-1.4-1.9-2.2-4.2-2.1-6.5c0-4.9,2.6-8.2,6.7-8.2c3,0,4.9,1.7,5.8,5.1l-1.9,0.4c-0.8-2.7-1.9-3.8-3.9-3.8c-2.8,0-4.4,2.5-4.4,6.7
				c0,4,1.7,6.6,4.4,6.6c1.2,0,2.2-0.5,3-1.5c0.5-0.8,0.9-1.6,1.1-2.5L708.2,185.1z"/>
			<path class="st12" d="M720.2,184.3c0,3.6-2.3,6.1-5.5,6.1s-5.2-2.5-5.2-6.3s2.2-6.2,5.4-6.2S720.2,180.4,720.2,184.3z
				 M712.4,180.7c-0.6,1-0.9,2.2-0.8,3.4c0,3.1,1.2,4.8,3.3,4.8s3.3-1.8,3.3-4.7c0.1-1.2-0.2-2.4-0.8-3.5c-0.6-0.8-1.5-1.3-2.5-1.3
				C713.9,179.5,713,179.9,712.4,180.7z"/>
			<path class="st12" d="M730.7,190.1v-2.3c-0.6,1.5-2.1,2.6-3.8,2.6c-2.4,0-3.9-1.7-3.9-4.6v-7.6h1.8v7.6c-0.1,0.8,0.1,1.6,0.6,2.3
				c0.4,0.5,1.1,0.8,1.7,0.8c1.8,0,3.3-1.8,3.3-4v-6.7h1.8V190L730.7,190.1z"/>
			<path class="st12" d="M743.6,190.1v-7.6c0-1.9-0.9-2.9-2.5-2.9c-1.9,0-3.3,1.7-3.3,4.1v6.5H736v-11.8h1.7v2.2
				c1.2-1.9,2.2-2.5,3.8-2.5c1.4,0,2.8,0.8,3.4,2.1c0.4,1,0.5,2.1,0.4,3.2v6.8L743.6,190.1z"/>
			<path class="st12" d="M754.3,190.3c-0.6,0.1-1.2,0.1-1.8,0.1c-2.2,0-3.4-1.2-3.4-3.6v-7.1h-2.1v-1.4h2.1l0.1-3l1.7-0.1v3.1h2.7
				v1.4H751v7.4c-0.1,0.9,0.5,1.7,1.5,1.9c0.2,0,0.3,0,0.5,0c0.5,0,0.9,0,1.4-0.1L754.3,190.3z"/>
			<path class="st12" d="M765.5,186.9c-0.7,2.1-2.7,3.6-5,3.5c-3.2,0-5.4-2.5-5.4-6.2s2.3-6.3,5.5-6.3c1.9-0.1,3.6,1,4.5,2.7
				c0.5,1.1,0.7,2.4,0.7,3.6h-8.6c-0.1,0.9,0.1,1.9,0.5,2.8c0.6,1.1,1.7,1.8,3,1.8c0.9,0,1.8-0.4,2.5-1.1c0.3-0.4,0.6-0.8,0.7-1.3
				L765.5,186.9z M763.7,182.9c0.1-0.8-0.2-1.7-0.7-2.4c-0.5-0.8-1.5-1.3-2.5-1.3c-1,0-1.9,0.4-2.5,1.2c-0.5,0.7-0.8,1.5-0.8,2.4
				L763.7,182.9z"/>
			<path class="st12" d="M768.5,190.1v-11.8h1.6v2.8c0.3-0.7,0.7-1.4,1.2-2.1c0.6-0.7,1.4-1,2.3-1c0.1,0,0.4,0,0.7,0.1v1.8
				c-2.2-0.2-3.9,1.6-4,4.1v6.3L768.5,190.1z"/>
			<path class="st12" d="M790.4,190.1v-7.3c0.1-0.7,0-1.5-0.4-2.2c-0.4-0.7-1.1-1.1-1.9-1.1c-0.8,0-1.6,0.4-2.1,1
				c-0.7,0.8-1,1.8-0.9,2.9v6.7h-1.8v-7.8c0.1-0.7-0.1-1.4-0.5-2c-0.4-0.5-1.1-0.9-1.8-0.9c-1.6,0-2.9,1.6-2.9,3.6v7.1h-1.8v-11.8
				h1.6v2.3c0.6-1.5,2-2.6,3.7-2.6c1.7,0,3.1,1.2,3.3,2.8c0.5-1.6,2-2.8,3.8-2.8c1.2,0,2.4,0.6,3,1.7c0.4,0.7,0.5,1.4,0.5,3.1v7.3
				L790.4,190.1z"/>
			<path class="st12" d="M805.3,186.9c-0.7,2.2-2.7,3.6-5,3.5c-3.2,0-5.4-2.5-5.4-6.2s2.3-6.3,5.5-6.3c1.9-0.1,3.6,1,4.5,2.7
				c0.5,1.1,0.7,2.4,0.7,3.6H797c-0.1,0.9,0.1,1.9,0.5,2.8c0.6,1.1,1.7,1.8,3,1.8c0.9,0,1.8-0.4,2.5-1.1c0.3-0.4,0.6-0.8,0.7-1.3
				L805.3,186.9z M803.5,182.9c0.1-0.8-0.2-1.7-0.7-2.4c-0.5-0.8-1.5-1.3-2.5-1.3c-1,0-1.9,0.4-2.5,1.2c-0.6,0.7-0.9,1.6-0.9,2.5
				L803.5,182.9z"/>
			<path class="st12" d="M815.8,190.1c-0.1-0.7-0.2-1.4-0.2-2.1c-0.7,1.6-2.4,2.6-4.2,2.4c-2.5,0-4.1-1.5-4.1-3.6
				c0-1.4,0.8-2.6,2-3.2c1.5-0.7,3.1-1,4.8-0.9c0.4,0,0.8,0,1.5,0v-0.4c0-2.2-0.8-3-3.1-3c-1.8,0-2.9,0.7-3.2,2.2l-1.7-0.3
				c0.1-0.7,0.4-1.4,0.9-1.9c1.2-1,2.8-1.6,4.4-1.4c1.8,0,3,0.5,3.7,1.4c0.6,1,0.9,2.3,0.8,3.5v5c0,0.8,0.1,1.5,0.3,2.3L815.8,190.1
				z M814,184.1c-3.1,0-4.8,1-4.8,2.8c0,1.3,1,2.1,2.5,2.1c2.1,0,3.9-1.8,3.8-4c0,0,0-0.1,0-0.1c0-0.3,0-0.5,0-0.8L814,184.1z"/>
			<path class="st12" d="M821.2,186.6c0.1,0.5,0.4,1,0.8,1.4c0.8,0.6,1.9,0.9,2.9,0.9c1.7,0,2.8-0.8,2.8-1.9c0-1-0.7-1.6-2-1.8
				l-2.5-0.5c-2-0.4-3.2-1.6-3.2-3.3c0-2.1,1.8-3.5,4.5-3.5c2.5,0,4.1,1,4.7,3l-1.7,0.4c-0.5-1.2-1.7-2-3-1.9
				c-1.5,0-2.5,0.7-2.5,1.8c0,0.9,0.6,1.4,1.8,1.7l2.3,0.4c2.4,0.4,3.6,1.6,3.6,3.5c0,2.2-1.9,3.6-4.9,3.6c-1.5,0.1-2.9-0.4-4-1.3
				c-0.6-0.5-1.1-1.3-1.2-2.1L821.2,186.6z"/>
			<path class="st12" d="M839.8,190.1v-2.3c-0.6,1.5-2.1,2.6-3.8,2.6c-2.4,0-3.9-1.7-3.9-4.6v-7.6h1.8v7.6c-0.1,0.8,0.1,1.6,0.6,2.3
				c0.4,0.5,1.1,0.8,1.7,0.8c1.8,0,3.3-1.8,3.3-4v-6.7h1.8V190L839.8,190.1z"/>
			<path class="st12" d="M845.2,190.1v-11.8h1.6v2.8c0.3-0.7,0.7-1.4,1.2-2.1c0.6-0.6,1.4-1,2.3-1c0.2,0,0.4,0,0.7,0.1v1.8
				c-2.2-0.2-3.9,1.6-4,4.1v6.3L845.2,190.1z"/>
			<path class="st12" d="M862.6,186.9c-0.7,2.1-2.7,3.6-5,3.5c-3.2,0-5.4-2.5-5.4-6.2s2.3-6.3,5.5-6.3c1.9-0.1,3.7,1,4.5,2.7
				c0.5,1.1,0.7,2.4,0.7,3.6h-8.6c-0.1,0.9,0.1,1.9,0.5,2.8c0.6,1.1,1.7,1.8,3,1.8c0.9,0,1.8-0.4,2.5-1.1c0.3-0.4,0.6-0.8,0.7-1.3
				L862.6,186.9z M860.8,182.9c0-0.8-0.2-1.7-0.7-2.4c-0.5-0.8-1.5-1.3-2.5-1.3c-1,0-1.9,0.4-2.5,1.2c-0.5,0.7-0.8,1.5-0.8,2.4
				L860.8,182.9z"/>
			<path class="st12" d="M865.7,186.6c0.1,0.5,0.4,1,0.8,1.3c0.8,0.6,1.9,0.9,2.9,0.9c1.7,0,2.8-0.8,2.8-1.9c0-1-0.7-1.6-2-1.8
				l-2.5-0.5c-2-0.4-3.2-1.6-3.2-3.3c0-2.1,1.8-3.5,4.5-3.5c2.5,0,4.1,1,4.7,3l-1.7,0.4c-0.5-1.2-1.7-2-3-1.9
				c-1.5,0-2.5,0.7-2.5,1.8c0,0.9,0.6,1.4,1.8,1.7l2.3,0.4c2.4,0.4,3.6,1.6,3.6,3.5c0,2.2-1.9,3.6-4.9,3.6c-1.5,0.1-2.9-0.4-4-1.3
				c-0.6-0.5-1.1-1.3-1.2-2.1L865.7,186.6z"/>
			<path class="st12" d="M879.1,180.9h-2.6v-2.6h2.6V180.9z M879.1,190.1h-2.6v-2.6h2.6V190.1z"/>
		</g>
	</g>
</g>
</svg>
