<svg id="Layer_1" data-name="Layer 1" xmlns="http://www.w3.org/2000/svg" viewBox="0 0 504 504"><defs><style>.cls-1{fill:#7c97be;opacity:0;}.cls-2,.cls-4,.cls-7{fill:#44923b;}.cls-2{opacity:0.25;}.cls-3,.cls-6{fill:#172b46;}.cls-5{fill:#fff;}.cls-6,.cls-7{fill-rule:evenodd;}</style></defs><title>rucutah-advisory_committee</title><path class="cls-1" d="M100.19,215.16A158,158,0,0,1,250.5,106v14.67a143.39,143.39,0,0,0-136.36,99.07Z"/><path class="cls-1" d="M157.6,391.86a158,158,0,0,1-57.41-176.7l14,4.53A143.37,143.37,0,0,0,166.23,380Z"/><path class="cls-1" d="M343.4,391.86a158.07,158.07,0,0,1-185.8,0L166.23,380a143.36,143.36,0,0,0,168.54,0Z"/><path class="cls-1" d="M400.81,215.16a158,158,0,0,1-57.41,176.7L334.77,380a143.39,143.39,0,0,0,52.09-160.3Z"/><path class="cls-1" d="M250.5,106A158,158,0,0,1,400.81,215.16l-13.95,4.53A143.39,143.39,0,0,0,250.5,120.62Z"/><polygon class="cls-2" points="134.76 264 164.44 252.67 138.71 234.04 170.3 230.78 150.27 206.13 181.63 211.15 168.66 182.16 197.66 195.13 192.63 163.76 217.28 183.8 220.54 152.2 239.17 177.94 250.5 148.26 261.83 177.94 280.45 152.2 283.72 183.8 308.37 163.76 303.34 195.13 332.34 182.16 319.37 211.15 350.73 206.13 330.7 230.78 362.3 234.04 336.56 252.67 366.24 264 336.56 275.33 362.3 293.95 330.7 297.22 350.73 321.87 319.37 316.84 332.34 345.84 303.34 332.86 308.37 364.23 283.72 344.19 280.45 375.79 261.83 350.06 250.5 379.74 239.17 350.06 220.54 375.79 217.28 344.19 192.63 364.23 197.66 332.86 168.66 345.84 181.63 316.84 150.27 321.87 170.3 297.22 138.71 293.95 164.44 275.33 134.76 264"/><path class="cls-3" d="M213.49,268.84l5.32,18.68h-4.2l-.92-3.84h-5.27l-.89,3.84h-3.78l5.6-18.68Zm-2.46,4-1.82,7.61h3.69Z"/><path class="cls-3" d="M230.57,268.84v18.68H227v-2.3c-.72,1.85-1.54,2.5-3.16,2.5-2.8,0-4.4-2.58-4.4-7.09s1.68-7.11,4.57-7.11a2.86,2.86,0,0,1,2.77,1.48v-6.16Zm-3.78,10.67a5.83,5.83,0,0,0-.34-2.52,1.38,1.38,0,0,0-1.34-.92c-1.2,0-1.68,1.12-1.68,3.89a17,17,0,0,0,.17,3.39c.19,1.12.67,1.68,1.48,1.68,1.21,0,1.71-.93,1.71-3.08Z"/><path class="cls-3" d="M235.36,273.72l1.9,8.14,1.93-8.14h3.2l-3.79,13.8h-3l-3.89-13.8Z"/><path class="cls-3" d="M243.36,272.57v-3.81h3.92v3.81Zm3.87,1.15v13.8h-3.84v-13.8Z"/><path class="cls-3" d="M256.44,277.86c-.45-1.34-1-1.88-2-1.88a1.14,1.14,0,0,0-1.2,1.21c0,.89.39,1.2,2.3,1.87a7.61,7.61,0,0,1,2.8,1.35,3.63,3.63,0,0,1,1.28,2.88c0,2.69-2.12,4.51-5.23,4.51a5.69,5.69,0,0,1-3.92-1.32,4.19,4.19,0,0,1-1.26-2.77l3.05-.5c.31,1.4,1,2,2.21,2,1,0,1.51-.47,1.51-1.29s-.39-1.23-2.21-1.79c-2.91-.95-4.14-2.24-4.14-4.34,0-2.6,2-4.39,4.9-4.39a4.76,4.76,0,0,1,3.3,1.2,4.35,4.35,0,0,1,1.37,2.38Z"/><path class="cls-3" d="M272.18,280.63c0,4.76-1.88,7.17-5.6,7.17s-5.63-2.41-5.63-7.14,1.85-7.22,5.68-7.22C270.3,273.44,272.18,275.87,272.18,280.63Zm-7.26,0c0,3.39.42,4.51,1.66,4.51s1.62-1.12,1.62-4.48-.42-4.51-1.6-4.51S264.92,277.24,264.92,280.6Z"/><path class="cls-3" d="M277.8,273.72v3.33c.7-2.47,1.68-3.53,3.25-3.53a3.65,3.65,0,0,1,.67.08v3.76c-.25,0-.53-.06-.64-.06-1.93,0-2.83,1.37-2.83,4.26v6h-3.83v-13.8Z"/><path class="cls-3" d="M286.09,273.72l1.88,8.42,1.79-8.42h3.33l-4.17,14c-.67,2.33-1,3-1.65,3.67a3.78,3.78,0,0,1-2.8,1,6.42,6.42,0,0,1-1.65-.22v-3a8.09,8.09,0,0,0,1.12.09c1.45,0,1.79-.28,2.29-2l-4-13.55Z"/><path class="cls-3" d="M207,309.77c-.34,4.23-2.8,6.83-6.53,6.83-4.48,0-7-3.5-7-9.6s2.55-9.64,7.09-9.64a5.69,5.69,0,0,1,5.18,2.72,9.25,9.25,0,0,1,1.2,4.51l-3.75.28a6.25,6.25,0,0,0-.59-2.91,2.21,2.21,0,0,0-2-1.26c-2,0-2.8,1.93-2.8,6.6,0,4.23.81,6,2.8,6,1.48,0,2.32-1.18,2.63-3.75Z"/><path class="cls-3" d="M219.72,309.43c0,4.76-1.88,7.17-5.6,7.17s-5.63-2.41-5.63-7.14,1.85-7.22,5.69-7.22C217.84,302.24,219.72,304.67,219.72,309.43Zm-7.25,0c0,3.39.42,4.51,1.65,4.51s1.62-1.12,1.62-4.48-.42-4.51-1.59-4.51S212.47,306,212.47,309.4Z"/><path class="cls-3" d="M225.63,302.52v1.87a3.25,3.25,0,0,1,3.33-2.15,2.61,2.61,0,0,1,3,2.15,3.33,3.33,0,0,1,3.41-2.15,3.22,3.22,0,0,1,3.06,1.48c.36.7.47,1.51.47,3.58v9H235V307.7c0-2.08-.2-2.47-1.24-2.47s-1.42.59-1.42,3v8h-3.84v-8.74c0-1.45,0-1.51-.14-1.76a1.06,1.06,0,0,0-1.09-.59c-1.21,0-1.51.65-1.51,3v8H222v-13.8Z"/><path class="cls-3" d="M245.17,302.52v1.87a3.25,3.25,0,0,1,3.33-2.15,2.61,2.61,0,0,1,3,2.15,3.34,3.34,0,0,1,3.42-2.15,3.21,3.21,0,0,1,3.05,1.48c.36.7.48,1.51.48,3.58v9h-3.84V307.7c0-2.08-.2-2.47-1.23-2.47s-1.43.59-1.43,3v8h-3.84v-8.74c0-1.45,0-1.51-.14-1.76a1.05,1.05,0,0,0-1.09-.59c-1.2,0-1.51.65-1.51,3v8H241.5v-13.8Z"/><path class="cls-3" d="M261,301.37v-3.81h3.92v3.81Zm3.87,1.15v13.8H261v-13.8Z"/><path class="cls-3" d="M272,298.15v4.37h2.52v3H272v5.07c0,1.85,0,2.07.34,2.41a1.71,1.71,0,0,0,1.34.39c.34,0,.42,0,1,0v2.94a9.68,9.68,0,0,1-2.32.28,3.9,3.9,0,0,1-3.53-1.54c-.51-.81-.62-1.46-.62-4v-5.49h-1.54v-3h1.74l.31-4.09Z"/><path class="cls-3" d="M280.62,298.15v4.37h2.52v3h-2.52v5.07c0,1.85,0,2.07.34,2.41a1.71,1.71,0,0,0,1.34.39c.33,0,.42,0,1,0v2.94a9.56,9.56,0,0,1-2.32.28,3.91,3.91,0,0,1-3.53-1.54c-.5-.81-.61-1.46-.61-4v-5.49h-1.54v-3h1.73l.31-4.09Z"/><path class="cls-3" d="M288.29,310.05v.73c0,2.21.53,3.13,1.85,3.13s1.76-.67,2-2.35l3.44.22a6.12,6.12,0,0,1-1.45,3.22,5.06,5.06,0,0,1-4,1.6c-3.63,0-5.74-2.55-5.74-7,0-4.62,2.13-7.36,5.74-7.36a5,5,0,0,1,4.49,2.52c.78,1.45,1,2.6,1,5.29Zm3.61-2.21a5.05,5.05,0,0,0-.28-2.08,1.63,1.63,0,0,0-1.51-1c-1.2,0-1.73.9-1.79,3.06Z"/><path class="cls-3" d="M301.17,310.05v.73c0,2.21.53,3.13,1.85,3.13s1.76-.67,2-2.35l3.44.22A6.12,6.12,0,0,1,307,315a5.06,5.06,0,0,1-4,1.6c-3.64,0-5.74-2.55-5.74-7,0-4.62,2.13-7.36,5.74-7.36a5,5,0,0,1,4.49,2.52c.78,1.45,1,2.6,1,5.29Zm3.61-2.21a5.05,5.05,0,0,0-.28-2.08,1.63,1.63,0,0,0-1.51-1c-1.2,0-1.74.9-1.79,3.06Z"/><rect class="cls-4" x="178.52" y="73.63" width="143.97" height="71.98"/><path class="cls-5" d="M197.91,95.64a4.34,4.34,0,0,1,2.74.53,3.85,3.85,0,0,1,0,5.65,4.31,4.31,0,0,1-2.66.56h-.83v3.94h-2.34V95.64Zm-.72,4.9h.72c1.09,0,1.51-.45,1.51-1.62a1.72,1.72,0,0,0-.44-1.26c-.22-.22-.49-.29-1.07-.29h-.72Z"/><path class="cls-5" d="M208.7,102.38c0,2.72-1.08,4.1-3.21,4.1s-3.21-1.38-3.21-4.08,1.05-4.13,3.25-4.13S208.7,99.66,208.7,102.38Zm-4.15,0c0,1.93.24,2.57.94,2.57s.93-.64.93-2.56-.24-2.57-.91-2.57S204.55,100.45,204.55,102.37Z"/><path class="cls-5" d="M212.17,95.64v10.68H210V95.64Z"/><path class="cls-5" d="M213.77,97.77V95.6H216v2.17Zm2.2.66v7.89h-2.19V98.43Z"/><path class="cls-5" d="M221.45,101.41c-.07-1.08-.31-1.48-.87-1.48-.75,0-1.1.74-1.1,2.36s.32,2.41,1.07,2.41c.58,0,.83-.41.9-1.45l2.06.12c-.24,2.1-1.25,3.11-3.1,3.11-2,0-3.14-1.42-3.14-4.11s1.15-4.1,3.26-4.1a2.72,2.72,0,0,1,2.12.8,3.21,3.21,0,0,1,.86,2.26Z"/><path class="cls-5" d="M225.86,98.43l1.07,4.82,1-4.82h1.9l-2.38,8a4.3,4.3,0,0,1-.95,2.09,2.12,2.12,0,0,1-1.6.58A3.36,3.36,0,0,1,224,109v-1.73a3.89,3.89,0,0,0,.64,0c.83,0,1-.16,1.31-1.13l-2.27-7.75Z"/><path class="cls-5" d="M232.05,104v2.15l-1.31,2.75h-.86l1-2.53h-1V104Z"/><path class="cls-5" d="M239.35,95.64v8.68h3.44v2H237V95.64Z"/><path class="cls-5" d="M245.57,102.73v.42c0,1.27.31,1.79,1.06,1.79s1-.38,1.12-1.34l2,.13a3.54,3.54,0,0,1-.83,1.84,2.93,2.93,0,0,1-2.31.91c-2.08,0-3.28-1.46-3.28-4s1.22-4.21,3.28-4.21a2.83,2.83,0,0,1,2.56,1.44,5.67,5.67,0,0,1,.58,3Zm2.07-1.26a2.9,2.9,0,0,0-.16-1.18.92.92,0,0,0-.87-.56c-.68,0-1,.51-1,1.74Z"/><path class="cls-5" d="M257.7,98.56a2.06,2.06,0,0,0-.48,0,.77.77,0,0,0-.83.7,2.28,2.28,0,0,1,.59,1.57c0,1.41-1.15,2.37-2.85,2.37a4.1,4.1,0,0,1-1-.13c-.33.19-.51.4-.51.66a.41.41,0,0,0,.3.38,5.22,5.22,0,0,0,1.57.16c1.54.1,1.92.2,2.4.56a2,2,0,0,1,.76,1.68c0,1.76-1.3,2.64-3.88,2.64-2.11,0-3.21-.64-3.21-1.87,0-.72.36-1.15,1.28-1.47a1.48,1.48,0,0,1-1-1.38,1.69,1.69,0,0,1,.56-1.18,3.68,3.68,0,0,1,.8-.55,2,2,0,0,1-1.17-2c0-1.5,1.11-2.4,2.95-2.4a3.84,3.84,0,0,1,1.7.35c.16-1.17.52-1.57,1.48-1.57a2,2,0,0,1,.61.08Zm-5.37,8.37c0,.54.54.8,1.76.8s1.61-.24,1.61-.83a.7.7,0,0,0-.32-.63c-.24-.13-.37-.16-1.37-.21a9.34,9.34,0,0,1-1-.08A1,1,0,0,0,252.33,106.93Zm.91-6.15c0,.8.24,1.19.77,1.19s.7-.34.7-1.25-.21-1.27-.69-1.27S253.24,99.82,253.24,100.78Z"/><path class="cls-5" d="M258.32,97.77V95.6h2.25v2.17Zm2.21.66v7.89h-2.19V98.43Z"/><path class="cls-5" d="M265.8,100.8c-.26-.77-.59-1.07-1.16-1.07a.64.64,0,0,0-.68.68c0,.52.22.69,1.31,1.08a4.31,4.31,0,0,1,1.6.76,2.09,2.09,0,0,1,.74,1.65c0,1.54-1.22,2.58-3,2.58a3.25,3.25,0,0,1-2.24-.75,2.47,2.47,0,0,1-.72-1.59l1.75-.29c.17.81.57,1.17,1.26,1.17s.87-.27.87-.73-.23-.71-1.27-1c-1.66-.54-2.37-1.28-2.37-2.48a2.54,2.54,0,0,1,2.8-2.51,2.69,2.69,0,0,1,1.89.69,2.59,2.59,0,0,1,.79,1.36Z"/><path class="cls-5" d="M270.9,95.64v10.68h-2.19V95.64Z"/><path class="cls-5" d="M272.56,100.73c.23-1.6,1.36-2.46,3.19-2.46a3,3,0,0,1,2.3.85c.39.4.5,1,.5,2.3v3.14a5.55,5.55,0,0,0,.13,1.76h-2a3,3,0,0,1-.12-1.2,2.93,2.93,0,0,1-.59.8,2.39,2.39,0,0,1-1.57.56,2,2,0,0,1-2.08-2.16,2.43,2.43,0,0,1,1.51-2.4,8.4,8.4,0,0,1,2.56-.5v-.3c0-1.07-.19-1.39-.79-1.39s-.85.33-.93,1.2Zm3.8,1.81c-1.36.16-1.8.53-1.8,1.49,0,.64.26,1,.74,1a.88.88,0,0,0,.75-.49,2.77,2.77,0,0,0,.31-1.6Z"/><path class="cls-5" d="M282.63,95.93v2.5h1.44v1.73h-1.44v2.89c0,1.06,0,1.19.19,1.38a1,1,0,0,0,.77.23l.59,0v1.68a5.26,5.26,0,0,1-1.33.16,2.2,2.2,0,0,1-2-.88c-.29-.46-.36-.83-.36-2.31v-3.13h-.88V98.43h1l.17-2.34Z"/><path class="cls-5" d="M285,97.77V95.6h2.24v2.17Zm2.21.66v7.89h-2.19V98.43Z"/><path class="cls-5" d="M295,102.38c0,2.72-1.08,4.1-3.21,4.1s-3.21-1.38-3.21-4.08,1.05-4.13,3.25-4.13S295,99.66,295,102.38Zm-4.15,0c0,1.93.24,2.57.94,2.57s.93-.64.93-2.56-.24-2.57-.91-2.57S290.82,100.45,290.82,102.37Z"/><path class="cls-5" d="M298.34,98.43V99.5a2.2,2.2,0,0,1,3.75-.33,3.81,3.81,0,0,1,.28,2v5.17h-2.19v-5.17c0-.91-.18-1.17-.77-1.17a.81.81,0,0,0-.89.59,3.87,3.87,0,0,0-.08,1.12v4.63h-2.2V98.43Z"/><path class="cls-5" d="M306.2,104v2.15l-1.32,2.75H304l1-2.53h-1V104Z"/><path class="cls-5" d="M218,116.61a10.06,10.06,0,0,1-1.46,3.41,1.59,1.59,0,0,0,1.09.59l.37,0v1.82a3.37,3.37,0,0,1-.82.11,2.59,2.59,0,0,1-2.06-1,4.2,4.2,0,0,1-2.9,1.06,3.55,3.55,0,0,1-2.48-.83,3.36,3.36,0,0,1-.93-2.32c0-1.38.8-2.39,2.43-3.08a4.18,4.18,0,0,1-1-2.38,2.59,2.59,0,0,1,2.82-2.39,2.54,2.54,0,0,1,2.73,2.55,2.86,2.86,0,0,1-1.85,2.58l1.49,2a7.71,7.71,0,0,0,.81-2.34Zm-5.88,1a1.92,1.92,0,0,0-1.09,1.69,1.43,1.43,0,0,0,1.54,1.54,2,2,0,0,0,1.49-.63ZM214,114a.8.8,0,0,0-.83-.9.77.77,0,0,0-.83.82,2.71,2.71,0,0,0,.7,1.53A1.62,1.62,0,0,0,214,114Z"/><path class="cls-5" d="M229.89,116.7v5.7h-1l-.31-1.22a2.84,2.84,0,0,1-2.59,1.38c-2.43,0-4-2-4-5.36,0-2.16.6-3.86,1.69-4.8a3.63,3.63,0,0,1,2.48-.84c2.24,0,3.34,1.11,3.68,3.65l-2.12.35a3.65,3.65,0,0,0-.36-1.4,1.29,1.29,0,0,0-1.17-.69c-1.17,0-1.73,1.15-1.73,3.63s.54,3.56,1.81,3.56a1.31,1.31,0,0,0,1.26-.87,3.56,3.56,0,0,0,.19-1.25h-1.6V116.7Z"/><path class="cls-5" d="M237.6,118.46c0,2.72-1.07,4.1-3.2,4.1s-3.22-1.38-3.22-4.08,1.06-4.13,3.25-4.13S237.6,115.74,237.6,118.46Zm-4.15,0c0,1.93.24,2.57,1,2.57s.93-.64.93-2.56-.24-2.57-.92-2.57S233.45,116.53,233.45,118.45Z"/><path class="cls-5" d="M239.73,114.51l1.08,4.66,1.11-4.66h1.82l-2.16,7.89h-1.74l-2.23-7.89Z"/><path class="cls-5" d="M246,118.81v.42c0,1.27.31,1.79,1.06,1.79s1-.38,1.12-1.34l2,.13a3.54,3.54,0,0,1-.83,1.84,2.91,2.91,0,0,1-2.31.91c-2.08,0-3.28-1.46-3.28-4s1.22-4.21,3.28-4.21a2.83,2.83,0,0,1,2.56,1.44,5.67,5.67,0,0,1,.58,3Zm2.07-1.26a2.9,2.9,0,0,0-.16-1.18.91.91,0,0,0-.86-.56c-.69,0-1,.51-1,1.74Z"/><path class="cls-5" d="M253.4,114.51v1.9c.4-1.41,1-2,1.86-2a2.05,2.05,0,0,1,.39,0v2.15l-.37,0c-1.11,0-1.62.78-1.62,2.43v3.41h-2.19v-7.89Z"/><path class="cls-5" d="M258.48,114.51v1.07a2.19,2.19,0,0,1,3.74-.33,3.69,3.69,0,0,1,.29,2v5.17h-2.19v-5.17c0-.91-.18-1.17-.77-1.17a.83.83,0,0,0-.9.59,4.29,4.29,0,0,0-.08,1.12v4.63h-2.19v-7.89Z"/><path class="cls-5" d="M264,116.81c.23-1.6,1.36-2.46,3.19-2.46a3,3,0,0,1,2.3.85c.39.4.5,1,.5,2.3v3.14a5.55,5.55,0,0,0,.13,1.76h-2a3,3,0,0,1-.12-1.2,2.93,2.93,0,0,1-.59.8,2.39,2.39,0,0,1-1.57.56,2,2,0,0,1-2.08-2.16,2.43,2.43,0,0,1,1.51-2.4,8.4,8.4,0,0,1,2.56-.5v-.3c0-1.07-.19-1.39-.79-1.39s-.84.33-.93,1.2Zm3.8,1.81c-1.36.16-1.8.53-1.8,1.49,0,.64.26,1,.74,1a.88.88,0,0,0,.75-.49,2.77,2.77,0,0,0,.31-1.6Z"/><path class="cls-5" d="M273.74,114.51v1.07a2.2,2.2,0,0,1,3.75-.33,3.83,3.83,0,0,1,.28,2v5.17h-2.19v-5.17c0-.91-.17-1.17-.77-1.17a.81.81,0,0,0-.89.59,3.87,3.87,0,0,0-.08,1.12v4.63h-2.2v-7.89Z"/><path class="cls-5" d="M283.12,117.49c-.07-1.08-.31-1.48-.87-1.48-.75,0-1.1.74-1.1,2.36s.32,2.41,1.07,2.41c.58,0,.83-.41.9-1.45l2.06.12c-.24,2.1-1.25,3.11-3.1,3.11-2.05,0-3.14-1.42-3.14-4.11s1.15-4.1,3.27-4.1a2.7,2.7,0,0,1,2.11.8,3.21,3.21,0,0,1,.86,2.26Z"/><path class="cls-5" d="M288.3,118.81v.42c0,1.27.3,1.79,1.06,1.79s1-.38,1.12-1.34l2,.13a3.55,3.55,0,0,1-.84,1.84,2.91,2.91,0,0,1-2.3.91c-2.08,0-3.28-1.46-3.28-4s1.21-4.21,3.28-4.21a2.84,2.84,0,0,1,2.56,1.44,5.67,5.67,0,0,1,.58,3Zm2.07-1.26a2.9,2.9,0,0,0-.16-1.18.93.93,0,0,0-.87-.56c-.69,0-1,.51-1,1.74Z"/><rect class="cls-4" x="325.34" y="180.3" width="143.97" height="71.98"/><path class="cls-5" d="M347,210.36a4.36,4.36,0,0,1,2.74.53,3.87,3.87,0,0,1,0,5.65,4.33,4.33,0,0,1-2.66.56h-.83V221h-2.34V210.36Zm-.72,4.9H347c1.09,0,1.5-.45,1.5-1.61a1.77,1.77,0,0,0-.43-1.27c-.22-.22-.49-.29-1.07-.29h-.72Z"/><path class="cls-5" d="M353.81,213.15v1.9c.4-1.4,1-2,1.86-2a1.89,1.89,0,0,1,.38,0v2.15l-.37,0c-1.1,0-1.61.78-1.61,2.43V221h-2.19v-7.89Z"/><path class="cls-5" d="M356.75,212.49v-2.17H359v2.17Zm2.21.66V221h-2.19v-7.89Z"/><path class="cls-5" d="M361.72,213.15l1.08,4.66,1.11-4.66h1.82L363.57,221h-1.74l-2.23-7.89Z"/><path class="cls-5" d="M366.21,215.45c.22-1.6,1.36-2.46,3.19-2.46a3,3,0,0,1,2.3.85c.38.4.5,1,.5,2.3v3.14a4.94,4.94,0,0,0,.13,1.76h-2a3.24,3.24,0,0,1-.11-1.2,3.15,3.15,0,0,1-.59.8,2.39,2.39,0,0,1-1.57.56,2,2,0,0,1-2.08-2.16,2.42,2.42,0,0,1,1.5-2.4,8.53,8.53,0,0,1,2.56-.5v-.3c0-1.07-.19-1.39-.78-1.39s-.85.33-.93,1.2Zm3.79,1.81c-1.36.16-1.79.53-1.79,1.49,0,.64.26,1,.74,1a.89.89,0,0,0,.75-.49,2.85,2.85,0,0,0,.3-1.6Z"/><path class="cls-5" d="M377.65,216.13c-.06-1.08-.3-1.48-.86-1.48-.75,0-1.11.74-1.11,2.36s.32,2.41,1.08,2.41c.57,0,.83-.41.89-1.45l2.07.12c-.24,2.1-1.25,3.11-3.11,3.11-2.05,0-3.14-1.42-3.14-4.11s1.16-4.1,3.27-4.1a2.74,2.74,0,0,1,2.11.8,3.26,3.26,0,0,1,.87,2.26Z"/><path class="cls-5" d="M382.07,213.15l1.07,4.82,1-4.82h1.91l-2.39,8a4.27,4.27,0,0,1-.94,2.09,2.12,2.12,0,0,1-1.6.58,3.38,3.38,0,0,1-.95-.13V222a4,4,0,0,0,.64.05c.84,0,1-.16,1.32-1.13l-2.28-7.75Z"/><path class="cls-5" d="M398.73,215.25a10.06,10.06,0,0,1-1.46,3.41,1.59,1.59,0,0,0,1.09.59l.37,0V221a3.37,3.37,0,0,1-.82.11,2.62,2.62,0,0,1-2.07-1A4.16,4.16,0,0,1,393,221.2a3.55,3.55,0,0,1-2.48-.83,3.36,3.36,0,0,1-.93-2.32c0-1.38.8-2.39,2.43-3.08a4.18,4.18,0,0,1-1-2.38,2.59,2.59,0,0,1,2.82-2.39,2.54,2.54,0,0,1,2.73,2.55,2.86,2.86,0,0,1-1.85,2.58l1.49,1.95a7.71,7.71,0,0,0,.81-2.34Zm-5.88,1a1.92,1.92,0,0,0-1.09,1.69,1.43,1.43,0,0,0,1.54,1.54,2,2,0,0,0,1.49-.63Zm1.89-3.57a.8.8,0,0,0-.83-.9.77.77,0,0,0-.83.82,2.71,2.71,0,0,0,.7,1.53A1.61,1.61,0,0,0,394.74,212.64Z"/><path class="cls-5" d="M407.73,213.44c-.29-.93-.75-1.33-1.5-1.33a1,1,0,0,0-1.12,1c0,.61.3.85,1.84,1.43a5.82,5.82,0,0,1,1.89,1,2.86,2.86,0,0,1,1.05,2.3c0,2.05-1.52,3.41-3.77,3.41a3.52,3.52,0,0,1-3.72-2.93l2.05-.58c.3,1.12.82,1.61,1.71,1.61a1.2,1.2,0,0,0,1.36-1.16c0-.61-.36-.94-1.47-1.34a6.17,6.17,0,0,1-2.22-1.09,2.89,2.89,0,0,1-1-2.24,3.17,3.17,0,0,1,3.43-3.27,3.68,3.68,0,0,1,2.37.76,3,3,0,0,1,1.05,1.72Z"/><path class="cls-5" d="M413.07,217.45v.42c0,1.27.31,1.79,1.06,1.79s1-.38,1.12-1.34l2,.13a3.54,3.54,0,0,1-.83,1.84,2.91,2.91,0,0,1-2.31.91c-2.08,0-3.28-1.46-3.28-4S412,213,414.08,213a2.83,2.83,0,0,1,2.56,1.44,5.67,5.67,0,0,1,.58,3Zm2.07-1.26A2.9,2.9,0,0,0,415,215a.91.91,0,0,0-.86-.56c-.69,0-1,.51-1,1.74Z"/><path class="cls-5" d="M422.34,216.13c-.06-1.08-.3-1.48-.87-1.48-.75,0-1.1.74-1.1,2.36s.32,2.41,1.07,2.41c.58,0,.84-.41.9-1.45l2.06.12c-.24,2.1-1.24,3.11-3.1,3.11-2.05,0-3.14-1.42-3.14-4.11s1.15-4.1,3.27-4.1a2.74,2.74,0,0,1,2.11.8,3.21,3.21,0,0,1,.86,2.26Z"/><path class="cls-5" d="M427.67,213.15v5.06a2.11,2.11,0,0,0,.08.89.62.62,0,0,0,.68.39.82.82,0,0,0,.87-.56,5.21,5.21,0,0,0,.11-1.75v-4h2.19V221h-2.06V220a2,2,0,0,1-2.05,1.23,1.88,1.88,0,0,1-1.65-.7c-.3-.45-.37-.84-.37-2.23v-5.12Z"/><path class="cls-5" d="M435.15,213.15v1.9c.4-1.4,1-2,1.86-2a2.05,2.05,0,0,1,.39,0v2.15l-.37,0c-1.11,0-1.62.78-1.62,2.43V221h-2.19v-7.89Z"/><path class="cls-5" d="M438.1,212.49v-2.17h2.24v2.17Zm2.21.66V221h-2.2v-7.89Z"/><path class="cls-5" d="M444.4,210.65v2.5h1.44v1.73H444.4v2.89c0,1.06,0,1.19.19,1.38a1,1,0,0,0,.77.23l.6,0V221a5.36,5.36,0,0,1-1.33.16,2.23,2.23,0,0,1-2-.88c-.29-.46-.35-.83-.35-2.31v-3.13h-.88v-1.73h1l.18-2.34Z"/><path class="cls-5" d="M448,213.15l1.07,4.82,1-4.82H452l-2.39,8a4.27,4.27,0,0,1-.94,2.09,2.12,2.12,0,0,1-1.6.58,3.38,3.38,0,0,1-.95-.13V222a4,4,0,0,0,.65.05c.83,0,1-.16,1.31-1.13l-2.28-7.75Z"/><rect class="cls-4" x="269.26" y="352.9" width="143.97" height="71.98"/><path class="cls-5" d="M312.72,381.93c-.19,2.42-1.6,3.91-3.73,3.91-2.56,0-4-2-4-5.49s1.46-5.51,4-5.51a3.23,3.23,0,0,1,3,1.56,5.16,5.16,0,0,1,.69,2.57l-2.14.16a3.72,3.72,0,0,0-.34-1.66,1.26,1.26,0,0,0-1.15-.72c-1.14,0-1.6,1.1-1.6,3.78,0,2.41.46,3.4,1.6,3.4.85,0,1.33-.67,1.5-2.14Z"/><path class="cls-5" d="M320,381.74c0,2.72-1.07,4.1-3.2,4.1s-3.22-1.38-3.22-4.08,1.06-4.13,3.25-4.13S320,379,320,381.74Zm-4.15,0c0,1.93.24,2.57.95,2.57s.93-.64.93-2.56-.24-2.57-.92-2.57S315.82,379.81,315.82,381.73Z"/><path class="cls-5" d="M323.34,377.79v1.07a1.87,1.87,0,0,1,1.91-1.23,1.48,1.48,0,0,1,1.69,1.23,1.92,1.92,0,0,1,2-1.23,1.83,1.83,0,0,1,1.74.85,4.3,4.3,0,0,1,.27,2v5.15h-2.19v-4.93c0-1.18-.11-1.41-.7-1.41s-.82.34-.82,1.75v4.59H325v-5c0-.84,0-.87-.08-1a.61.61,0,0,0-.63-.34c-.69,0-.86.37-.86,1.75v4.59h-2.19v-7.89Z"/><path class="cls-5" d="M334.32,377.79V379c.51-1,1-1.29,1.79-1.29,1.59,0,2.53,1.47,2.53,3.95,0,2.67-1,4.16-2.67,4.16a1.86,1.86,0,0,1-1.52-.7v3.26h-2.16V377.79Zm.13,4.66a4.54,4.54,0,0,0,.12,1.37.83.83,0,0,0,.8.43c.77,0,1-.59,1-2.65,0-1.86-.23-2.47-.93-2.47a.9.9,0,0,0-.91.79,3.59,3.59,0,0,0-.08,1Z"/><path class="cls-5" d="M342.11,375v10.68h-2.19V375Z"/><path class="cls-5" d="M343.71,377.13V375H346v2.17Zm2.21.66v7.89h-2.2v-7.89Z"/><path class="cls-5" d="M347.58,380.09c.22-1.6,1.36-2.46,3.19-2.46a3,3,0,0,1,2.3.85c.39.4.5,1,.5,2.3v3.14a4.94,4.94,0,0,0,.13,1.76h-2a3.24,3.24,0,0,1-.11-1.2,3.15,3.15,0,0,1-.59.8,2.39,2.39,0,0,1-1.57.56,2,2,0,0,1-2.08-2.16,2.42,2.42,0,0,1,1.5-2.4,8.53,8.53,0,0,1,2.56-.5v-.3c0-1.07-.19-1.4-.78-1.4s-.85.34-.93,1.21Zm3.79,1.81c-1.36.16-1.79.53-1.79,1.49,0,.64.26,1,.74,1a.89.89,0,0,0,.75-.49,2.85,2.85,0,0,0,.3-1.6Z"/><path class="cls-5" d="M357.28,377.79v1.07a2.2,2.2,0,0,1,3.74-.34,3.74,3.74,0,0,1,.29,2v5.17h-2.19v-5.17c0-.91-.18-1.17-.77-1.17a.83.83,0,0,0-.9.59,4.29,4.29,0,0,0-.08,1.12v4.63h-2.19v-7.89Z"/><path class="cls-5" d="M366.65,380.77c-.06-1.08-.3-1.48-.86-1.48-.75,0-1.11.74-1.11,2.36s.32,2.41,1.08,2.41c.57,0,.83-.41.89-1.45l2.07.12c-.24,2.1-1.25,3.11-3.11,3.11-2.05,0-3.13-1.42-3.13-4.11s1.15-4.1,3.26-4.1a2.7,2.7,0,0,1,2.11.8,3.26,3.26,0,0,1,.87,2.26Z"/><path class="cls-5" d="M371.84,382.09v.42c0,1.27.3,1.79,1.05,1.79s1-.38,1.12-1.34l2,.13a3.54,3.54,0,0,1-.83,1.84,2.91,2.91,0,0,1-2.3.91c-2.09,0-3.29-1.46-3.29-4s1.22-4.21,3.29-4.21a2.84,2.84,0,0,1,2.56,1.44,5.68,5.68,0,0,1,.57,3Zm2.06-1.26a2.9,2.9,0,0,0-.16-1.18.92.92,0,0,0-.86-.57c-.69,0-1,.52-1,1.75Z"/><path class="cls-5" d="M305.09,395.73a9.87,9.87,0,0,1-1.46,3.41,1.59,1.59,0,0,0,1.09.59l.37,0v1.82a3.31,3.31,0,0,1-.82.11,2.6,2.6,0,0,1-2.06-1,4.2,4.2,0,0,1-2.9,1.06,3.57,3.57,0,0,1-2.48-.83,3.36,3.36,0,0,1-.93-2.32c0-1.38.8-2.39,2.43-3.08a4.18,4.18,0,0,1-1-2.38,2.59,2.59,0,0,1,2.82-2.39,2.55,2.55,0,0,1,2.74,2.55,2.87,2.87,0,0,1-1.86,2.58l1.49,1.95a7.71,7.71,0,0,0,.81-2.34Zm-5.88,1a1.91,1.91,0,0,0-1.08,1.69,1.43,1.43,0,0,0,1.53,1.54,2,2,0,0,0,1.49-.62Zm1.89-3.57a.8.8,0,0,0-.83-.9.77.77,0,0,0-.83.82,2.79,2.79,0,0,0,.7,1.53A1.61,1.61,0,0,0,301.1,393.12Z"/><path class="cls-5" d="M316,390.84v1.84h-4.15v2.47h3.24V397h-3.24v2.63H316v1.9h-6.48V390.84Z"/><path class="cls-5" d="M319.05,393.63v1.07a2.2,2.2,0,0,1,3.75-.33,3.8,3.8,0,0,1,.29,2v5.17h-2.2v-5.17c0-.91-.17-1.17-.76-1.17a.83.83,0,0,0-.9.59,4.29,4.29,0,0,0-.08,1.12v4.63H317v-7.89Z"/><path class="cls-5" d="M328.46,393.63v1.73h-1.39v6.16H325v-6.16h-.9v-1.73h.9c0-1.46.12-1.92.54-2.4a2.32,2.32,0,0,1,2-.8,6,6,0,0,1,1,.08v1.71l-.5,0c-.86,0-1,.21-1,1.44Z"/><path class="cls-5" d="M335,397.58c0,2.72-1.07,4.1-3.2,4.1s-3.22-1.38-3.22-4.08,1.06-4.13,3.25-4.13S335,394.86,335,397.58Zm-4.15,0c0,1.93.24,2.57.95,2.57s.93-.64.93-2.56-.24-2.57-.92-2.57S330.81,395.65,330.81,397.57Z"/><path class="cls-5" d="M338.17,393.63v1.9c.4-1.4,1-2,1.86-2a1.54,1.54,0,0,1,.39.05v2.14l-.37,0c-1.11,0-1.62.78-1.62,2.43v3.41h-2.19v-7.89Z"/><path class="cls-5" d="M344.77,396.61c-.07-1.08-.31-1.48-.87-1.48-.75,0-1.1.74-1.1,2.36s.32,2.41,1.07,2.41c.58,0,.83-.41.9-1.45l2.06.13c-.24,2.09-1.25,3.1-3.1,3.1-2.05,0-3.14-1.42-3.14-4.11s1.15-4.1,3.26-4.1a2.76,2.76,0,0,1,2.12.8,3.26,3.26,0,0,1,.86,2.26Z"/><path class="cls-5" d="M350,397.94v.41c0,1.27.3,1.79,1.06,1.79s1-.38,1.12-1.34l2,.13a3.54,3.54,0,0,1-.83,1.84,2.91,2.91,0,0,1-2.3.91c-2.08,0-3.28-1.46-3.28-4s1.21-4.21,3.28-4.21a2.84,2.84,0,0,1,2.56,1.44,5.61,5.61,0,0,1,.57,3Zm2.06-1.27a2.73,2.73,0,0,0-.16-1.18.91.91,0,0,0-.86-.56c-.69,0-1,.51-1,1.74Z"/><path class="cls-5" d="M357.47,393.63v1.07a1.86,1.86,0,0,1,1.9-1.23,1.5,1.5,0,0,1,1.7,1.23,1.91,1.91,0,0,1,1.95-1.23,1.84,1.84,0,0,1,1.75.85,4.3,4.3,0,0,1,.27,2.05v5.15h-2.19v-4.93c0-1.18-.11-1.41-.71-1.41s-.81.34-.81,1.75v4.59h-2.2v-5c0-.84,0-.87-.08-1a.59.59,0,0,0-.62-.34c-.69,0-.86.37-.86,1.75v4.59h-2.2v-7.89Z"/><path class="cls-5" d="M368.48,397.94v.41c0,1.27.3,1.79,1,1.79s1-.38,1.12-1.34l2,.13a3.54,3.54,0,0,1-.83,1.84,2.91,2.91,0,0,1-2.3.91c-2.09,0-3.29-1.46-3.29-4s1.22-4.21,3.29-4.21a2.84,2.84,0,0,1,2.56,1.44,5.7,5.7,0,0,1,.57,3Zm2.06-1.27a2.9,2.9,0,0,0-.16-1.18.91.91,0,0,0-.86-.56c-.69,0-1,.51-1,1.74Z"/><path class="cls-5" d="M376,393.63v1.07a2.19,2.19,0,0,1,3.74-.33,3.69,3.69,0,0,1,.29,2v5.17h-2.19v-5.17c0-.91-.18-1.17-.77-1.17a.83.83,0,0,0-.9.59,4.29,4.29,0,0,0-.08,1.12v4.63H373.9v-7.89Z"/><path class="cls-5" d="M384,391.13v2.5h1.44v1.73H384v2.89c0,1.06,0,1.19.19,1.38a1,1,0,0,0,.77.23l.59,0v1.68a5.36,5.36,0,0,1-1.33.16,2.23,2.23,0,0,1-2-.88c-.28-.46-.35-.83-.35-2.3v-3.14H381v-1.73h1l.18-2.34Z"/><rect class="cls-4" x="87.78" y="352.9" width="143.97" height="71.98"/><path class="cls-5" d="M114.78,375a5.1,5.1,0,0,1,3.3.82c1,.77,1.63,2.37,1.63,4.43,0,2.23-.69,4-1.89,4.79a4.15,4.15,0,0,1-2.75.64h-2.81V375Zm-.18,8.84h.4a1.64,1.64,0,0,0,1.63-.71,5.19,5.19,0,0,0,.6-2.91,4.33,4.33,0,0,0-.69-2.82,1.71,1.71,0,0,0-1.54-.56h-.4Z"/><path class="cls-5" d="M121.1,380.09c.22-1.6,1.36-2.46,3.18-2.46a3.06,3.06,0,0,1,2.31.85c.38.4.49,1,.49,2.3v3.14a5.55,5.55,0,0,0,.13,1.76h-2a3.24,3.24,0,0,1-.11-1.2,3.14,3.14,0,0,1-.6.8,2.38,2.38,0,0,1-1.56.56,2,2,0,0,1-2.09-2.16,2.43,2.43,0,0,1,1.51-2.4,8.46,8.46,0,0,1,2.56-.5v-.3c0-1.07-.19-1.4-.78-1.4s-.85.34-.93,1.21Zm3.79,1.81c-1.36.16-1.79.53-1.79,1.49,0,.64.25,1,.73,1a.9.9,0,0,0,.76-.49,2.85,2.85,0,0,0,.3-1.6Z"/><path class="cls-5" d="M131.16,375.29v2.5h1.44v1.73h-1.44v2.89c0,1.06,0,1.19.19,1.38a1,1,0,0,0,.77.22h.59v1.68a5.23,5.23,0,0,1-1.32.16,2.23,2.23,0,0,1-2-.88c-.29-.46-.35-.83-.35-2.31v-3.13h-.88v-1.73h1l.18-2.34Z"/><path class="cls-5" d="M133.64,380.09c.22-1.6,1.36-2.46,3.19-2.46a3,3,0,0,1,2.3.85c.38.4.5,1,.5,2.3v3.14a5.39,5.39,0,0,0,.12,1.76h-2a3.24,3.24,0,0,1-.11-1.2,3.15,3.15,0,0,1-.59.8,2.39,2.39,0,0,1-1.57.56,2,2,0,0,1-2.08-2.16,2.42,2.42,0,0,1,1.5-2.4,8.53,8.53,0,0,1,2.56-.5v-.3c0-1.07-.19-1.4-.78-1.4s-.85.34-.93,1.21Zm3.79,1.81c-1.36.16-1.79.53-1.79,1.49,0,.64.26,1,.74,1a.89.89,0,0,0,.75-.49,2.85,2.85,0,0,0,.3-1.6Z"/><path class="cls-5" d="M151.79,381.93c-.2,2.42-1.6,3.91-3.73,3.91-2.56,0-4-2-4-5.49s1.46-5.51,4.05-5.51a3.23,3.23,0,0,1,3,1.56,5.26,5.26,0,0,1,.69,2.57l-2.15.16a3.61,3.61,0,0,0-.33-1.66,1.27,1.27,0,0,0-1.15-.72c-1.14,0-1.61,1.1-1.61,3.78,0,2.41.47,3.4,1.61,3.4.84,0,1.32-.67,1.5-2.14Z"/><path class="cls-5" d="M159,381.74c0,2.72-1.07,4.1-3.2,4.1s-3.21-1.38-3.21-4.08,1-4.13,3.25-4.13S159,379,159,381.74Zm-4.14,0c0,1.93.24,2.57.94,2.57s.93-.64.93-2.56-.24-2.57-.91-2.57S154.89,379.81,154.89,381.73Z"/><path class="cls-5" d="M162.5,375v10.68h-2.19V375Z"/><path class="cls-5" d="M166.33,375v10.68h-2.19V375Z"/><path class="cls-5" d="M169.9,382.09v.42c0,1.27.3,1.79,1,1.79s1-.38,1.12-1.34l2,.13a3.54,3.54,0,0,1-.83,1.84,2.91,2.91,0,0,1-2.3.91c-2.09,0-3.29-1.46-3.29-4s1.22-4.21,3.29-4.21a2.84,2.84,0,0,1,2.56,1.44,5.68,5.68,0,0,1,.57,3Zm2.06-1.26a2.9,2.9,0,0,0-.16-1.18.92.92,0,0,0-.86-.57c-.69,0-1,.52-1,1.75Z"/><path class="cls-5" d="M179.16,380.77c-.06-1.08-.3-1.48-.86-1.48-.76,0-1.11.74-1.11,2.36s.32,2.41,1.08,2.41c.57,0,.83-.41.89-1.45l2.07.12c-.24,2.1-1.25,3.11-3.11,3.11-2.05,0-3.14-1.42-3.14-4.11s1.16-4.1,3.27-4.1a2.7,2.7,0,0,1,2.11.8,3.26,3.26,0,0,1,.87,2.26Z"/><path class="cls-5" d="M184.87,375.29v2.5h1.44v1.73h-1.44v2.89c0,1.06,0,1.19.19,1.38a1,1,0,0,0,.77.22h.6v1.68a5.36,5.36,0,0,1-1.33.16,2.23,2.23,0,0,1-2-.88c-.29-.46-.35-.83-.35-2.31v-3.13h-.88v-1.73h1l.18-2.34Z"/><path class="cls-5" d="M187.29,377.13V375h2.24v2.17Zm2.21.66v7.89h-2.2v-7.89Z"/><path class="cls-5" d="M197.21,381.74c0,2.72-1.07,4.1-3.2,4.1s-3.22-1.38-3.22-4.08,1.06-4.13,3.25-4.13S197.21,379,197.21,381.74Zm-4.15,0c0,1.93.24,2.57.95,2.57s.93-.64.93-2.56-.24-2.57-.92-2.57S193.06,379.81,193.06,381.73Z"/><path class="cls-5" d="M200.58,377.79v1.07a2.21,2.21,0,0,1,3.75-.34,3.84,3.84,0,0,1,.29,2v5.17h-2.2v-5.17c0-.91-.17-1.17-.76-1.17a.83.83,0,0,0-.9.59,4.29,4.29,0,0,0-.08,1.12v4.63h-2.19v-7.89Z"/><path class="cls-5" d="M132.92,390.84v2h-2.17v8.68h-2.36v-8.68h-2.13v-2Z"/><path class="cls-5" d="M134.44,397.94v.41c0,1.27.3,1.79,1.06,1.79s1-.38,1.12-1.34l2,.13a3.55,3.55,0,0,1-.84,1.84,2.91,2.91,0,0,1-2.3.91c-2.08,0-3.28-1.46-3.28-4s1.21-4.21,3.28-4.21a2.84,2.84,0,0,1,2.56,1.44,5.69,5.69,0,0,1,.58,3Zm2.07-1.27a2.9,2.9,0,0,0-.16-1.18.92.92,0,0,0-.87-.56c-.69,0-1,.51-1,1.74Z"/><path class="cls-5" d="M143.71,396.61c-.07-1.08-.31-1.48-.87-1.48-.75,0-1.1.74-1.1,2.36s.32,2.41,1.07,2.41c.58,0,.83-.41.9-1.45l2.06.13c-.24,2.09-1.25,3.1-3.1,3.1-2,0-3.14-1.42-3.14-4.11s1.15-4.1,3.26-4.1a2.76,2.76,0,0,1,2.12.8,3.26,3.26,0,0,1,.86,2.26Z"/><path class="cls-5" d="M149.14,390.84v3.62a2.06,2.06,0,0,1,2-1,1.74,1.74,0,0,1,1.73,1,4.51,4.51,0,0,1,.25,2v5.06h-2.19v-5.06c0-1-.14-1.28-.77-1.28s-1,.35-1,1.33v5H147V390.84Z"/><path class="cls-5" d="M156.68,393.63v1.07a2.2,2.2,0,0,1,3.75-.33,3.83,3.83,0,0,1,.28,2v5.17h-2.19v-5.17c0-.91-.18-1.17-.77-1.17a.81.81,0,0,0-.89.59,3.87,3.87,0,0,0-.08,1.12v4.63h-2.2v-7.89Z"/><path class="cls-5" d="M168.3,397.58c0,2.72-1.07,4.1-3.2,4.1s-3.22-1.38-3.22-4.08,1.06-4.13,3.25-4.13S168.3,394.86,168.3,397.58Zm-4.15,0c0,1.93.24,2.57.95,2.57s.92-.64.92-2.56-.24-2.57-.91-2.57S164.15,395.65,164.15,397.57Z"/><path class="cls-5" d="M171.77,390.84v10.68h-2.19V390.84Z"/><path class="cls-5" d="M179.48,397.58c0,2.72-1.07,4.1-3.2,4.1s-3.22-1.38-3.22-4.08,1.06-4.13,3.25-4.13S179.48,394.86,179.48,397.58Zm-4.14,0c0,1.93.24,2.57.94,2.57s.93-.64.93-2.56S177,395,176.3,395,175.34,395.65,175.34,397.57Z"/><path class="cls-5" d="M187.47,393.76a3,3,0,0,0-.48-.05.78.78,0,0,0-.84.7,2.24,2.24,0,0,1,.6,1.57c0,1.41-1.16,2.37-2.85,2.37a4,4,0,0,1-1-.13c-.34.2-.52.4-.52.66s.1.3.31.38.24.08,1.57.16c1.53.1,1.92.2,2.4.56a2,2,0,0,1,.75,1.69c0,1.75-1.3,2.64-3.87,2.64-2.12,0-3.22-.64-3.22-1.88,0-.72.37-1.15,1.28-1.47a1.48,1.48,0,0,1-1-1.38,1.65,1.65,0,0,1,.56-1.18,3,3,0,0,1,.8-.54,2,2,0,0,1-1.17-2c0-1.5,1.1-2.4,2.94-2.4a3.84,3.84,0,0,1,1.7.35c.16-1.17.53-1.57,1.49-1.57a2.09,2.09,0,0,1,.61.08Zm-5.38,8.37c0,.54.54.8,1.76.8s1.62-.24,1.62-.83a.72.72,0,0,0-.32-.63c-.25-.13-.37-.16-1.38-.21a9,9,0,0,1-1-.08A1,1,0,0,0,182.09,402.13ZM183,396c0,.8.24,1.19.77,1.19s.7-.34.7-1.25-.21-1.27-.69-1.27S183,395,183,396Z"/><path class="cls-5" d="M189.29,393.63l1.07,4.82,1-4.82h1.91l-2.39,8a4.37,4.37,0,0,1-.94,2.1,2.16,2.16,0,0,1-1.6.57,3.38,3.38,0,0,1-1-.13v-1.73a4,4,0,0,0,.65.05c.83,0,1-.16,1.31-1.13l-2.28-7.75Z"/><rect class="cls-4" x="31.7" y="180.3" width="143.97" height="71.98"/><path class="cls-5" d="M60.6,217.29c-.19,2.42-1.6,3.91-3.73,3.91-2.56,0-4-2-4-5.49s1.46-5.51,4-5.51a3.26,3.26,0,0,1,3,1.56,5.27,5.27,0,0,1,.68,2.57l-2.14.16a3.68,3.68,0,0,0-.34-1.66,1.26,1.26,0,0,0-1.15-.72c-1.14,0-1.6,1.1-1.6,3.78,0,2.41.46,3.41,1.6,3.41.85,0,1.33-.68,1.5-2.15Z"/><path class="cls-5" d="M67.85,217.1c0,2.72-1.07,4.1-3.2,4.1s-3.22-1.38-3.22-4.08S62.49,213,64.68,213,67.85,214.38,67.85,217.1Zm-4.15,0c0,1.93.24,2.57,1,2.57s.93-.64.93-2.56-.24-2.57-.92-2.57S63.7,215.17,63.7,217.09Z"/><path class="cls-5" d="M71.22,213.15v1.07A1.87,1.87,0,0,1,73.13,213a1.49,1.49,0,0,1,1.7,1.23,1.9,1.9,0,0,1,2-1.23,1.83,1.83,0,0,1,1.74.85,4.3,4.3,0,0,1,.27,2V221H76.6v-4.93c0-1.18-.11-1.41-.7-1.41s-.82.34-.82,1.75V221H72.89v-5c0-.84,0-.87-.08-1a.61.61,0,0,0-.63-.34c-.68,0-.86.37-.86,1.75V221H69.13v-7.89Z"/><path class="cls-5" d="M82.39,213.15v1.07A1.87,1.87,0,0,1,84.3,213,1.48,1.48,0,0,1,86,214.22,1.92,1.92,0,0,1,88,213a1.83,1.83,0,0,1,1.74.85,4.3,4.3,0,0,1,.27,2V221H87.77v-4.93c0-1.18-.11-1.41-.7-1.41s-.82.34-.82,1.75V221H84.06v-5c0-.84,0-.87-.08-1a.61.61,0,0,0-.63-.34c-.69,0-.86.37-.86,1.75V221h-2.2v-7.89Z"/><path class="cls-5" d="M93.54,213.15v5.06a2.32,2.32,0,0,0,.08.89.64.64,0,0,0,.69.39.82.82,0,0,0,.87-.56,5.55,5.55,0,0,0,.11-1.75v-4h2.19V221H95.42V220a2,2,0,0,1-2,1.23,1.88,1.88,0,0,1-1.65-.7c-.3-.45-.37-.84-.37-2.23v-5.12Z"/><path class="cls-5" d="M101.19,213.15v1.07a2.2,2.2,0,0,1,3.75-.33,3.8,3.8,0,0,1,.29,2V221H103v-5.17c0-.91-.17-1.17-.77-1.17a.82.82,0,0,0-.89.59,3.87,3.87,0,0,0-.08,1.12V221h-2.2v-7.89Z"/><path class="cls-5" d="M106.69,212.49v-2.17h2.25v2.17Zm2.21.66V221h-2.19v-7.89Z"/><path class="cls-5" d="M114.38,216.13c-.07-1.08-.31-1.48-.87-1.48-.75,0-1.1.74-1.1,2.36s.32,2.41,1.07,2.41c.58,0,.83-.41.9-1.45l2.06.12c-.24,2.1-1.25,3.11-3.1,3.11-2,0-3.14-1.42-3.14-4.11s1.15-4.1,3.26-4.1a2.76,2.76,0,0,1,2.12.8,3.26,3.26,0,0,1,.86,2.26Z"/><path class="cls-5" d="M117.65,215.45c.23-1.6,1.36-2.46,3.19-2.46a3,3,0,0,1,2.3.85c.39.4.5,1,.5,2.3v3.14a5.55,5.55,0,0,0,.13,1.76h-2a3,3,0,0,1-.12-1.2,2.93,2.93,0,0,1-.59.8,2.39,2.39,0,0,1-1.57.56,2,2,0,0,1-2.08-2.16,2.43,2.43,0,0,1,1.51-2.4,8.46,8.46,0,0,1,2.56-.5v-.3c0-1.07-.19-1.39-.79-1.39s-.84.33-.92,1.2Zm3.8,1.81c-1.36.16-1.79.53-1.79,1.49,0,.64.25,1,.73,1a.88.88,0,0,0,.75-.49,2.75,2.75,0,0,0,.31-1.6Z"/><path class="cls-5" d="M127.72,210.65v2.5h1.44v1.73h-1.44v2.89c0,1.06,0,1.19.19,1.38a1,1,0,0,0,.77.23l.59,0V221a5.26,5.26,0,0,1-1.33.16,2.2,2.2,0,0,1-2-.88c-.29-.46-.36-.83-.36-2.31v-3.13h-.88v-1.73h1l.17-2.34Z"/><path class="cls-5" d="M130.13,212.49v-2.17h2.25v2.17Zm2.21.66V221h-2.19v-7.89Z"/><path class="cls-5" d="M140.06,217.1c0,2.72-1.08,4.1-3.21,4.1s-3.21-1.38-3.21-4.08,1.05-4.13,3.25-4.13S140.06,214.38,140.06,217.1Zm-4.15,0c0,1.93.24,2.57.94,2.57s.93-.64.93-2.56-.24-2.57-.91-2.57S135.91,215.17,135.91,217.09Z"/><path class="cls-5" d="M143.43,213.15v1.07a2.2,2.2,0,0,1,3.75-.33,3.83,3.83,0,0,1,.28,2V221h-2.19v-5.17c0-.91-.18-1.17-.77-1.17a.81.81,0,0,0-.89.59,3.87,3.87,0,0,0-.08,1.12V221h-2.2v-7.89Z"/><path class="cls-6" d="M288.73,245.77c-.05,1.93-2.91,3.49-6.45,3.49s-6.39-1.56-6.44-3.49a10.6,10.6,0,0,0-9.63,10.56c0,5.86,4.75,5.85,10.61,5.85h10.93c5.86,0,10.61,0,10.61-5.85A10.6,10.6,0,0,0,288.73,245.77Z"/><path class="cls-6" d="M277.28,231.57a13.86,13.86,0,0,0,5,1.21,13.61,13.61,0,0,0,5-1.21c1.7.67.89,5.43.89,5.43a3.48,3.48,0,0,1,1.13-.53c-.46,5.06-3.43,9-7,9s-6.56-3.9-7-9a3.39,3.39,0,0,1,1.13.53S275.58,232.24,277.28,231.57Zm-3,4.61c0,.07,0,.15,0,.23.51,5.79,3.9,10.27,8,10.27s7.49-4.48,8-10.27l0-.23c0-.25.06-.51.08-.77s0-.35,0-.53a9.36,9.36,0,0,0-.1-1.3,8.07,8.07,0,0,0-16.05,0,9.36,9.36,0,0,0-.09,1.3c0,.18,0,.36,0,.53S274.22,235.93,274.26,236.18Z"/><path class="cls-6" d="M257.7,198a13.43,13.43,0,0,1-1.28,4.82c-1.26,2.51-3.29,4.14-5.58,4.14-3.5,0-6.39-3.8-6.84-8.72a24,24,0,0,0,11-4.73l.06,0,.15.25c.32.54,1,2.16-.28,2.9l2.33.3h0l.43.08A8.26,8.26,0,0,1,257.7,198Zm-4.47,12.43-2.39,3.89-2.39-3.89a5.37,5.37,0,0,1-3.62-2.2c1.4.12,2.59.38,2.89.88l-1.31-2.93a5.91,5.91,0,0,0,8.77.08l-.92,1.91c.31-.5,1.46-.64,2.82-.6C256.86,208.9,255.33,210,253.23,210.47Zm6-2.71c1.77.2,3.33.51,3.33.51-3.54-2-3.45-8.92-3.45-8.92.62-13.52-8.3-12.81-8.3-12.81v0s-8.92-.71-8.3,12.81c0,0,.09,7-3.45,8.92,0,0,1-.07,2.23-.09a10.33,10.33,0,0,0-6.12,9.44c0,5.7,4.62,4.69,10.33,4.69h10.63c5.71,0,10.33,1,10.33-4.69A10.33,10.33,0,0,0,259.26,207.76Z"/><path class="cls-6" d="M213.91,231.57a13.84,13.84,0,0,0,5,1.21,13.62,13.62,0,0,0,5-1.21c1.7.67.89,5.43.89,5.43a3.39,3.39,0,0,1,1.13-.53c-.47,5.06-3.43,9-7,9s-6.56-3.9-7-9A3.39,3.39,0,0,1,213,237S212.21,232.24,213.91,231.57Zm-3,4.61a2,2,0,0,0,0,.23c.51,5.79,3.9,10.27,8,10.27s7.5-4.48,8-10.27c0-.08,0-.16,0-.23,0-.25.06-.51.08-.77s0-.35,0-.53a9.36,9.36,0,0,0-.09-1.3,8.07,8.07,0,0,0-16.05,0,9.36,9.36,0,0,0-.09,1.3c0,.18,0,.36,0,.53S210.85,235.93,210.89,236.18Z"/><path class="cls-6" d="M225.94,245.62h-.05l-.45-.06a.09.09,0,0,0,0,.05s0,.09,0,.13a2.14,2.14,0,0,1-.23.73,52.85,52.85,0,0,1-4.84,7.89l-.31-4.44a2.63,2.63,0,0,0,1.06-1,2.09,2.09,0,0,0,.28-1,6.38,6.38,0,0,1-2.27.5h-.39a6.38,6.38,0,0,1-2.27-.5,2.09,2.09,0,0,0,.28,1,2.57,2.57,0,0,0,1.06,1l-.31,4.44a53.8,53.8,0,0,1-4.85-7.89,2.37,2.37,0,0,1-.22-.73s0-.09,0-.13,0,0,0-.05l-.45.06h-.06a10.75,10.75,0,0,0-9.24,10.64c0,5.93,4.81,5.92,10.74,5.92h11.07c5.93,0,10.74,0,10.74-5.92A10.75,10.75,0,0,0,225.94,245.62Z"/><polygon class="cls-7" points="253.43 226.36 248.25 226.36 248.25 239.29 237.06 245.75 239.65 250.23 250.84 243.77 262.02 250.23 264.61 245.75 253.43 239.29 253.43 226.36"/></svg>