<svg id="Layer_1" data-name="Layer 1" xmlns="http://www.w3.org/2000/svg" xmlns:xlink="http://www.w3.org/1999/xlink" viewBox="0 0 114 55"><defs><style>.cls-1{fill:none;}.cls-2{clip-path:url(#clip-path);}.cls-3{fill:#d2d2d2;}</style><clipPath id="clip-path" transform="translate(-1.67 -13.16)"><rect class="cls-1" x="-7.64" width="129.13" height="80.78"/></clipPath></defs><title>snow plow</title><g class="cls-2"><path class="cls-3" d="M112.19,65.87a1.09,1.09,0,0,1-.67-.24,19.93,19.93,0,0,1-5.5-6.5,17,17,0,0,1-1.41-3.73,16.09,16.09,0,0,1,0-7.78A16.9,16.9,0,0,1,106,43.89a19.93,19.93,0,0,1,5.5-6.5,1.11,1.11,0,0,1,1.68.39,1.57,1.57,0,0,1-.33,2,17.24,17.24,0,0,0-4.78,5.61,13.07,13.07,0,0,0,0,12.31,17.24,17.24,0,0,0,4.78,5.61,1.57,1.57,0,0,1,.33,2,1.17,1.17,0,0,1-1,.63" transform="translate(-1.67 -13.16)"/><polygon class="cls-3" points="4.24 27.55 0 4.95 55.79 4.95 55.79 27.55 4.24 27.55"/><path class="cls-3" d="M101.6,43.83l1.78-12.33L84.6,29.28,76,13.16H58.92V42.34h-53l2.38,9.73H13v2.11a12.51,12.51,0,0,0-.44,3.3c0,6,4.15,10.84,9.27,10.84s9.27-4.85,9.27-10.84c0-.42,0-.84-.06-1.24h5.07c0,.41-.06.82-.06,1.24,0,6,4.15,10.84,9.27,10.84s9.27-4.85,9.27-10.84c0-.42,0-.84-.06-1.24H76.42c0,.41-.06.82-.06,1.24,0,6,4.15,10.84,9.27,10.84s9.27-4.85,9.27-10.84c0-.42,0-.84-.06-1.24h5l.24-1.69h6.17V46ZM21.87,62.67c-2.45,0-4.44-2.32-4.44-5.19s2-5.19,4.44-5.19,4.44,2.32,4.44,5.19-2,5.19-4.44,5.19m23.5,0c-2.45,0-4.44-2.32-4.44-5.19s2-5.19,4.44-5.19,4.44,2.32,4.44,5.19-2,5.19-4.44,5.19M61.89,28.85V16.44H74.61l6.58,12.42ZM85.63,62.67c-2.45,0-4.44-2.32-4.44-5.19s2-5.19,4.44-5.19,4.44,2.32,4.44,5.19-2,5.19-4.44,5.19" transform="translate(-1.67 -13.16)"/></g></svg>