<?xml version="1.0" encoding="UTF-8" standalone="no"?>
<svg
   xmlns:dc="http://purl.org/dc/elements/1.1/"
   xmlns:cc="http://creativecommons.org/ns#"
   xmlns:rdf="http://www.w3.org/1999/02/22-rdf-syntax-ns#"
   xmlns:svg="http://www.w3.org/2000/svg"
   xmlns="http://www.w3.org/2000/svg"
   xmlns:sodipodi="http://sodipodi.sourceforge.net/DTD/sodipodi-0.dtd"
   xmlns:inkscape="http://www.inkscape.org/namespaces/inkscape"
   id="Layer_1"
   data-name="Layer 1"
   width="1000"
   height="1000"
   viewBox="0 0 1000 1000"
   version="1.1"
   sodipodi:docname="strong_economy_ltblue.svg"
   inkscape:version="0.92.4 (5da689c313, 2019-01-14)">
  <metadata
     id="metadata15">
    <rdf:RDF>
      <cc:Work
         rdf:about="">
        <dc:format>image/svg+xml</dc:format>
        <dc:type
           rdf:resource="http://purl.org/dc/dcmitype/StillImage" />
        <dc:title></dc:title>
      </cc:Work>
    </rdf:RDF>
  </metadata>
  <sodipodi:namedview
     pagecolor="#ffffff"
     bordercolor="#666666"
     borderopacity="1"
     objecttolerance="10"
     gridtolerance="10"
     guidetolerance="10"
     inkscape:pageopacity="0"
     inkscape:pageshadow="2"
     inkscape:window-width="991"
     inkscape:window-height="1020"
     id="namedview13"
     showgrid="false"
     inkscape:zoom="0.236"
     inkscape:cx="500"
     inkscape:cy="500"
     inkscape:window-x="521"
     inkscape:window-y="361"
     inkscape:window-maximized="0"
     inkscape:current-layer="Layer_1" />
  <defs
     id="defs4">
    <style
       id="style2">.cls-1{fill:#2c2a6c;}.cls-2{fill:#fff;}</style>
  </defs>
  <circle
     class="cls-1"
     cx="500"
     cy="500"
     r="450"
     id="circle6"
     style="fill:#0070c0;fill-opacity:1" />
  <path
     class="cls-2"
     d="M665.76,690.0958c-2.8532.2238-6.9323.69-11.8615,1.2987,9.2153-24.9405,14.4817-45.3877,15.9864-78.0752,1.4453-31.4732,2.1935-159.1253,1.63-196.8117l-.1675-11.1508-10.027-.6118c-18.2329-1.1134-30.648-1.871-38.83-2.37l-.4027-9.0478c-1.462-32.8688,6.1071-59.0059,11.1528-75.3762,3.1342-8.0613,5.4245-13.952,6.7263-17.3q.4839-1.258.7825-2.0312l.0021-.0063c-5.0718-6.4578,11.3558,14.4474-11.37-14.4806h-.0052c1.4536,1.85,4.695,5.976,11.3682,14.4723l-11.361-14.4629h-.002l-.0073-.0083h-.0052l-.026.0041-.05.0073-.0968.0135-.1821.024-.3132.0447c-.1862.026-.3278.0458-.4225.0583-.1914.0281-.1987.0291-.0156.0062.0729-.0093.1988-.027.333-.0447-16.0133,2.1092-24.8738,3.616-29.76,3.9292-4.9853.1311-5.8.1519-5.8.1519s-5.0915.0354-17.64.1259c-12.4994-.5265-32.5647-1.898-61.5166-8.7345l-34.6076-8.1727,23.1977,27.264c5.564,6.539,12.7627,14.9239,24.0446,27.8021L490.3716,341.454c-4.8535,2.0874-9.9065,3.9459-14.7618,6.3028q-7.1754,3.7616-14.4328,7.5639c-9.66,5.0905-19.3463,10.1957-28.8218,15.1884-19.3658,9.3527-36.02,21.3775-50.653,30.752-14.3765,9.7461-26.7479,16.9832-33.45,22.9665-10.8157,8.8886-20.2308,17.1112-28.6956,25.0144-4.2334,3.9521-8.2281,7.823-12.0429,11.66-3.6846,3.846-7.5784,7.3787-11.28,12.386a32.1858,32.1858,0,0,0-5.8272,11.031c-.29,1.1988-.5327,2.4048-.7242,3.5983l-.25,1.7773-.1,1.5578.02.1175.0416.2363.0833.47.3371,1.8814c.1082.6493.4787,2.3308.795,3.4172a20.6006,20.6006,0,0,0,2.3319,5.5025,43.4615,43.4615,0,0,0,2.3881,3.72q2.2711,3.0826,4.61,6.2549c6.2424,8.3485,12.9176,16.8458,20.2693,26.0413-2.3153-11.543-4.5317-22.1194-6.9115-32.2681-1.0125-4.6358-3.0736-11.412-2.2955-12.4151.103-.1457.0239.3309.1155-.2737l.3143-1.8824c-.0032,1.026.69.2144.694.4506a22.1268,22.1268,0,0,0,2.48-1.487c3.2237-2.462,7.7877-4.9448,12.2018-7.9177,4.4016-2.8605,8.8482-5.8688,13.3994-9.0769,9.1019-6.4151,18.62-13.6252,29.0351-22.0425,6.4453-5.6815,18.1747-12.7522,31.673-22.4878,13.7522-9.363,29.3025-21.5419,47.5042-31.2192,8.8907-5.1925,17.9811-10.5005,27.0466-15.7949q6.7976-3.99,13.5475-7.952c4.5629-2.4953,9.3256-4.5,13.8926-6.7419,18.3849-8.7941,35.7187-17.0844,50.1213-23.9719l16.953-8.1081-12.0966-12.7637c-5.38-5.6763-10.05-10.5806-14.2372-14.96a303.7422,303.7422,0,0,0,31.49,1.83c13.5264-.6191,19.0133-.87,19.0133-.87s.8782-.0281,6.2466-.205c3.2559-.2237,8.1778-.9146,15.5139-1.9677-.5619,1.4911-1.1228,2.9812-1.7492,4.642-4.5848,15.2028-10.9365,38.0444-11.7533,66.4116-8.23-4.8626-19.09-11.32-30.238-17.9542l-4.5015-2.6784-4.1582,2.6024c-12.5846,7.8732-26.1839,16.3809-39.8685,24.9428-13.7407,8.4671-27.4867,17.107-39.9894,25.8447-25.211,17.1517-47.37,31.66-58.3127,40.0943-22.13,16.3068-40.7676,27.5835-56.5759,40.369-15.8833,12.7012-30.0466,25.78-44.6978,44.215a333.7909,333.7909,0,0,0,54.9422-31.0445c16.7147-11.6773,34.1672-23.6574,56.2242-39.5854,10.8355-8.1924,32.9851-22.3786,58.1319-39.1037,12.4723-8.5275,26.187-16.9374,39.8945-25.1694,11.8147-7.1976,23.4452-14.2819,34.53-21.0352,18.1268,10.9822,31.163,18.88,36.4585,22.0883-6.2642-.1811-20.1267-.5807-48.5271-1.4006l-10.6232-.307.5567,10.6575c1.44,27.5711,8.1924,162.9275,7.336,195.6962.37,38.2317-4.1747,59.9328,7.0208,91.8493,11.0332-31.9727,9.9146-53.6593,10.0842-91.8941,1.1883-29.3379-2.6181-142.9307-3.8564-185.3258l41.3846,1.4652s9.5421.9729,40.2151,4.1009c-3.9584,46.5511-11.796,156.7111-12.721,185.7181-1.0614,33.3212,2.7346,54.2481,10.261,80.5008-19.18,2.4578-46.6218,6.0811-72.6475,7.926-38.0382,3.6451-72.7049,6.9656-72.7049,6.9656s-34.6971.6306-72.8507,1.3246c-5.9136.2362-11.9154.3746-17.8937.4527,8.4671-17.362,12.9145-30.6823,12.28-52.1775-.2622-8.8542-1.9324-29.8779-3.949-52.194-1.0309-11.12-1.9844-21.7439-1.258-30.5117A49.7146,49.7146,0,0,1,421.705,554.15l9.1822-17.2027c1.03,38.7892,1.7677,85.4256-.2312,101.18-1.2654,28.9393-6.7325,45.1036,3.0811,69.8619,12.3841-23.5773,12.1945-40.0433,14-68.9535,3.3478-22.6189,2.1363-113.8478,1.8709-147.9537,6.6056.0864,11.1362.1728,13.9845.6223l5.1163.487s3.2.2862,10.43,1.5952c3.5949.7648,8.2026,1.7471,13.9374,2.9688,3.3018.744,7.0343,1.8438,11.0343,3.0447-3.7627,37.1932-9.98,110.518-10.6711,130.9173-.9813,28.954,4.3173,45.6292,14.3776,70.2866,12.1476-23.698,18.8645-39.855,20.3858-68.7861,1.1644-22.1912,1.2113-107.5721.49-140.4833l-.2175-9.9573-8.1259-1.8626c-8.8927-2.0385-16.3286-4.0811-22.67-5.1268-6.35-.9334-11.4507-1.6816-15.4309-2.2664-7.977-.8762-11.4817-.87-11.4817-.87s-1.0738-.0916-5.5754-.4724c-4.4859-.64-12.4619-.538-26.2224-.6691l-10.1373-.0968.3153,10.5264c.2,6.6388.9927,28.3514,1.6806,53.7914l-18.2163.4828c-30.26.8012-43.1359,1.1425-43.1359,1.1425l-3.0687.0323a83.4375,83.4375,0,0,0-9.6377.7128c-8.7531.8439-22.3326,2.155-41.6456,4.02l-9.1635.8845.9885,9.3631c.6077,5.7533,1.4568,13.7938,2.4162,22.8809,1.0187,9.1061,1.9521,19.287,2.1863,29.3078.3787,10.0071.9677,19.8468,1.0489,28.1839-.1374,8.33-.25,15.1934-.3171,19.338-.1543,11.7085-1.6663,20.8125-2.3468,29.6615a55.6229,55.6229,0,0,0,4.17,25.26c-15.1143-1.4433-27.0788-2.2965-43.0607,4.8834,20.8663,12.2746,35.5051,12.0113,61.1916,13.6867,13.926.8158,55.6126,3.8865,94.41,3.1987,38.6542.12,73.8.2289,73.8.2289s35.1641.1415,73.7475.2955c38.7332.8845,80.8431-2.1592,94.8211-3.5546,25.7948-2.744,39.8633-10.1383,59.94-23.2266C706.2186,692.5329,691.2177,687.9273,665.76,690.0958Zm-32.444-385.784c1.7326,2.2071.8866,1.1332-.0031,0Zm-3.9448-20.1673.0052-.0011-.0125.0021Zm-.19.0249.1-.0135.051-.0062.0208-.0031c-.0833.01-.16.0218-.2373.0322ZM616.3693,385.9522c.0333-.0208.0552-.0333.09-.053C616.8855,386.1937,616.8157,386.1874,616.3693,385.9522ZM333.172,707.4911c-6.186-.2726-11.6877-.7929-16.8229-1.2861a71.46,71.46,0,0,0,10.209-24.01c2.0936-8.6087,2.3559-18.0623,2.8064-30.2224.17-4.2924.4506-11.3912.79-20.0009.1218-8.5878-.23-18.6241-.36-28.8946.0166-10.2736-.6566-20.724-1.4256-30.0819-.3392-4.6678-.66-9.0642-.948-13.033,13.41-1.0957,23.4827-1.92,30.3119-2.4786a75.7171,75.7171,0,0,1,9.2663-.5224c2.0031.0229,2.95.0333,2.95.0333s6.9135.3694,22.5411,1.205a74.1052,74.1052,0,0,0-3.4414,12.1069c-2.417,12.0019-2.4953,24.53-2.5921,35.7374-.1842,22.4056-.1259,43.4959.3361,52.3418,1.12,21.3963,6.6027,34.2879,16.3945,50.8091C372.8105,709.3631,344.1927,707.9084,333.172,707.4911Z"
     id="path8" />
  <path
     class="cls-2"
     d="M629.3734,284.1341l.0021-.0011C627.6356,281.9187,628.4785,282.9936,629.3734,284.1341Z"
     id="path10" />
</svg>
