<?xml version="1.0" encoding="utf-8"?>
<!-- Generator: Adobe Illustrator 24.3.0, SVG Export Plug-In . SVG Version: 6.00 Build 0)  -->
<svg version="1.1" id="Layer_1" xmlns="http://www.w3.org/2000/svg" xmlns:xlink="http://www.w3.org/1999/xlink" x="0px" y="0px"
	 viewBox="0 0 1576.58 589.06" style="enable-background:new 0 0 1576.58 589.06;" xml:space="preserve">
<style type="text/css">
	.st0{fill:#558ED5;enable-background:new    ;}
	.st1{fill:#FFFFFF;}
	.st2{font-family:'ArialMT';}
	.st3{font-size:32px;}
	.st4{fill:#D99694;enable-background:new    ;}
	.st5{fill:none;}
	.st6{fill:#6FBD60;}
	.st7{fill:#8EB4E3;enable-background:new    ;}
	.st8{font-size:29px;}
	.st9{font-size:28px;}
	.st10{fill:none;stroke:#D99694;stroke-width:5;stroke-miterlimit:10;}
	.st11{fill:none;stroke:#558ED5;stroke-width:5;stroke-miterlimit:10;}
	.st12{fill:none;stroke:#6FBD60;stroke-width:5;stroke-miterlimit:10;}
	.st13{fill:none;stroke:#000000;stroke-width:4;stroke-miterlimit:10;}
	.st14{fill:none;stroke:#000000;stroke-width:4;stroke-miterlimit:10;stroke-dasharray:10.7134,6.4281;}
	.st15{font-size:36px;}
	.st16{font-size:37px;}
	.st17{font-size:25px;}
</style>
<polygon class="st0" points="16.59,439.66 591.64,439.66 591.95,292.71 119.39,412.7 "/>
<text transform="matrix(1 0 0 1 408.2934 393.6427)" class="st1 st2 st3">29.4cpg</text>
<path id="SVGID_x5F_1_x5F_" class="st4" d="M593.75,213.61L125.5,411.73l466.45-118.62L593.75,213.61z"/>
<text><textPath  xlink:href="#SVGID_x5F_1_x5F_" startOffset="72.583%">
<tspan  class="st1 st2 st3">above 29.4cpg</tspan></textPath>
</text>
<g>
	<polygon class="st5" points="1127.75,38.22 1156.34,141.88 1294.72,141.88 1322.3,38.22 	"/>
	<text transform="matrix(1 0 0 1 1191.511 82.2117)" class="st6 st2 st3">Sales</text>
	<text transform="matrix(1 0 0 1 1202.351 120.6117)" class="st6 st2 st3">Tax</text>
	<g>
		<polygon class="st6" points="1127.75,38.22 1156.34,141.88 1294.72,141.88 1322.3,38.22 		"/>
		<text transform="matrix(1 0 0 1 1191.511 82.2117)" class="st1 st2 st3">Sales</text>
		<text transform="matrix(1 0 0 1 1202.351 120.6117)" class="st1 st2 st3">Tax</text>
	</g>
</g>
<g>
	<polygon class="st5" points="1156.6,141.88 1177.54,215.92 1273.03,215.92 1293.45,141.88 	"/>
	<text transform="matrix(1 0 0 1 1170.265 171.0658)" class="st1 st2 st3">Fuel Tax </text>
	<text transform="matrix(1 0 0 1 1199.6952 209.4658)" class="st1 st2 st3">Reg</text>
	<polygon class="st5" points="1156.6,141.88 1177.54,215.92 1273.03,215.92 1293.45,141.88 	"/>
	<polygon class="st5" points="1156.6,141.88 1177.54,215.92 1273.03,215.92 1293.45,141.88 	"/>
	<polygon class="st7" points="1156.6,141.88 1177.54,215.92 1273.03,215.92 1293.45,141.88 	"/>
	<text transform="matrix(1 0 0 1 1170.265 171.0658)" class="st1 st2 st8">Fuel Tax</text>
	<text transform="matrix(1 0 0 1 1199.6952 209.4658)" class="st1 st2 st9">Reg</text>
</g>
<polyline class="st10" points="593.75,215.96 841.29,212.27 827.87,202.11 845,213.61 827.87,222.43 "/>
<polyline class="st10" points="591.64,249.89 768.65,247.38 756.18,237.22 771.42,248.77 756.18,257.54 "/>
<polyline class="st10" points="591.64,289.62 656.23,288.19 643.76,278.03 659,289.58 643.76,298.35 "/>
<polyline class="st11" points="591.64,356.24 650.59,356.23 638.12,346.08 653.36,357.62 638.12,366.39 "/>
<polyline class="st11" points="591.64,417.97 651.13,417.97 638.66,407.81 653.9,419.35 638.66,428.13 "/>
<polyline class="st10" points="1123.71,213.61 1162.35,213.61 1149.88,203.45 1165.12,215 1149.88,223.77 "/>
<polyline class="st12" points="1313.23,86.68 1353.05,85.8 1340.58,75.64 1355.82,87.19 1340.58,95.96 "/>
<g>
	<g>
		<line class="st13" x1="129.84" y1="366.17" x2="129.84" y2="371.17"/>
		<line class="st14" x1="129.84" y1="377.59" x2="129.84" y2="477.23"/>
		<line class="st13" x1="129.84" y1="480.44" x2="129.84" y2="485.44"/>
	</g>
</g>
<line class="st13" x1="16.59" y1="439.66" x2="16.59" y2="485.44"/>
<rect x="855.14" y="187.65" class="st5" width="245.78" height="28.92"/>
<text transform="matrix(1 0 0 1 851.5644 226.0076)" class="st2 st15">35% TIF (transit)</text>
<rect x="776.83" y="228.24" class="st5" width="322.59" height="37.95"/>
<text transform="matrix(1 0 0 1 776.8297 262.475)" class="st2 st15">35% State Highways</text>
<rect x="673.98" y="258.31" class="st5" width="146.99" height="28.92"/>
<text transform="matrix(1 0 0 1 665.8201 302.9413)" class="st2 st15">30% B&amp;C</text>
<rect x="659" y="329.06" class="st5" width="309.84" height="28.92"/>
<text transform="matrix(1 0 0 1 658.9993 368.6714)" class="st2 st15">70% State Highways</text>
<rect x="673.98" y="399.8" class="st5" width="146.99" height="28.92"/>
<text transform="matrix(1 0 0 1 660.6913 434.015)" class="st2 st15">30% B&amp;C</text>
<rect x="1194.9" y="11.95" class="st5" width="60.24" height="37.35"/>
<text transform="matrix(1 0 0 1 1194.9006 38.2222)" class="st2 st16">TIF</text>
<rect x="1360.98" y="60.5" class="st6" width="181.71" height="50.6"/>
<text transform="matrix(1 0 0 1 1386.3894 95.9632)" class="st2 st9">Transit TIF</text>
<rect x="1350.07" y="118.77" class="st5" width="226.51" height="98.8"/>
<text transform="matrix(1 0 0 1 1350.0668 138.6508)" class="st2 st9">Amount equal to </text>
<text transform="matrix(1 0 0 1 1350.0668 172.2508)" class="st2 st9">35% of index fuel </text>
<text transform="matrix(1 0 0 1 1350.0668 205.8508)" class="st2 st9">tax to Transit</text>
<rect x="9.36" y="498.7" class="st5" width="103.61" height="90.36"/>
<text transform="matrix(1 0 0 1 9.3596 516.4502)" class="st2 st17">2015</text>
<text transform="matrix(1 0 0 1 9.3596 546.4502)" class="st2 st17">Gas tax </text>
<text transform="matrix(1 0 0 1 9.3596 576.4502)" class="st2 st17">increase</text>
<rect x="126.23" y="495.08" class="st5" width="238.17" height="93.98"/>
<text transform="matrix(1 0 0 1 126.2268 512.8349)" class="st2 st17">2019 </text>
<text transform="matrix(1 0 0 1 126.2268 542.8349)" class="st2 st17">Annual CPI </text>
<text transform="matrix(1 0 0 1 126.2268 572.8349)" class="st2 st17">adjustment begins</text>
<rect x="61.17" y="221.75" class="st5" width="418.07" height="29.24"/>
<text transform="matrix(1 0 0 1 61.1666 244.4753)" class="st2 st3">Motor fuel and diesel fuel tax</text>
</svg>
